<?xml version="1.0" encoding="UTF-8" standalone="no"?>
<!DOCTYPE svg PUBLIC "-//W3C//DTD SVG 1.1//EN"
 "http://www.w3.org/Graphics/SVG/1.1/DTD/svg11.dtd">
<!-- Generated by graphviz version 9.0.0 (20230911.1827)
 -->
<!-- Title: dependencies Pages: 1 -->
<svg width="863pt" height="548pt"
 viewBox="0.00 0.00 863.25 548.00" xmlns="http://www.w3.org/2000/svg" xmlns:xlink="http://www.w3.org/1999/xlink">
<g id="graph0" class="graph" transform="scale(1 1) rotate(0) translate(4 544)">
<title>dependencies</title>
<polygon fill="white" stroke="none" points="-4,4 -4,-544 859.25,-544 859.25,4 -4,4"/>
<!-- encoding/json -->
<g id="node1" class="node">
<title>encoding/json</title>
<polygon fill="#87cefa" stroke="black" points="531.88,-396 440.12,-396 440.12,-360 531.88,-360 531.88,-396"/>
<text text-anchor="middle" x="486" y="-372.95" font-family="Times,serif" font-size="14.00">encoding/json</text>
</g>
<!-- conv -->
<g id="node8" class="node">
<title>conv</title>
<polygon fill="none" stroke="black" points="382,-324 328,-324 328,-288 382,-288 382,-324"/>
<text text-anchor="middle" x="355" y="-300.95" font-family="Times,serif" font-size="14.00">conv</text>
</g>
<!-- encoding/json&#45;&gt;conv -->
<g id="edge5" class="edge">
<title>encoding/json&#45;&gt;conv</title>
<path fill="none" stroke="black" d="M453.28,-359.52C434.78,-349.63 411.58,-337.23 392.36,-326.97"/>
<polygon fill="black" stroke="black" points="394.25,-324 383.78,-322.38 390.95,-330.18 394.25,-324"/>
</g>
<!-- constraint -->
<g id="node9" class="node">
<title>constraint</title>
<polygon fill="none" stroke="black" points="129.62,-36 60.38,-36 60.38,0 129.62,0 129.62,-36"/>
<text text-anchor="middle" x="95" y="-12.95" font-family="Times,serif" font-size="14.00">constraint</text>
</g>
<!-- encoding/json&#45;&gt;constraint -->
<g id="edge4" class="edge">
<title>encoding/json&#45;&gt;constraint</title>
<path fill="none" stroke="black" d="M471.02,-359.65C453.46,-340.14 422.68,-308.51 391,-288 286.66,-220.44 213.37,-274.83 133,-180 116.26,-160.25 104.25,-88.47 98.61,-47.74"/>
<polygon fill="black" stroke="black" points="102.1,-47.38 97.3,-37.93 95.16,-48.3 102.1,-47.38"/>
</g>
<!-- funcs -->
<g id="node10" class="node">
<title>funcs</title>
<polygon fill="none" stroke="black" points="513,-108 459,-108 459,-72 513,-72 513,-108"/>
<text text-anchor="middle" x="486" y="-84.95" font-family="Times,serif" font-size="14.00">funcs</text>
</g>
<!-- encoding/json&#45;&gt;funcs -->
<g id="edge6" class="edge">
<title>encoding/json&#45;&gt;funcs</title>
<path fill="none" stroke="black" d="M478.13,-359.66C461.45,-320.44 425.94,-222.25 450,-144 452.88,-134.63 458.05,-125.42 463.58,-117.39"/>
<polygon fill="black" stroke="black" points="466.33,-119.56 469.49,-109.44 460.71,-115.38 466.33,-119.56"/>
</g>
<!-- tuple -->
<g id="node12" class="node">
<title>tuple</title>
<polygon fill="none" stroke="black" points="699,-36 645,-36 645,0 699,0 699,-36"/>
<text text-anchor="middle" x="672" y="-12.95" font-family="Times,serif" font-size="14.00">tuple</text>
</g>
<!-- encoding/json&#45;&gt;tuple -->
<g id="edge7" class="edge">
<title>encoding/json&#45;&gt;tuple</title>
<path fill="none" stroke="black" d="M523.89,-359.69C580.64,-331.39 685.55,-269.29 728,-180 735.14,-164.99 732.08,-90.3 724,-72 719.44,-61.67 711.92,-52.21 703.99,-44.22"/>
<polygon fill="black" stroke="black" points="706.49,-41.77 696.79,-37.5 701.71,-46.89 706.49,-41.77"/>
</g>
<!-- union -->
<g id="node13" class="node">
<title>union</title>
<polygon fill="none" stroke="black" points="513,-180 459,-180 459,-144 513,-144 513,-180"/>
<text text-anchor="middle" x="486" y="-156.95" font-family="Times,serif" font-size="14.00">union</text>
</g>
<!-- encoding/json&#45;&gt;union -->
<g id="edge8" class="edge">
<title>encoding/json&#45;&gt;union</title>
<path fill="none" stroke="black" d="M486,-359.85C486,-323.14 486,-236.66 486,-191.53"/>
<polygon fill="black" stroke="black" points="489.5,-191.75 486,-181.75 482.5,-191.75 489.5,-191.75"/>
</g>
<!-- encoding/json/parse -->
<g id="node2" class="node">
<title>encoding/json/parse</title>
<polygon fill="#87cefa" stroke="black" points="591,-540 467,-540 467,-504 591,-504 591,-540"/>
<text text-anchor="middle" x="529" y="-516.95" font-family="Times,serif" font-size="14.00">encoding/json/parse</text>
</g>
<!-- encoding/json/parse&#45;&gt;encoding/json -->
<g id="edge9" class="edge">
<title>encoding/json/parse&#45;&gt;encoding/json</title>
<path fill="none" stroke="black" d="M523.73,-503.59C516.43,-479.5 503.19,-435.75 494.49,-407.03"/>
<polygon fill="black" stroke="black" points="497.87,-406.12 491.62,-397.56 491.17,-408.14 497.87,-406.12"/>
</g>
<!-- stream -->
<g id="node6" class="node">
<title>stream</title>
<polygon fill="#87cefa" stroke="black" points="327,-468 273,-468 273,-432 327,-432 327,-468"/>
<text text-anchor="middle" x="300" y="-444.95" font-family="Times,serif" font-size="14.00">stream</text>
</g>
<!-- encoding/json/parse&#45;&gt;stream -->
<g id="edge12" class="edge">
<title>encoding/json/parse&#45;&gt;stream</title>
<path fill="none" stroke="black" d="M471.8,-503.52C430.02,-490.75 374.53,-473.78 338.07,-462.64"/>
<polygon fill="black" stroke="black" points="339.43,-459.39 328.85,-459.82 337.39,-466.09 339.43,-459.39"/>
</g>
<!-- iter -->
<g id="node7" class="node">
<title>iter</title>
<polygon fill="#e6e6fa" stroke="black" points="568,-252 514,-252 514,-216 568,-216 568,-252"/>
<text text-anchor="middle" x="541" y="-228.95" font-family="Times,serif" font-size="14.00">iter</text>
</g>
<!-- encoding/json/parse&#45;&gt;iter -->
<g id="edge11" class="edge">
<title>encoding/json/parse&#45;&gt;iter</title>
<path fill="none" stroke="black" d="M537.5,-503.54C555.36,-464.46 593.46,-367.21 572,-288 569.53,-278.88 565.06,-269.73 560.26,-261.66"/>
<polygon fill="black" stroke="black" points="563.3,-259.91 554.96,-253.37 557.4,-263.68 563.3,-259.91"/>
</g>
<!-- encoding/json/parse&#45;&gt;funcs -->
<g id="edge10" class="edge">
<title>encoding/json/parse&#45;&gt;funcs</title>
<path fill="none" stroke="black" d="M591.27,-511.87C640.49,-503.23 703.42,-488.52 719,-468 728.68,-455.26 722.87,-447.52 719,-432 683.85,-291.17 662.67,-251.37 565,-144 553.08,-130.9 537.28,-119.47 522.95,-110.62"/>
<polygon fill="black" stroke="black" points="525.01,-107.77 514.63,-105.68 521.44,-113.79 525.01,-107.77"/>
</g>
<!-- encoding/json/write -->
<g id="node3" class="node">
<title>encoding/json/write</title>
<polygon fill="#87cefa" stroke="black" points="709.62,-468 586.38,-468 586.38,-432 709.62,-432 709.62,-468"/>
<text text-anchor="middle" x="648" y="-444.95" font-family="Times,serif" font-size="14.00">encoding/json/write</text>
</g>
<!-- encoding/json/write&#45;&gt;encoding/json -->
<g id="edge13" class="edge">
<title>encoding/json/write&#45;&gt;encoding/json</title>
<path fill="none" stroke="black" d="M607.54,-431.52C586.1,-422.25 559.55,-410.78 536.75,-400.93"/>
<polygon fill="black" stroke="black" points="538.18,-397.74 527.62,-396.98 535.41,-404.16 538.18,-397.74"/>
</g>
<!-- encoding/json/write&#45;&gt;funcs -->
<g id="edge14" class="edge">
<title>encoding/json/write&#45;&gt;funcs</title>
<path fill="none" stroke="black" d="M645.58,-431.84C637.95,-382.68 610.62,-238.73 541,-144 533.68,-134.04 524.4,-124.31 515.56,-115.96"/>
<polygon fill="black" stroke="black" points="518.15,-113.59 508.41,-109.43 513.43,-118.76 518.15,-113.59"/>
</g>
<!-- io/writer -->
<g id="node14" class="node">
<title>io/writer</title>
<polygon fill="none" stroke="black" points="855.25,-180 792.75,-180 792.75,-144 855.25,-144 855.25,-180"/>
<text text-anchor="middle" x="824" y="-156.95" font-family="Times,serif" font-size="14.00">io/writer</text>
</g>
<!-- encoding/json/write&#45;&gt;io/writer -->
<g id="edge15" class="edge">
<title>encoding/json/write&#45;&gt;io/writer</title>
<path fill="none" stroke="black" d="M658.74,-431.54C688.46,-383.26 771.87,-247.71 807.51,-189.79"/>
<polygon fill="black" stroke="black" points="810.34,-191.87 812.6,-181.52 804.38,-188.2 810.34,-191.87"/>
</g>
<!-- event -->
<g id="node4" class="node">
<title>event</title>
<polygon fill="#87cefa" stroke="black" points="196,-180 142,-180 142,-144 196,-144 196,-180"/>
<text text-anchor="middle" x="169" y="-156.95" font-family="Times,serif" font-size="14.00">event</text>
</g>
<!-- event&#45;&gt;constraint -->
<g id="edge16" class="edge">
<title>event&#45;&gt;constraint</title>
<path fill="none" stroke="black" d="M161.76,-143.63C154.02,-125.46 141.07,-96.26 128,-72 123.32,-63.32 117.8,-54.11 112.62,-45.85"/>
<polygon fill="black" stroke="black" points="115.7,-44.17 107.38,-37.62 109.8,-47.93 115.7,-44.17"/>
</g>
<!-- event&#45;&gt;funcs -->
<g id="edge17" class="edge">
<title>event&#45;&gt;funcs</title>
<path fill="none" stroke="black" d="M196.3,-154.97C252.83,-142.49 382.81,-113.79 447.7,-99.46"/>
<polygon fill="black" stroke="black" points="448.16,-102.94 457.17,-97.37 446.65,-96.1 448.16,-102.94"/>
</g>
<!-- event&#45;&gt;tuple -->
<g id="edge18" class="edge">
<title>event&#45;&gt;tuple</title>
<path fill="none" stroke="black" d="M172.56,-143.68C177.79,-122.96 189.71,-88.94 214,-72 281.44,-24.97 535.57,-19.29 633.34,-18.88"/>
<polygon fill="black" stroke="black" points="633.23,-22.38 643.22,-18.86 633.21,-15.38 633.23,-22.38"/>
</g>
<!-- rest -->
<g id="node5" class="node">
<title>rest</title>
<polygon fill="#87cefa" stroke="black" points="699,-180 645,-180 645,-144 699,-144 699,-180"/>
<text text-anchor="middle" x="672" y="-156.95" font-family="Times,serif" font-size="14.00">rest</text>
</g>
<!-- rest&#45;&gt;funcs -->
<g id="edge31" class="edge">
<title>rest&#45;&gt;funcs</title>
<path fill="none" stroke="black" d="M644.72,-149.5C640.15,-147.63 635.45,-145.74 631,-144 594.91,-129.93 553.35,-114.85 524,-104.39"/>
<polygon fill="black" stroke="black" points="525.41,-101.18 514.82,-101.13 523.07,-107.77 525.41,-101.18"/>
</g>
<!-- rest&#45;&gt;tuple -->
<g id="edge32" class="edge">
<title>rest&#45;&gt;tuple</title>
<path fill="none" stroke="black" d="M672,-143.59C672,-119.61 672,-76.14 672,-47.42"/>
<polygon fill="black" stroke="black" points="675.5,-47.62 672,-37.62 668.5,-47.62 675.5,-47.62"/>
</g>
<!-- stream&#45;&gt;iter -->
<g id="edge36" class="edge">
<title>stream&#45;&gt;iter</title>
<path fill="none" stroke="black" d="M327.41,-447.16C384.79,-442.68 514.43,-429.05 541,-396 571.21,-358.42 560.71,-298.39 550.64,-263.22"/>
<polygon fill="black" stroke="black" points="554.02,-262.3 547.75,-253.76 547.33,-264.35 554.02,-262.3"/>
</g>
<!-- stream&#45;&gt;conv -->
<g id="edge34" class="edge">
<title>stream&#45;&gt;conv</title>
<path fill="none" stroke="black" d="M306.74,-431.59C316.11,-407.4 333.17,-363.36 344.29,-334.65"/>
<polygon fill="black" stroke="black" points="347.48,-336.11 347.83,-325.52 340.95,-333.58 347.48,-336.11"/>
</g>
<!-- stream&#45;&gt;constraint -->
<g id="edge33" class="edge">
<title>stream&#45;&gt;constraint</title>
<path fill="none" stroke="black" d="M272.58,-439.15C198.52,-412.16 0,-337 0,-307 0,-307 0,-307 0,-161 0,-113.42 37.3,-69.72 65.15,-43.71"/>
<polygon fill="black" stroke="black" points="67.24,-46.54 72.32,-37.24 62.55,-41.34 67.24,-46.54"/>
</g>
<!-- stream&#45;&gt;funcs -->
<g id="edge35" class="edge">
<title>stream&#45;&gt;funcs</title>
<path fill="none" stroke="black" d="M300,-431.51C300,-404.71 300,-351.87 300,-307 300,-307 300,-307 300,-233 300,-159.42 393.1,-118.88 447.57,-101.45"/>
<polygon fill="black" stroke="black" points="448.57,-104.81 457.11,-98.53 446.52,-98.11 448.57,-104.81"/>
</g>
<!-- stream&#45;&gt;tuple -->
<g id="edge38" class="edge">
<title>stream&#45;&gt;tuple</title>
<path fill="none" stroke="black" d="M294.34,-431.73C278.72,-380.34 240.87,-226.9 316,-144 400.8,-50.43 559.74,-26.9 633.09,-20.99"/>
<polygon fill="black" stroke="black" points="633.29,-24.48 643.01,-20.26 632.78,-17.5 633.29,-24.48"/>
</g>
<!-- math -->
<g id="node16" class="node">
<title>math</title>
<polygon fill="none" stroke="black" points="234,-396 180,-396 180,-360 234,-360 234,-396"/>
<text text-anchor="middle" x="207" y="-372.95" font-family="Times,serif" font-size="14.00">math</text>
</g>
<!-- stream&#45;&gt;math -->
<g id="edge37" class="edge">
<title>stream&#45;&gt;math</title>
<path fill="none" stroke="black" d="M277.01,-431.7C265.61,-423.11 251.65,-412.61 239.2,-403.24"/>
<polygon fill="black" stroke="black" points="241.35,-400.47 231.26,-397.26 237.14,-406.07 241.35,-400.47"/>
</g>
<!-- iter&#45;&gt;funcs -->
<g id="edge24" class="edge">
<title>iter&#45;&gt;funcs</title>
<path fill="none" stroke="black" d="M539.3,-215.67C537.05,-197.29 532.11,-167.69 522,-144 518.09,-134.84 512.51,-125.6 506.9,-117.46"/>
<polygon fill="black" stroke="black" points="509.75,-115.42 501.05,-109.38 504.08,-119.53 509.75,-115.42"/>
</g>
<!-- iter&#45;&gt;tuple -->
<g id="edge25" class="edge">
<title>iter&#45;&gt;tuple</title>
<path fill="none" stroke="black" d="M568.3,-226.21C613.45,-214.71 699.56,-191.54 708,-180 737.4,-139.82 710.27,-79.97 689.83,-45.69"/>
<polygon fill="black" stroke="black" points="693.07,-44.27 684.83,-37.62 687.12,-47.96 693.07,-44.27"/>
</g>
<!-- iter&#45;&gt;union -->
<g id="edge26" class="edge">
<title>iter&#45;&gt;union</title>
<path fill="none" stroke="black" d="M527.4,-215.7C521.08,-207.64 513.42,-197.89 506.41,-188.98"/>
<polygon fill="black" stroke="black" points="509.3,-187 500.37,-181.29 503.8,-191.32 509.3,-187"/>
</g>
<!-- conv&#45;&gt;constraint -->
<g id="edge1" class="edge">
<title>conv&#45;&gt;constraint</title>
<path fill="none" stroke="black" d="M327.76,-300.93C273.42,-291.18 152.26,-260.99 100,-180 74.09,-139.85 80.54,-81.58 87.69,-47.26"/>
<polygon fill="black" stroke="black" points="91.07,-48.19 89.87,-37.66 84.25,-46.64 91.07,-48.19"/>
</g>
<!-- conv&#45;&gt;funcs -->
<g id="edge2" class="edge">
<title>conv&#45;&gt;funcs</title>
<path fill="none" stroke="black" d="M352.1,-287.64C349.77,-269.22 348.16,-239.59 357,-216 373.91,-170.88 417.4,-134.69 449.23,-113.08"/>
<polygon fill="black" stroke="black" points="451,-116.11 457.42,-107.69 447.15,-110.26 451,-116.11"/>
</g>
<!-- reflect -->
<g id="node11" class="node">
<title>reflect</title>
<polygon fill="none" stroke="black" points="420,-252 366,-252 366,-216 420,-216 420,-252"/>
<text text-anchor="middle" x="393" y="-228.95" font-family="Times,serif" font-size="14.00">reflect</text>
</g>
<!-- conv&#45;&gt;reflect -->
<g id="edge3" class="edge">
<title>conv&#45;&gt;reflect</title>
<path fill="none" stroke="black" d="M364.39,-287.7C368.58,-279.98 373.61,-270.71 378.28,-262.11"/>
<polygon fill="black" stroke="black" points="381.3,-263.89 382.99,-253.43 375.15,-260.55 381.3,-263.89"/>
</g>
<!-- funcs&#45;&gt;constraint -->
<g id="edge19" class="edge">
<title>funcs&#45;&gt;constraint</title>
<path fill="none" stroke="black" d="M458.51,-84.08C392.25,-72.22 223.18,-41.95 141.1,-27.25"/>
<polygon fill="black" stroke="black" points="141.83,-23.83 131.37,-25.51 140.6,-30.72 141.83,-23.83"/>
</g>
<!-- funcs&#45;&gt;tuple -->
<g id="edge20" class="edge">
<title>funcs&#45;&gt;tuple</title>
<path fill="none" stroke="black" d="M513.44,-78.67C545.41,-66.64 598.38,-46.7 634.22,-33.22"/>
<polygon fill="black" stroke="black" points="635.2,-36.59 643.33,-29.79 632.74,-30.04 635.2,-36.59"/>
</g>
<!-- reflect&#45;&gt;union -->
<g id="edge30" class="edge">
<title>reflect&#45;&gt;union</title>
<path fill="none" stroke="black" d="M415.99,-215.7C427.39,-207.11 441.35,-196.61 453.8,-187.24"/>
<polygon fill="black" stroke="black" points="455.86,-190.07 461.74,-181.26 451.65,-184.47 455.86,-190.07"/>
</g>
<!-- union&#45;&gt;funcs -->
<g id="edge39" class="edge">
<title>union&#45;&gt;funcs</title>
<path fill="none" stroke="black" d="M486,-143.7C486,-136.41 486,-127.73 486,-119.54"/>
<polygon fill="black" stroke="black" points="489.5,-119.62 486,-109.62 482.5,-119.62 489.5,-119.62"/>
</g>
<!-- io/writer&#45;&gt;funcs -->
<g id="edge22" class="edge">
<title>io/writer&#45;&gt;funcs</title>
<path fill="none" stroke="black" d="M792.51,-154.48C730.23,-141.58 591.55,-112.86 524.19,-98.91"/>
<polygon fill="black" stroke="black" points="525.23,-95.55 514.72,-96.95 523.81,-102.4 525.23,-95.55"/>
</g>
<!-- io/writer&#45;&gt;tuple -->
<g id="edge23" class="edge">
<title>io/writer&#45;&gt;tuple</title>
<path fill="none" stroke="black" d="M818.91,-143.59C812.42,-124.03 799.53,-92.36 779,-72 759.74,-52.89 732.2,-39.47 709.89,-30.91"/>
<polygon fill="black" stroke="black" points="711.11,-27.63 700.51,-27.51 708.71,-34.21 711.11,-27.63"/>
</g>
<!-- io -->
<g id="node15" class="node">
<title>io</title>
<polygon fill="none" stroke="black" points="234,-468 180,-468 180,-432 234,-432 234,-468"/>
<text text-anchor="middle" x="207" y="-444.95" font-family="Times,serif" font-size="14.00">io</text>
</g>
<!-- io&#45;&gt;math -->
<g id="edge21" class="edge">
<title>io&#45;&gt;math</title>
<path fill="none" stroke="black" d="M207,-431.7C207,-424.41 207,-415.73 207,-407.54"/>
<polygon fill="black" stroke="black" points="210.5,-407.62 207,-397.62 203.5,-407.62 210.5,-407.62"/>
</g>
<!-- math&#45;&gt;conv -->
<g id="edge28" class="edge">
<title>math&#45;&gt;conv</title>
<path fill="none" stroke="black" d="M234.49,-364C257.85,-352.95 291.62,-336.98 317.47,-324.75"/>
<polygon fill="black" stroke="black" points="318.74,-328.02 326.29,-320.58 315.75,-321.69 318.74,-328.02"/>
</g>
<!-- math&#45;&gt;constraint -->
<g id="edge27" class="edge">
<title>math&#45;&gt;constraint</title>
<path fill="none" stroke="black" d="M179.85,-368.34C132.07,-351.21 38,-308.2 38,-235 38,-235 38,-235 38,-161 38,-118.6 60.16,-73.87 76.84,-46.2"/>
<polygon fill="black" stroke="black" points="79.79,-48.09 82.11,-37.76 73.85,-44.39 79.79,-48.09"/>
</g>
<!-- math&#45;&gt;funcs -->
<g id="edge29" class="edge">
<title>math&#45;&gt;funcs</title>
<path fill="none" stroke="black" d="M207.56,-359.75C209.91,-316.68 222.18,-203.63 286,-144 330.12,-102.78 402.52,-92.84 447.05,-90.87"/>
<polygon fill="black" stroke="black" points="447.15,-94.37 457.04,-90.56 446.93,-87.38 447.15,-94.37"/>
</g>
</g>
</svg>
