<?xml version="1.0" encoding="UTF-8" standalone="no"?>
<!DOCTYPE svg PUBLIC "-//W3C//DTD SVG 1.1//EN"
 "http://www.w3.org/Graphics/SVG/1.1/DTD/svg11.dtd">
<!-- Generated by graphviz version 8.1.0 (20230707.0739)
 -->
<!-- Title: dependencies Pages: 1 -->
<svg width="479pt" height="332pt"
 viewBox="0.00 0.00 478.76 332.00" xmlns="http://www.w3.org/2000/svg" xmlns:xlink="http://www.w3.org/1999/xlink">
<g id="graph0" class="graph" transform="scale(1 1) rotate(0) translate(4 328)">
<title>dependencies</title>
<polygon fill="white" stroke="none" points="-4,4 -4,-328 474.76,-328 474.76,4 -4,4"/>
<!-- conv -->
<g id="node1" class="node">
<title>conv</title>
<ellipse fill="none" stroke="black" cx="61.86" cy="-162" rx="28.83" ry="18"/>
<text text-anchor="middle" x="61.86" y="-156.95" font-family="Times,serif" font-size="14.00">conv</text>
</g>
<!-- constraint -->
<g id="node2" class="node">
<title>constraint</title>
<ellipse fill="none" stroke="black" cx="137.86" cy="-18" rx="47.26" ry="18"/>
<text text-anchor="middle" x="137.86" y="-12.95" font-family="Times,serif" font-size="14.00">constraint</text>
</g>
<!-- conv&#45;&gt;constraint -->
<g id="edge1" class="edge">
<title>conv&#45;&gt;constraint</title>
<path fill="none" stroke="black" d="M74.45,-145.37C82.35,-135.12 92.42,-121.22 99.86,-108 111.04,-88.15 121.04,-64.35 127.97,-46.36"/>
<polygon fill="black" stroke="black" points="131.53,-47.85 131.78,-37.26 124.98,-45.38 131.53,-47.85"/>
</g>
<!-- funcs -->
<g id="node3" class="node">
<title>funcs</title>
<ellipse fill="none" stroke="black" cx="234.86" cy="-90" rx="30.88" ry="18"/>
<text text-anchor="middle" x="234.86" y="-84.95" font-family="Times,serif" font-size="14.00">funcs</text>
</g>
<!-- conv&#45;&gt;funcs -->
<g id="edge2" class="edge">
<title>conv&#45;&gt;funcs</title>
<path fill="none" stroke="black" d="M85.55,-151.41C115.16,-139.44 166.05,-118.84 200.08,-105.07"/>
<polygon fill="black" stroke="black" points="201.1,-108.03 209.06,-101.04 198.47,-101.54 201.1,-108.03"/>
</g>
<!-- reflect -->
<g id="node4" class="node">
<title>reflect</title>
<ellipse fill="none" stroke="black" cx="56.86" cy="-90" rx="34.46" ry="18"/>
<text text-anchor="middle" x="56.86" y="-84.95" font-family="Times,serif" font-size="14.00">reflect</text>
</g>
<!-- conv&#45;&gt;reflect -->
<g id="edge3" class="edge">
<title>conv&#45;&gt;reflect</title>
<path fill="none" stroke="black" d="M60.62,-143.7C60.09,-136.24 59.45,-127.32 58.86,-118.97"/>
<polygon fill="black" stroke="black" points="62.29,-118.83 58.08,-109.1 55.3,-119.33 62.29,-118.83"/>
</g>
<!-- funcs&#45;&gt;constraint -->
<g id="edge5" class="edge">
<title>funcs&#45;&gt;constraint</title>
<path fill="none" stroke="black" d="M216.16,-75.5C202.54,-65.67 183.79,-52.15 168.06,-40.79"/>
<polygon fill="black" stroke="black" points="170.36,-37.42 160.21,-34.41 166.27,-43.1 170.36,-37.42"/>
</g>
<!-- tuple -->
<g id="node6" class="node">
<title>tuple</title>
<ellipse fill="none" stroke="black" cx="340.86" cy="-18" rx="29.34" ry="18"/>
<text text-anchor="middle" x="340.86" y="-12.95" font-family="Times,serif" font-size="14.00">tuple</text>
</g>
<!-- funcs&#45;&gt;tuple -->
<g id="edge6" class="edge">
<title>funcs&#45;&gt;tuple</title>
<path fill="none" stroke="black" d="M254.8,-75.83C271.04,-65.11 294.17,-49.83 312.37,-37.82"/>
<polygon fill="black" stroke="black" points="313.95,-40.3 320.37,-31.87 310.1,-34.46 313.95,-40.3"/>
</g>
<!-- event -->
<g id="node5" class="node">
<title>event</title>
<ellipse fill="none" stroke="black" cx="253.86" cy="-162" rx="30.88" ry="18"/>
<text text-anchor="middle" x="253.86" y="-156.95" font-family="Times,serif" font-size="14.00">event</text>
</g>
<!-- event&#45;&gt;funcs -->
<g id="edge4" class="edge">
<title>event&#45;&gt;funcs</title>
<path fill="none" stroke="black" d="M249.26,-144.05C247.19,-136.43 244.69,-127.23 242.36,-118.65"/>
<polygon fill="black" stroke="black" points="245.55,-118.01 239.55,-109.28 238.79,-119.84 245.55,-118.01"/>
</g>
<!-- io -->
<g id="node7" class="node">
<title>io</title>
<ellipse fill="none" stroke="black" cx="156.86" cy="-306" rx="27" ry="18"/>
<text text-anchor="middle" x="156.86" y="-300.95" font-family="Times,serif" font-size="14.00">io</text>
</g>
<!-- math -->
<g id="node8" class="node">
<title>math</title>
<ellipse fill="none" stroke="black" cx="156.86" cy="-234" rx="29.86" ry="18"/>
<text text-anchor="middle" x="156.86" y="-228.95" font-family="Times,serif" font-size="14.00">math</text>
</g>
<!-- io&#45;&gt;math -->
<g id="edge7" class="edge">
<title>io&#45;&gt;math</title>
<path fill="none" stroke="black" d="M156.86,-287.7C156.86,-280.24 156.86,-271.32 156.86,-262.97"/>
<polygon fill="black" stroke="black" points="160.36,-263.1 156.86,-253.1 153.36,-263.1 160.36,-263.1"/>
</g>
<!-- math&#45;&gt;conv -->
<g id="edge14" class="edge">
<title>math&#45;&gt;conv</title>
<path fill="none" stroke="black" d="M138.54,-219.5C124.48,-209.14 104.85,-194.67 88.97,-182.97"/>
<polygon fill="black" stroke="black" points="91.25,-179.57 81.12,-176.46 87.09,-185.2 91.25,-179.57"/>
</g>
<!-- math&#45;&gt;constraint -->
<g id="edge13" class="edge">
<title>math&#45;&gt;constraint</title>
<path fill="none" stroke="black" d="M155.34,-215.85C152.06,-178.99 144.33,-91.92 140.34,-46.96"/>
<polygon fill="black" stroke="black" points="143.76,-46.88 139.39,-37.23 136.79,-47.5 143.76,-46.88"/>
</g>
<!-- math&#45;&gt;funcs -->
<g id="edge15" class="edge">
<title>math&#45;&gt;funcs</title>
<path fill="none" stroke="black" d="M165.96,-216.43C179.4,-191.96 204.7,-145.91 220.61,-116.94"/>
<polygon fill="black" stroke="black" points="224.07,-118.91 225.82,-108.46 217.94,-115.54 224.07,-118.91"/>
</g>
<!-- io/writer -->
<g id="node9" class="node">
<title>io/writer</title>
<ellipse fill="none" stroke="black" cx="345.86" cy="-162" rx="42.65" ry="18"/>
<text text-anchor="middle" x="345.86" y="-156.95" font-family="Times,serif" font-size="14.00">io/writer</text>
</g>
<!-- io/writer&#45;&gt;funcs -->
<g id="edge8" class="edge">
<title>io/writer&#45;&gt;funcs</title>
<path fill="none" stroke="black" d="M322.86,-146.5C305.88,-135.79 282.63,-121.13 264.3,-109.57"/>
<polygon fill="black" stroke="black" points="266.54,-106.21 256.22,-103.84 262.81,-112.13 266.54,-106.21"/>
</g>
<!-- io/writer&#45;&gt;tuple -->
<g id="edge9" class="edge">
<title>io/writer&#45;&gt;tuple</title>
<path fill="none" stroke="black" d="M345.25,-143.59C344.4,-119.5 342.86,-75.75 341.85,-47.03"/>
<polygon fill="black" stroke="black" points="345.31,-46.98 341.46,-37.11 338.32,-47.23 345.31,-46.98"/>
</g>
<!-- iter -->
<g id="node10" class="node">
<title>iter</title>
<ellipse fill="none" stroke="black" cx="433.86" cy="-162" rx="27" ry="18"/>
<text text-anchor="middle" x="433.86" y="-156.95" font-family="Times,serif" font-size="14.00">iter</text>
</g>
<!-- iter&#45;&gt;funcs -->
<g id="edge10" class="edge">
<title>iter&#45;&gt;funcs</title>
<path fill="none" stroke="black" d="M412.74,-150.48C407.9,-148.22 402.74,-145.94 397.86,-144 355.68,-127.26 305.91,-111.66 272.57,-101.78"/>
<polygon fill="black" stroke="black" points="273.93,-98.24 263.35,-98.78 271.95,-104.95 273.93,-98.24"/>
</g>
<!-- iter&#45;&gt;tuple -->
<g id="edge11" class="edge">
<title>iter&#45;&gt;tuple</title>
<path fill="none" stroke="black" d="M423.04,-145.31C415.83,-134.8 406.19,-120.63 397.86,-108 383.79,-86.68 368.17,-62.22 356.84,-44.35"/>
<polygon fill="black" stroke="black" points="359.33,-42.74 351.03,-36.16 353.42,-46.48 359.33,-42.74"/>
</g>
<!-- union -->
<g id="node11" class="node">
<title>union</title>
<ellipse fill="none" stroke="black" cx="438.86" cy="-90" rx="31.9" ry="18"/>
<text text-anchor="middle" x="438.86" y="-84.95" font-family="Times,serif" font-size="14.00">union</text>
</g>
<!-- iter&#45;&gt;union -->
<g id="edge12" class="edge">
<title>iter&#45;&gt;union</title>
<path fill="none" stroke="black" d="M435.1,-143.7C435.63,-136.24 436.27,-127.32 436.86,-118.97"/>
<polygon fill="black" stroke="black" points="440.42,-119.33 437.64,-109.1 433.43,-118.83 440.42,-119.33"/>
</g>
<!-- util -->
<g id="node12" class="node">
<title>util</title>
<ellipse fill="none" stroke="black" cx="61.86" cy="-234" rx="27" ry="18"/>
<text text-anchor="middle" x="61.86" y="-228.95" font-family="Times,serif" font-size="14.00">util</text>
</g>
<!-- util&#45;&gt;conv -->
<g id="edge17" class="edge">
<title>util&#45;&gt;conv</title>
<path fill="none" stroke="black" d="M61.86,-215.7C61.86,-208.24 61.86,-199.32 61.86,-190.97"/>
<polygon fill="black" stroke="black" points="65.36,-191.1 61.86,-181.1 58.36,-191.1 65.36,-191.1"/>
</g>
<!-- util&#45;&gt;constraint -->
<g id="edge16" class="edge">
<title>util&#45;&gt;constraint</title>
<path fill="none" stroke="black" d="M48.4,-218.41C39.94,-208.36 29.57,-194.3 23.86,-180 5.98,-135.23 -12.7,-112.23 13.86,-72 29.45,-48.39 57.95,-35.26 83.7,-27.97"/>
<polygon fill="black" stroke="black" points="84.34,-31.17 93.15,-25.29 82.59,-24.39 84.34,-31.17"/>
</g>
<!-- util&#45;&gt;funcs -->
<g id="edge18" class="edge">
<title>util&#45;&gt;funcs</title>
<path fill="none" stroke="black" d="M78.45,-219.38C108.83,-194.45 173.57,-141.31 209.5,-111.82"/>
<polygon fill="black" stroke="black" points="211.05,-114.25 216.55,-105.2 206.6,-108.84 211.05,-114.25"/>
</g>
</g>
</svg>
