<?xml version="1.0" encoding="UTF-8" standalone="no"?>
<!DOCTYPE svg PUBLIC "-//W3C//DTD SVG 1.1//EN"
 "http://www.w3.org/Graphics/SVG/1.1/DTD/svg11.dtd">
<!-- Generated by graphviz version 8.0.1 (20230327.1645)
 -->
<!-- Title: dependencies Pages: 1 -->
<svg width="285pt" height="188pt"
 viewBox="0.00 0.00 284.85 188.00" xmlns="http://www.w3.org/2000/svg" xmlns:xlink="http://www.w3.org/1999/xlink">
<g id="graph0" class="graph" transform="scale(1 1) rotate(0) translate(4 184)">
<title>dependencies</title>
<polygon fill="white" stroke="none" points="-4,4 -4,-184 280.85,-184 280.85,4 -4,4"/>
<!-- json/parse -->
<g id="node1" class="node">
<title>json/parse</title>
<ellipse fill="none" stroke="black" cx="89" cy="-162" rx="46.29" ry="18"/>
<text text-anchor="middle" x="89" y="-158.3" font-family="Times,serif" font-size="14.00">json/parse</text>
</g>
<!-- iter -->
<g id="node2" class="node">
<title>iter</title>
<ellipse fill="none" stroke="black" cx="27" cy="-18" rx="27" ry="18"/>
<text text-anchor="middle" x="27" y="-14.3" font-family="Times,serif" font-size="14.00">iter</text>
</g>
<!-- json/parse&#45;&gt;iter -->
<g id="edge1" class="edge">
<title>json/parse&#45;&gt;iter</title>
<path fill="none" stroke="black" d="M72.41,-144.76C63.29,-134.93 52.54,-121.68 46,-108 36.79,-88.73 32.01,-65 29.55,-46.89"/>
<polygon fill="black" stroke="black" points="32.93,-46.68 28.27,-37.16 25.98,-47.51 32.93,-46.68"/>
</g>
<!-- json -->
<g id="node3" class="node">
<title>json</title>
<ellipse fill="none" stroke="black" cx="168" cy="-90" rx="27" ry="18"/>
<text text-anchor="middle" x="168" y="-86.3" font-family="Times,serif" font-size="14.00">json</text>
</g>
<!-- json/parse&#45;&gt;json -->
<g id="edge2" class="edge">
<title>json/parse&#45;&gt;json</title>
<path fill="none" stroke="black" d="M106.93,-145.12C117.92,-135.38 132.12,-122.79 144.06,-112.21"/>
<polygon fill="black" stroke="black" points="146.12,-115.18 151.28,-105.93 141.48,-109.94 146.12,-115.18"/>
</g>
<!-- stream -->
<g id="node4" class="node">
<title>stream</title>
<ellipse fill="none" stroke="black" cx="89" cy="-90" rx="34.39" ry="18"/>
<text text-anchor="middle" x="89" y="-86.3" font-family="Times,serif" font-size="14.00">stream</text>
</g>
<!-- json/parse&#45;&gt;stream -->
<g id="edge3" class="edge">
<title>json/parse&#45;&gt;stream</title>
<path fill="none" stroke="black" d="M89,-143.7C89,-136.24 89,-127.32 89,-118.97"/>
<polygon fill="black" stroke="black" points="92.5,-119.1 89,-109.1 85.5,-119.1 92.5,-119.1"/>
</g>
<!-- stream&#45;&gt;iter -->
<g id="edge6" class="edge">
<title>stream&#45;&gt;iter</title>
<path fill="none" stroke="black" d="M74.93,-73.12C66.78,-63.91 56.38,-52.17 47.35,-41.97"/>
<polygon fill="black" stroke="black" points="50.42,-40.03 41.17,-34.86 45.18,-44.67 50.42,-40.03"/>
</g>
<!-- math -->
<g id="node7" class="node">
<title>math</title>
<ellipse fill="none" stroke="black" cx="101" cy="-18" rx="28.7" ry="18"/>
<text text-anchor="middle" x="101" y="-14.3" font-family="Times,serif" font-size="14.00">math</text>
</g>
<!-- stream&#45;&gt;math -->
<g id="edge7" class="edge">
<title>stream&#45;&gt;math</title>
<path fill="none" stroke="black" d="M91.97,-71.7C93.26,-64.15 94.81,-55.12 96.25,-46.68"/>
<polygon fill="black" stroke="black" points="99.83,-47.55 98.07,-37.1 92.93,-46.37 99.83,-47.55"/>
</g>
<!-- json/write -->
<g id="node5" class="node">
<title>json/write</title>
<ellipse fill="none" stroke="black" cx="222" cy="-162" rx="46.29" ry="18"/>
<text text-anchor="middle" x="222" y="-158.3" font-family="Times,serif" font-size="14.00">json/write</text>
</g>
<!-- json/write&#45;&gt;json -->
<g id="edge4" class="edge">
<title>json/write&#45;&gt;json</title>
<path fill="none" stroke="black" d="M209.2,-144.41C202.42,-135.62 193.97,-124.66 186.49,-114.96"/>
<polygon fill="black" stroke="black" points="188.84,-113.29 179.97,-107.51 183.3,-117.57 188.84,-113.29"/>
</g>
<!-- writer -->
<g id="node6" class="node">
<title>writer</title>
<ellipse fill="none" stroke="black" cx="245" cy="-90" rx="31.7" ry="18"/>
<text text-anchor="middle" x="245" y="-86.3" font-family="Times,serif" font-size="14.00">writer</text>
</g>
<!-- json/write&#45;&gt;writer -->
<g id="edge5" class="edge">
<title>json/write&#45;&gt;writer</title>
<path fill="none" stroke="black" d="M227.69,-143.7C230.19,-136.07 233.2,-126.92 236,-118.4"/>
<polygon fill="black" stroke="black" points="239.58,-119.7 239.38,-109.1 232.93,-117.51 239.58,-119.7"/>
</g>
</g>
</svg>
