<?xml version="1.0" encoding="UTF-8" standalone="no"?>
<!DOCTYPE svg PUBLIC "-//W3C//DTD SVG 1.1//EN"
 "http://www.w3.org/Graphics/SVG/1.1/DTD/svg11.dtd">
<!-- Generated by graphviz version 8.1.0 (20230707.0739)
 -->
<!-- Title: dependencies Pages: 1 -->
<svg width="768pt" height="404pt"
 viewBox="0.00 0.00 768.41 404.00" xmlns="http://www.w3.org/2000/svg" xmlns:xlink="http://www.w3.org/1999/xlink">
<g id="graph0" class="graph" transform="scale(1 1) rotate(0) translate(4 400)">
<title>dependencies</title>
<polygon fill="white" stroke="none" points="-4,4 -4,-400 764.41,-400 764.41,4 -4,4"/>
<!-- encoding/json -->
<g id="node1" class="node">
<title>encoding/json</title>
<polygon fill="#87cefa" stroke="black" points="469.12,-252 377.38,-252 377.38,-216 469.12,-216 469.12,-252"/>
<text text-anchor="middle" x="423.25" y="-228.95" font-family="Times,serif" font-size="14.00">encoding/json</text>
</g>
<!-- conv -->
<g id="node8" class="node">
<title>conv</title>
<polygon fill="none" stroke="black" points="696.25,-180 642.25,-180 642.25,-144 696.25,-144 696.25,-180"/>
<text text-anchor="middle" x="669.25" y="-156.95" font-family="Times,serif" font-size="14.00">conv</text>
</g>
<!-- encoding/json&#45;&gt;conv -->
<g id="edge5" class="edge">
<title>encoding/json&#45;&gt;conv</title>
<path fill="none" stroke="black" d="M469.52,-219.83C516.35,-206.51 587.89,-186.15 631.44,-173.76"/>
<polygon fill="black" stroke="black" points="632.21,-176.89 640.87,-170.79 630.3,-170.16 632.21,-176.89"/>
</g>
<!-- constraint -->
<g id="node9" class="node">
<title>constraint</title>
<polygon fill="none" stroke="black" points="720.88,-36 651.62,-36 651.62,0 720.88,0 720.88,-36"/>
<text text-anchor="middle" x="686.25" y="-12.95" font-family="Times,serif" font-size="14.00">constraint</text>
</g>
<!-- encoding/json&#45;&gt;constraint -->
<g id="edge4" class="edge">
<title>encoding/json&#45;&gt;constraint</title>
<path fill="none" stroke="black" d="M439.22,-215.67C468.36,-184.61 532.91,-118.4 595.25,-72 610.07,-60.97 627.36,-50.39 642.87,-41.63"/>
<polygon fill="black" stroke="black" points="644.22,-44.33 651.26,-36.41 640.82,-38.21 644.22,-44.33"/>
</g>
<!-- funcs -->
<g id="node10" class="node">
<title>funcs</title>
<polygon fill="none" stroke="black" points="341.25,-108 287.25,-108 287.25,-72 341.25,-72 341.25,-108"/>
<text text-anchor="middle" x="314.25" y="-84.95" font-family="Times,serif" font-size="14.00">funcs</text>
</g>
<!-- encoding/json&#45;&gt;funcs -->
<g id="edge6" class="edge">
<title>encoding/json&#45;&gt;funcs</title>
<path fill="none" stroke="black" d="M423.79,-215.62C423.53,-196.38 420.49,-165.28 405.25,-144 392.14,-125.69 370.57,-112.73 351.73,-104.21"/>
<polygon fill="black" stroke="black" points="353.18,-100.6 342.61,-99.93 350.45,-107.05 353.18,-100.6"/>
</g>
<!-- tuple -->
<g id="node12" class="node">
<title>tuple</title>
<polygon fill="none" stroke="black" points="265.25,-36 211.25,-36 211.25,0 265.25,0 265.25,-36"/>
<text text-anchor="middle" x="238.25" y="-12.95" font-family="Times,serif" font-size="14.00">tuple</text>
</g>
<!-- encoding/json&#45;&gt;tuple -->
<g id="edge7" class="edge">
<title>encoding/json&#45;&gt;tuple</title>
<path fill="none" stroke="black" d="M428.34,-215.79C432.87,-197.25 437.35,-167.27 427.25,-144 400.08,-81.39 322.94,-46.23 276.03,-30.07"/>
<polygon fill="black" stroke="black" points="277.25,-26.46 266.66,-26.64 275.05,-33.11 277.25,-26.46"/>
</g>
<!-- union -->
<g id="node13" class="node">
<title>union</title>
<polygon fill="none" stroke="black" points="396.25,-180 342.25,-180 342.25,-144 396.25,-144 396.25,-180"/>
<text text-anchor="middle" x="369.25" y="-156.95" font-family="Times,serif" font-size="14.00">union</text>
</g>
<!-- encoding/json&#45;&gt;union -->
<g id="edge8" class="edge">
<title>encoding/json&#45;&gt;union</title>
<path fill="none" stroke="black" d="M409.9,-215.7C403.62,-207.56 396.01,-197.69 389.08,-188.7"/>
<polygon fill="black" stroke="black" points="391.32,-186.88 382.44,-181.1 385.78,-191.16 391.32,-186.88"/>
</g>
<!-- encoding/json/parse -->
<g id="node2" class="node">
<title>encoding/json/parse</title>
<polygon fill="#87cefa" stroke="black" points="495.25,-396 371.25,-396 371.25,-360 495.25,-360 495.25,-396"/>
<text text-anchor="middle" x="433.25" y="-372.95" font-family="Times,serif" font-size="14.00">encoding/json/parse</text>
</g>
<!-- encoding/json/parse&#45;&gt;encoding/json -->
<g id="edge9" class="edge">
<title>encoding/json/parse&#45;&gt;encoding/json</title>
<path fill="none" stroke="black" d="M432.47,-359.59C431.61,-341.64 430.12,-312.85 428.25,-288 427.64,-279.86 426.85,-271.02 426.09,-262.94"/>
<polygon fill="black" stroke="black" points="429.49,-262.79 425.04,-253.17 422.52,-263.46 429.49,-262.79"/>
</g>
<!-- stream -->
<g id="node6" class="node">
<title>stream</title>
<polygon fill="#87cefa" stroke="black" points="641.25,-324 587.25,-324 587.25,-288 641.25,-288 641.25,-324"/>
<text text-anchor="middle" x="614.25" y="-300.95" font-family="Times,serif" font-size="14.00">stream</text>
</g>
<!-- encoding/json/parse&#45;&gt;stream -->
<g id="edge12" class="edge">
<title>encoding/json/parse&#45;&gt;stream</title>
<path fill="none" stroke="black" d="M478.46,-359.52C508.77,-347.8 548.21,-332.54 576.76,-321.5"/>
<polygon fill="black" stroke="black" points="577.69,-324.5 585.76,-317.63 575.17,-317.98 577.69,-324.5"/>
</g>
<!-- iter -->
<g id="node7" class="node">
<title>iter</title>
<polygon fill="#e6e6fa" stroke="black" points="359.25,-252 305.25,-252 305.25,-216 359.25,-216 359.25,-252"/>
<text text-anchor="middle" x="332.25" y="-228.95" font-family="Times,serif" font-size="14.00">iter</text>
</g>
<!-- encoding/json/parse&#45;&gt;iter -->
<g id="edge11" class="edge">
<title>encoding/json/parse&#45;&gt;iter</title>
<path fill="none" stroke="black" d="M428.51,-359.7C422.77,-340.81 411.75,-310.28 395.25,-288 387.27,-277.23 376.69,-267.24 366.48,-258.91"/>
<polygon fill="black" stroke="black" points="369.09,-255.72 359.06,-252.31 364.77,-261.23 369.09,-255.72"/>
</g>
<!-- encoding/json/parse&#45;&gt;funcs -->
<g id="edge10" class="edge">
<title>encoding/json/parse&#45;&gt;funcs</title>
<path fill="none" stroke="black" d="M370.98,-372.69C304.25,-366.63 204.7,-352.9 181.25,-324 125.11,-254.83 227.1,-158.95 282.27,-114.89"/>
<polygon fill="black" stroke="black" points="283.99,-117.21 289.69,-108.28 279.67,-111.7 283.99,-117.21"/>
</g>
<!-- encoding/json/write -->
<g id="node3" class="node">
<title>encoding/json/write</title>
<polygon fill="#87cefa" stroke="black" points="313.88,-324 190.62,-324 190.62,-288 313.88,-288 313.88,-324"/>
<text text-anchor="middle" x="252.25" y="-300.95" font-family="Times,serif" font-size="14.00">encoding/json/write</text>
</g>
<!-- encoding/json/write&#45;&gt;encoding/json -->
<g id="edge13" class="edge">
<title>encoding/json/write&#45;&gt;encoding/json</title>
<path fill="none" stroke="black" d="M294.96,-287.52C317.9,-278.13 346.37,-266.47 370.66,-256.53"/>
<polygon fill="black" stroke="black" points="371.86,-259.41 379.79,-252.38 369.21,-252.93 371.86,-259.41"/>
</g>
<!-- encoding/json/write&#45;&gt;funcs -->
<g id="edge14" class="edge">
<title>encoding/json/write&#45;&gt;funcs</title>
<path fill="none" stroke="black" d="M253.88,-287.59C257.08,-257.51 265.6,-194.22 284.25,-144 287.55,-135.12 292.21,-125.97 296.88,-117.82"/>
<polygon fill="black" stroke="black" points="300.35,-119.84 302.49,-109.46 294.34,-116.24 300.35,-119.84"/>
</g>
<!-- io/writer -->
<g id="node14" class="node">
<title>io/writer</title>
<polygon fill="none" stroke="black" points="62.5,-180 0,-180 0,-144 62.5,-144 62.5,-180"/>
<text text-anchor="middle" x="31.25" y="-156.95" font-family="Times,serif" font-size="14.00">io/writer</text>
</g>
<!-- encoding/json/write&#45;&gt;io/writer -->
<g id="edge15" class="edge">
<title>encoding/json/write&#45;&gt;io/writer</title>
<path fill="none" stroke="black" d="M225.15,-287.59C185.53,-262.13 111.7,-214.69 67.46,-186.27"/>
<polygon fill="black" stroke="black" points="69.53,-182.79 59.22,-180.33 65.75,-188.68 69.53,-182.79"/>
</g>
<!-- event -->
<g id="node4" class="node">
<title>event</title>
<polygon fill="#87cefa" stroke="black" points="386.25,-324 332.25,-324 332.25,-288 386.25,-288 386.25,-324"/>
<text text-anchor="middle" x="359.25" y="-300.95" font-family="Times,serif" font-size="14.00">event</text>
</g>
<!-- event&#45;&gt;encoding/json -->
<g id="edge16" class="edge">
<title>event&#45;&gt;encoding/json</title>
<path fill="none" stroke="black" d="M375.07,-287.7C382.67,-279.39 391.91,-269.28 400.26,-260.14"/>
<polygon fill="black" stroke="black" points="402.45,-262.85 406.61,-253.1 397.28,-258.12 402.45,-262.85"/>
</g>
<!-- event&#45;&gt;funcs -->
<g id="edge17" class="edge">
<title>event&#45;&gt;funcs</title>
<path fill="none" stroke="black" d="M331.91,-289.85C318.5,-280.8 303.67,-267.94 296.25,-252 276.01,-208.52 290.72,-151.52 302.8,-118.31"/>
<polygon fill="black" stroke="black" points="306.29,-120 306.59,-109.41 299.75,-117.5 306.29,-120"/>
</g>
<!-- rest -->
<g id="node5" class="node">
<title>rest</title>
<polygon fill="#87cefa" stroke="black" points="134.25,-180 80.25,-180 80.25,-144 134.25,-144 134.25,-180"/>
<text text-anchor="middle" x="107.25" y="-156.95" font-family="Times,serif" font-size="14.00">rest</text>
</g>
<!-- rest&#45;&gt;funcs -->
<g id="edge29" class="edge">
<title>rest&#45;&gt;funcs</title>
<path fill="none" stroke="black" d="M134.74,-151.7C171.18,-139.38 235.65,-117.58 276.6,-103.73"/>
<polygon fill="black" stroke="black" points="277.63,-106.74 285.98,-100.22 275.38,-100.11 277.63,-106.74"/>
</g>
<!-- rest&#45;&gt;tuple -->
<g id="edge30" class="edge">
<title>rest&#45;&gt;tuple</title>
<path fill="none" stroke="black" d="M111.87,-143.5C117.69,-124.15 129.31,-92.95 148.25,-72 162.82,-55.89 183.47,-43.25 201.31,-34.36"/>
<polygon fill="black" stroke="black" points="202.35,-37.26 209.88,-29.81 199.34,-30.94 202.35,-37.26"/>
</g>
<!-- stream&#45;&gt;iter -->
<g id="edge34" class="edge">
<title>stream&#45;&gt;iter</title>
<path fill="none" stroke="black" d="M586.76,-301.18C542.56,-294.6 452.97,-279.43 369.86,-252.14"/>
<polygon fill="black" stroke="black" points="371.09,-248.52 360.5,-248.66 368.87,-255.16 371.09,-248.52"/>
</g>
<!-- stream&#45;&gt;conv -->
<g id="edge32" class="edge">
<title>stream&#45;&gt;conv</title>
<path fill="none" stroke="black" d="M620.99,-287.59C630.41,-263.29 647.57,-218.97 658.69,-190.27"/>
<polygon fill="black" stroke="black" points="662.27,-191.7 662.62,-181.11 655.75,-189.17 662.27,-191.7"/>
</g>
<!-- stream&#45;&gt;constraint -->
<g id="edge31" class="edge">
<title>stream&#45;&gt;constraint</title>
<path fill="none" stroke="black" d="M641.51,-295.62C677.56,-282.95 737.27,-260.92 743.25,-252 786.98,-186.76 735.35,-91.2 705.12,-45.39"/>
<polygon fill="black" stroke="black" points="707.54,-43.72 699.04,-37.4 701.74,-47.64 707.54,-43.72"/>
</g>
<!-- stream&#45;&gt;funcs -->
<g id="edge33" class="edge">
<title>stream&#45;&gt;funcs</title>
<path fill="none" stroke="black" d="M595.28,-287.5C555.25,-250.76 462.85,-167.05 427.25,-144 403.28,-128.47 374.03,-114.89 351.3,-105.36"/>
<polygon fill="black" stroke="black" points="352.94,-101.83 342.36,-101.27 350.28,-108.31 352.94,-101.83"/>
</g>
<!-- stream&#45;&gt;tuple -->
<g id="edge36" class="edge">
<title>stream&#45;&gt;tuple</title>
<path fill="none" stroke="black" d="M603.37,-287.53C575.29,-243.96 495.8,-129.86 399.25,-72 360.42,-48.73 310.11,-34.29 276.15,-26.47"/>
<polygon fill="black" stroke="black" points="277.25,-22.9 266.73,-24.16 275.73,-29.74 277.25,-22.9"/>
</g>
<!-- math -->
<g id="node16" class="node">
<title>math</title>
<polygon fill="none" stroke="black" points="734.25,-252 680.25,-252 680.25,-216 734.25,-216 734.25,-252"/>
<text text-anchor="middle" x="707.25" y="-228.95" font-family="Times,serif" font-size="14.00">math</text>
</g>
<!-- stream&#45;&gt;math -->
<g id="edge35" class="edge">
<title>stream&#45;&gt;math</title>
<path fill="none" stroke="black" d="M637.24,-287.7C648.86,-278.95 663.15,-268.19 675.78,-258.69"/>
<polygon fill="black" stroke="black" points="677.32,-261.16 683.2,-252.35 673.11,-255.56 677.32,-261.16"/>
</g>
<!-- iter&#45;&gt;funcs -->
<g id="edge23" class="edge">
<title>iter&#45;&gt;funcs</title>
<path fill="none" stroke="black" d="M330.04,-215.59C326.98,-191.4 321.39,-147.36 317.76,-118.65"/>
<polygon fill="black" stroke="black" points="321.15,-118.59 316.42,-109.11 314.2,-119.47 321.15,-118.59"/>
</g>
<!-- iter&#45;&gt;tuple -->
<g id="edge24" class="edge">
<title>iter&#45;&gt;tuple</title>
<path fill="none" stroke="black" d="M324.72,-215.85C308.42,-178.75 269.79,-90.81 250.15,-46.1"/>
<polygon fill="black" stroke="black" points="253.05,-44.98 245.82,-37.23 246.64,-47.8 253.05,-44.98"/>
</g>
<!-- iter&#45;&gt;union -->
<g id="edge25" class="edge">
<title>iter&#45;&gt;union</title>
<path fill="none" stroke="black" d="M341.4,-215.7C345.52,-207.9 350.48,-198.51 355.07,-189.83"/>
<polygon fill="black" stroke="black" points="358.63,-191.58 360.21,-181.1 352.44,-188.31 358.63,-191.58"/>
</g>
<!-- conv&#45;&gt;constraint -->
<g id="edge1" class="edge">
<title>conv&#45;&gt;constraint</title>
<path fill="none" stroke="black" d="M671.33,-143.59C674.23,-119.4 679.5,-75.36 682.94,-46.65"/>
<polygon fill="black" stroke="black" points="686.49,-47.46 684.2,-37.11 679.54,-46.62 686.49,-47.46"/>
</g>
<!-- conv&#45;&gt;funcs -->
<g id="edge2" class="edge">
<title>conv&#45;&gt;funcs</title>
<path fill="none" stroke="black" d="M641.86,-154.95C626.67,-151.63 607.43,-147.5 590.25,-144 505.44,-126.73 405.65,-107.95 352.36,-98.04"/>
<polygon fill="black" stroke="black" points="353.18,-94.45 342.71,-96.06 351.9,-101.33 353.18,-94.45"/>
</g>
<!-- reflect -->
<g id="node11" class="node">
<title>reflect</title>
<polygon fill="none" stroke="black" points="658.25,-108 604.25,-108 604.25,-72 658.25,-72 658.25,-108"/>
<text text-anchor="middle" x="631.25" y="-84.95" font-family="Times,serif" font-size="14.00">reflect</text>
</g>
<!-- conv&#45;&gt;reflect -->
<g id="edge3" class="edge">
<title>conv&#45;&gt;reflect</title>
<path fill="none" stroke="black" d="M659.86,-143.7C655.58,-135.81 650.42,-126.3 645.66,-117.55"/>
<polygon fill="black" stroke="black" points="648.38,-116.22 640.54,-109.1 642.23,-119.56 648.38,-116.22"/>
</g>
<!-- funcs&#45;&gt;constraint -->
<g id="edge18" class="edge">
<title>funcs&#45;&gt;constraint</title>
<path fill="none" stroke="black" d="M341.6,-83.85C404.98,-71.93 562.43,-42.3 640.65,-27.58"/>
<polygon fill="black" stroke="black" points="640.97,-30.89 650.15,-25.61 639.67,-24.02 640.97,-30.89"/>
</g>
<!-- funcs&#45;&gt;tuple -->
<g id="edge19" class="edge">
<title>funcs&#45;&gt;tuple</title>
<path fill="none" stroke="black" d="M295.46,-71.7C286.33,-63.28 275.18,-53.02 265.17,-43.79"/>
<polygon fill="black" stroke="black" points="267.81,-41.55 258.08,-37.35 263.07,-46.7 267.81,-41.55"/>
</g>
<!-- union&#45;&gt;funcs -->
<g id="edge37" class="edge">
<title>union&#45;&gt;funcs</title>
<path fill="none" stroke="black" d="M355.65,-143.7C349.26,-135.56 341.51,-125.69 334.44,-116.7"/>
<polygon fill="black" stroke="black" points="336.62,-114.81 327.69,-109.1 331.12,-119.13 336.62,-114.81"/>
</g>
<!-- io/writer&#45;&gt;funcs -->
<g id="edge21" class="edge">
<title>io/writer&#45;&gt;funcs</title>
<path fill="none" stroke="black" d="M62.92,-146.91C65.72,-145.86 68.52,-144.87 71.25,-144 142.25,-121.39 227.94,-105.18 276.26,-97.02"/>
<polygon fill="black" stroke="black" points="276.56,-100.35 285.85,-95.25 275.41,-93.44 276.56,-100.35"/>
</g>
<!-- io/writer&#45;&gt;tuple -->
<g id="edge22" class="edge">
<title>io/writer&#45;&gt;tuple</title>
<path fill="none" stroke="black" d="M45.57,-143.78C62.37,-124.39 91.82,-92.88 122.25,-72 146.74,-55.19 177.42,-41.45 201.07,-32.17"/>
<polygon fill="black" stroke="black" points="201.98,-35.19 210.07,-28.35 199.48,-28.65 201.98,-35.19"/>
</g>
<!-- io -->
<g id="node15" class="node">
<title>io</title>
<polygon fill="none" stroke="black" points="734.25,-324 680.25,-324 680.25,-288 734.25,-288 734.25,-324"/>
<text text-anchor="middle" x="707.25" y="-300.95" font-family="Times,serif" font-size="14.00">io</text>
</g>
<!-- io&#45;&gt;math -->
<g id="edge20" class="edge">
<title>io&#45;&gt;math</title>
<path fill="none" stroke="black" d="M707.25,-287.7C707.25,-280.24 707.25,-271.32 707.25,-262.97"/>
<polygon fill="black" stroke="black" points="710.75,-263.1 707.25,-253.1 703.75,-263.1 710.75,-263.1"/>
</g>
<!-- math&#45;&gt;conv -->
<g id="edge27" class="edge">
<title>math&#45;&gt;conv</title>
<path fill="none" stroke="black" d="M697.86,-215.7C693.58,-207.81 688.42,-198.3 683.66,-189.55"/>
<polygon fill="black" stroke="black" points="686.38,-188.22 678.54,-181.1 680.23,-191.56 686.38,-188.22"/>
</g>
<!-- math&#45;&gt;constraint -->
<g id="edge26" class="edge">
<title>math&#45;&gt;constraint</title>
<path fill="none" stroke="black" d="M707.52,-215.57C707.64,-197.6 707.4,-168.79 705.25,-144 702.33,-110.43 696.08,-72.18 691.55,-46.93"/>
<polygon fill="black" stroke="black" points="694.85,-46.51 689.6,-37.31 687.96,-47.77 694.85,-46.51"/>
</g>
<!-- math&#45;&gt;funcs -->
<g id="edge28" class="edge">
<title>math&#45;&gt;funcs</title>
<path fill="none" stroke="black" d="M680.04,-221.99C637.02,-204.71 550.55,-170.45 476.25,-144 433.86,-128.91 384.68,-113.05 351.73,-102.66"/>
<polygon fill="black" stroke="black" points="353.22,-99.14 342.63,-99.48 351.12,-105.82 353.22,-99.14"/>
</g>
</g>
</svg>
