<?xml version="1.0" encoding="UTF-8" standalone="no"?>
<!DOCTYPE svg PUBLIC "-//W3C//DTD SVG 1.1//EN"
 "http://www.w3.org/Graphics/SVG/1.1/DTD/svg11.dtd">
<!-- Generated by graphviz version 8.1.0 (20230707.0739)
 -->
<!-- Title: dependencies Pages: 1 -->
<svg width="691pt" height="404pt"
 viewBox="0.00 0.00 690.67 404.00" xmlns="http://www.w3.org/2000/svg" xmlns:xlink="http://www.w3.org/1999/xlink">
<g id="graph0" class="graph" transform="scale(1 1) rotate(0) translate(4 400)">
<title>dependencies</title>
<polygon fill="white" stroke="none" points="-4,4 -4,-400 686.67,-400 686.67,4 -4,4"/>
<!-- encoding/json -->
<g id="node1" class="node">
<title>encoding/json</title>
<polygon fill="#87cefa" stroke="black" points="413.62,-252 321.87,-252 321.87,-216 413.62,-216 413.62,-252"/>
<text text-anchor="middle" x="367.74" y="-228.95" font-family="Times,serif" font-size="14.00">encoding/json</text>
</g>
<!-- conv -->
<g id="node8" class="node">
<title>conv</title>
<polygon fill="none" stroke="black" points="599.74,-180 545.74,-180 545.74,-144 599.74,-144 599.74,-180"/>
<text text-anchor="middle" x="572.74" y="-156.95" font-family="Times,serif" font-size="14.00">conv</text>
</g>
<!-- encoding/json&#45;&gt;conv -->
<g id="edge4" class="edge">
<title>encoding/json&#45;&gt;conv</title>
<path fill="none" stroke="black" d="M414,-217.2C450.71,-204.67 501.36,-187.38 535.49,-175.72"/>
<polygon fill="black" stroke="black" points="536.18,-178.84 544.51,-172.3 533.92,-172.22 536.18,-178.84"/>
</g>
<!-- funcs -->
<g id="node10" class="node">
<title>funcs</title>
<polygon fill="none" stroke="black" points="375.74,-108 321.74,-108 321.74,-72 375.74,-72 375.74,-108"/>
<text text-anchor="middle" x="348.74" y="-84.95" font-family="Times,serif" font-size="14.00">funcs</text>
</g>
<!-- encoding/json&#45;&gt;funcs -->
<g id="edge5" class="edge">
<title>encoding/json&#45;&gt;funcs</title>
<path fill="none" stroke="black" d="M365.41,-215.59C362.18,-191.4 356.28,-147.36 352.44,-118.65"/>
<polygon fill="black" stroke="black" points="355.83,-118.56 351.03,-109.11 348.89,-119.49 355.83,-118.56"/>
</g>
<!-- encoding/json/parse -->
<g id="node2" class="node">
<title>encoding/json/parse</title>
<polygon fill="#87cefa" stroke="black" points="388.74,-396 264.74,-396 264.74,-360 388.74,-360 388.74,-396"/>
<text text-anchor="middle" x="326.74" y="-372.95" font-family="Times,serif" font-size="14.00">encoding/json/parse</text>
</g>
<!-- encoding/json/parse&#45;&gt;encoding/json -->
<g id="edge6" class="edge">
<title>encoding/json/parse&#45;&gt;encoding/json</title>
<path fill="none" stroke="black" d="M362.28,-359.71C375.98,-351.04 390.16,-339.13 397.74,-324 407.89,-303.77 398.21,-279.31 387.23,-261.16"/>
<polygon fill="black" stroke="black" points="389.85,-259.77 381.46,-253.3 383.98,-263.59 389.85,-259.77"/>
</g>
<!-- stream -->
<g id="node6" class="node">
<title>stream</title>
<polygon fill="#87cefa" stroke="black" points="570.74,-324 516.74,-324 516.74,-288 570.74,-288 570.74,-324"/>
<text text-anchor="middle" x="543.74" y="-300.95" font-family="Times,serif" font-size="14.00">stream</text>
</g>
<!-- encoding/json/parse&#45;&gt;stream -->
<g id="edge9" class="edge">
<title>encoding/json/parse&#45;&gt;stream</title>
<path fill="none" stroke="black" d="M389.11,-361.33C421.82,-352.51 462.62,-340.58 506.19,-324.32"/>
<polygon fill="black" stroke="black" points="507.31,-327.26 515.42,-320.44 504.82,-320.72 507.31,-327.26"/>
</g>
<!-- iter -->
<g id="node7" class="node">
<title>iter</title>
<polygon fill="#e6e6fa" stroke="black" points="225.74,-252 171.74,-252 171.74,-216 225.74,-216 225.74,-252"/>
<text text-anchor="middle" x="198.74" y="-228.95" font-family="Times,serif" font-size="14.00">iter</text>
</g>
<!-- encoding/json/parse&#45;&gt;iter -->
<g id="edge8" class="edge">
<title>encoding/json/parse&#45;&gt;iter</title>
<path fill="none" stroke="black" d="M272.44,-359.6C254.36,-351.38 235.57,-339.82 222.74,-324 208.74,-306.73 202.86,-281.99 200.42,-262.97"/>
<polygon fill="black" stroke="black" points="203.83,-262.86 199.32,-253.27 196.86,-263.57 203.83,-262.86"/>
</g>
<!-- encoding/json/parse&#45;&gt;funcs -->
<g id="edge7" class="edge">
<title>encoding/json/parse&#45;&gt;funcs</title>
<path fill="none" stroke="black" d="M291.2,-359.71C277.5,-351.04 263.33,-339.13 255.74,-324 248.57,-309.7 252.7,-303.71 255.74,-288 268.87,-220.26 281.68,-205.09 313.74,-144 318.51,-134.92 324.43,-125.44 330.04,-117.05"/>
<polygon fill="black" stroke="black" points="333.39,-119.35 336.16,-109.13 327.62,-115.39 333.39,-119.35"/>
</g>
<!-- encoding/json/write -->
<g id="node3" class="node">
<title>encoding/json/write</title>
<polygon fill="#87cefa" stroke="black" points="388.37,-324 265.12,-324 265.12,-288 388.37,-288 388.37,-324"/>
<text text-anchor="middle" x="326.74" y="-300.95" font-family="Times,serif" font-size="14.00">encoding/json/write</text>
</g>
<!-- encoding/json/write&#45;&gt;encoding/json -->
<g id="edge10" class="edge">
<title>encoding/json/write&#45;&gt;encoding/json</title>
<path fill="none" stroke="black" d="M336.88,-287.7C341.49,-279.81 347.06,-270.3 352.19,-261.55"/>
<polygon fill="black" stroke="black" points="355.69,-263.5 357.72,-253.1 349.65,-259.96 355.69,-263.5"/>
</g>
<!-- encoding/json/write&#45;&gt;funcs -->
<g id="edge11" class="edge">
<title>encoding/json/write&#45;&gt;funcs</title>
<path fill="none" stroke="black" d="M320.92,-287.56C317.81,-277.33 314.31,-264.08 312.74,-252 306.55,-204.28 323.99,-149.85 336.71,-118.07"/>
<polygon fill="black" stroke="black" points="340.2,-119.79 340.8,-109.21 333.74,-117.1 340.2,-119.79"/>
</g>
<!-- io/writer -->
<g id="node12" class="node">
<title>io/writer</title>
<polygon fill="none" stroke="black" points="153.99,-180 91.49,-180 91.49,-144 153.99,-144 153.99,-180"/>
<text text-anchor="middle" x="122.74" y="-156.95" font-family="Times,serif" font-size="14.00">io/writer</text>
</g>
<!-- encoding/json/write&#45;&gt;io/writer -->
<g id="edge12" class="edge">
<title>encoding/json/write&#45;&gt;io/writer</title>
<path fill="none" stroke="black" d="M264.94,-297.42C231.31,-290.49 190.94,-277.26 162.74,-252 144.83,-235.96 134.49,-210.35 128.82,-190.71"/>
<polygon fill="black" stroke="black" points="132,-190.02 126.07,-181.23 125.23,-191.79 132,-190.02"/>
</g>
<!-- event -->
<g id="node4" class="node">
<title>event</title>
<polygon fill="#87cefa" stroke="black" points="498.74,-324 444.74,-324 444.74,-288 498.74,-288 498.74,-324"/>
<text text-anchor="middle" x="471.74" y="-300.95" font-family="Times,serif" font-size="14.00">event</text>
</g>
<!-- event&#45;&gt;encoding/json -->
<g id="edge13" class="edge">
<title>event&#45;&gt;encoding/json</title>
<path fill="none" stroke="black" d="M445.77,-287.52C432.64,-278.68 416.53,-267.84 402.36,-258.3"/>
<polygon fill="black" stroke="black" points="404.64,-254.94 394.39,-252.26 400.73,-260.75 404.64,-254.94"/>
</g>
<!-- event&#45;&gt;funcs -->
<g id="edge14" class="edge">
<title>event&#45;&gt;funcs</title>
<path fill="none" stroke="black" d="M462.33,-287.52C452.58,-269.5 436.83,-240.66 422.74,-216 403.2,-181.78 379.94,-142.76 364.79,-117.56"/>
<polygon fill="black" stroke="black" points="367.37,-116.05 359.21,-109.29 361.37,-119.66 367.37,-116.05"/>
</g>
<!-- rest -->
<g id="node5" class="node">
<title>rest</title>
<polygon fill="#87cefa" stroke="black" points="73.74,-180 19.74,-180 19.74,-144 73.74,-144 73.74,-180"/>
<text text-anchor="middle" x="46.74" y="-156.95" font-family="Times,serif" font-size="14.00">rest</text>
</g>
<!-- rest&#45;&gt;funcs -->
<g id="edge26" class="edge">
<title>rest&#45;&gt;funcs</title>
<path fill="none" stroke="black" d="M73.98,-147.3C76.9,-146.08 79.85,-144.95 82.74,-144 161.68,-117.93 258.25,-102.61 310.59,-95.61"/>
<polygon fill="black" stroke="black" points="310.91,-98.97 320.37,-94.21 310,-92.03 310.91,-98.97"/>
</g>
<!-- tuple -->
<g id="node13" class="node">
<title>tuple</title>
<polygon fill="none" stroke="black" points="149.74,-36 95.74,-36 95.74,0 149.74,0 149.74,-36"/>
<text text-anchor="middle" x="122.74" y="-12.95" font-family="Times,serif" font-size="14.00">tuple</text>
</g>
<!-- rest&#45;&gt;tuple -->
<g id="edge27" class="edge">
<title>rest&#45;&gt;tuple</title>
<path fill="none" stroke="black" d="M56.06,-143.59C69.18,-119.08 93.2,-74.19 108.55,-45.52"/>
<polygon fill="black" stroke="black" points="111.95,-47.58 113.58,-37.11 105.78,-44.28 111.95,-47.58"/>
</g>
<!-- stream&#45;&gt;iter -->
<g id="edge31" class="edge">
<title>stream&#45;&gt;iter</title>
<path fill="none" stroke="black" d="M516.53,-291.22C513.61,-290.02 510.64,-288.91 507.74,-288 482.23,-279.95 313.69,-253.01 236.83,-240.94"/>
<polygon fill="black" stroke="black" points="237.6,-237.36 227.18,-239.27 236.52,-244.28 237.6,-237.36"/>
</g>
<!-- stream&#45;&gt;conv -->
<g id="edge29" class="edge">
<title>stream&#45;&gt;conv</title>
<path fill="none" stroke="black" d="M547.3,-287.59C552.24,-263.4 561.23,-219.36 567.09,-190.65"/>
<polygon fill="black" stroke="black" points="570.68,-191.61 569.25,-181.11 563.82,-190.21 570.68,-191.61"/>
</g>
<!-- constraint -->
<g id="node9" class="node">
<title>constraint</title>
<polygon fill="none" stroke="black" points="681.37,-36 612.12,-36 612.12,0 681.37,0 681.37,-36"/>
<text text-anchor="middle" x="646.74" y="-12.95" font-family="Times,serif" font-size="14.00">constraint</text>
</g>
<!-- stream&#45;&gt;constraint -->
<g id="edge28" class="edge">
<title>stream&#45;&gt;constraint</title>
<path fill="none" stroke="black" d="M571.02,-294.45C603.92,-281.46 655.52,-260.11 660.74,-252 701.91,-188.15 675.28,-92.86 658.07,-46.42"/>
<polygon fill="black" stroke="black" points="661,-45.32 654.15,-37.24 654.47,-47.83 661,-45.32"/>
</g>
<!-- stream&#45;&gt;funcs -->
<g id="edge30" class="edge">
<title>stream&#45;&gt;funcs</title>
<path fill="none" stroke="black" d="M529.85,-287.52C505.63,-257.35 453.68,-193.92 405.74,-144 396.55,-134.43 386.02,-124.4 376.53,-115.67"/>
<polygon fill="black" stroke="black" points="379.27,-113.52 369.52,-109.38 374.56,-118.7 379.27,-113.52"/>
</g>
<!-- stream&#45;&gt;tuple -->
<g id="edge33" class="edge">
<title>stream&#45;&gt;tuple</title>
<path fill="none" stroke="black" d="M537.78,-287.8C521.37,-243.34 470.95,-124.4 384.74,-72 314.03,-29.02 214.71,-20.2 160.94,-18.81"/>
<polygon fill="black" stroke="black" points="161.25,-15.29 151.19,-18.61 161.12,-22.29 161.25,-15.29"/>
</g>
<!-- math -->
<g id="node15" class="node">
<title>math</title>
<polygon fill="none" stroke="black" points="651.74,-252 597.74,-252 597.74,-216 651.74,-216 651.74,-252"/>
<text text-anchor="middle" x="624.74" y="-228.95" font-family="Times,serif" font-size="14.00">math</text>
</g>
<!-- stream&#45;&gt;math -->
<g id="edge32" class="edge">
<title>stream&#45;&gt;math</title>
<path fill="none" stroke="black" d="M563.76,-287.7C573.6,-279.2 585.62,-268.81 596.38,-259.51"/>
<polygon fill="black" stroke="black" points="598.39,-261.53 603.67,-252.35 593.81,-256.24 598.39,-261.53"/>
</g>
<!-- iter&#45;&gt;funcs -->
<g id="edge20" class="edge">
<title>iter&#45;&gt;funcs</title>
<path fill="none" stroke="black" d="M212.35,-215.66C227.39,-197 252.79,-166.92 277.74,-144 288.94,-133.72 302.07,-123.48 313.97,-114.78"/>
<polygon fill="black" stroke="black" points="315.7,-117.12 321.78,-108.45 311.62,-111.44 315.7,-117.12"/>
</g>
<!-- iter&#45;&gt;tuple -->
<g id="edge21" class="edge">
<title>iter&#45;&gt;tuple</title>
<path fill="none" stroke="black" d="M171.58,-229.37C124.33,-222.44 30.19,-205.69 10.74,-180 -25.5,-132.13 41.34,-73.81 86.44,-42.15"/>
<polygon fill="black" stroke="black" points="88.14,-44.55 94.41,-36 84.18,-38.77 88.14,-44.55"/>
</g>
<!-- union -->
<g id="node16" class="node">
<title>union</title>
<polygon fill="none" stroke="black" points="225.74,-180 171.74,-180 171.74,-144 225.74,-144 225.74,-180"/>
<text text-anchor="middle" x="198.74" y="-156.95" font-family="Times,serif" font-size="14.00">union</text>
</g>
<!-- iter&#45;&gt;union -->
<g id="edge22" class="edge">
<title>iter&#45;&gt;union</title>
<path fill="none" stroke="black" d="M198.74,-215.7C198.74,-208.24 198.74,-199.32 198.74,-190.97"/>
<polygon fill="black" stroke="black" points="202.24,-191.1 198.74,-181.1 195.24,-191.1 202.24,-191.1"/>
</g>
<!-- conv&#45;&gt;constraint -->
<g id="edge1" class="edge">
<title>conv&#45;&gt;constraint</title>
<path fill="none" stroke="black" d="M585.62,-143.87C592.92,-133.74 601.92,-120.49 608.74,-108 619.67,-88 629.68,-64.22 636.68,-46.27"/>
<polygon fill="black" stroke="black" points="640.24,-47.78 640.54,-37.19 633.7,-45.28 640.24,-47.78"/>
</g>
<!-- conv&#45;&gt;funcs -->
<g id="edge2" class="edge">
<title>conv&#45;&gt;funcs</title>
<path fill="none" stroke="black" d="M545.28,-152.42C505.45,-139.97 431.53,-116.87 386.58,-102.82"/>
<polygon fill="black" stroke="black" points="387.67,-99.19 377.08,-99.54 385.58,-105.87 387.67,-99.19"/>
</g>
<!-- reflect -->
<g id="node11" class="node">
<title>reflect</title>
<polygon fill="none" stroke="black" points="599.74,-108 545.74,-108 545.74,-72 599.74,-72 599.74,-108"/>
<text text-anchor="middle" x="572.74" y="-84.95" font-family="Times,serif" font-size="14.00">reflect</text>
</g>
<!-- conv&#45;&gt;reflect -->
<g id="edge3" class="edge">
<title>conv&#45;&gt;reflect</title>
<path fill="none" stroke="black" d="M572.74,-143.7C572.74,-136.24 572.74,-127.32 572.74,-118.97"/>
<polygon fill="black" stroke="black" points="576.24,-119.1 572.74,-109.1 569.24,-119.1 576.24,-119.1"/>
</g>
<!-- funcs&#45;&gt;constraint -->
<g id="edge15" class="edge">
<title>funcs&#45;&gt;constraint</title>
<path fill="none" stroke="black" d="M375.98,-82.6C427.32,-70.54 538.88,-44.34 601.6,-29.6"/>
<polygon fill="black" stroke="black" points="602.04,-32.86 610.97,-27.17 600.44,-26.05 602.04,-32.86"/>
</g>
<!-- funcs&#45;&gt;tuple -->
<g id="edge16" class="edge">
<title>funcs&#45;&gt;tuple</title>
<path fill="none" stroke="black" d="M321.48,-80.56C281.27,-68.1 205.91,-44.76 160.43,-30.67"/>
<polygon fill="black" stroke="black" points="161.69,-27.09 151.1,-27.47 159.62,-33.78 161.69,-27.09"/>
</g>
<!-- io/writer&#45;&gt;funcs -->
<g id="edge18" class="edge">
<title>io/writer&#45;&gt;funcs</title>
<path fill="none" stroke="black" d="M154.48,-147.09C157.26,-146 160.04,-144.96 162.74,-144 213.17,-126.18 272.85,-110.02 310.75,-100.35"/>
<polygon fill="black" stroke="black" points="311.46,-103.52 320.3,-97.68 309.75,-96.74 311.46,-103.52"/>
</g>
<!-- io/writer&#45;&gt;tuple -->
<g id="edge19" class="edge">
<title>io/writer&#45;&gt;tuple</title>
<path fill="none" stroke="black" d="M122.74,-143.59C122.74,-119.5 122.74,-75.75 122.74,-47.03"/>
<polygon fill="black" stroke="black" points="126.24,-47.11 122.74,-37.11 119.24,-47.11 126.24,-47.11"/>
</g>
<!-- io -->
<g id="node14" class="node">
<title>io</title>
<polygon fill="none" stroke="black" points="651.74,-324 597.74,-324 597.74,-288 651.74,-288 651.74,-324"/>
<text text-anchor="middle" x="624.74" y="-300.95" font-family="Times,serif" font-size="14.00">io</text>
</g>
<!-- io&#45;&gt;math -->
<g id="edge17" class="edge">
<title>io&#45;&gt;math</title>
<path fill="none" stroke="black" d="M624.74,-287.7C624.74,-280.24 624.74,-271.32 624.74,-262.97"/>
<polygon fill="black" stroke="black" points="628.24,-263.1 624.74,-253.1 621.24,-263.1 628.24,-263.1"/>
</g>
<!-- math&#45;&gt;conv -->
<g id="edge24" class="edge">
<title>math&#45;&gt;conv</title>
<path fill="none" stroke="black" d="M611.89,-215.7C605.84,-207.56 598.51,-197.69 591.83,-188.7"/>
<polygon fill="black" stroke="black" points="594.22,-187.04 585.45,-181.1 588.6,-191.22 594.22,-187.04"/>
</g>
<!-- math&#45;&gt;constraint -->
<g id="edge23" class="edge">
<title>math&#45;&gt;constraint</title>
<path fill="none" stroke="black" d="M626.75,-215.82C627.94,-205.45 629.47,-191.97 630.74,-180 635.69,-133.48 640.97,-79.35 644.06,-47.2"/>
<polygon fill="black" stroke="black" points="647.62,-47.69 645.09,-37.4 640.65,-47.02 647.62,-47.69"/>
</g>
<!-- math&#45;&gt;funcs -->
<g id="edge25" class="edge">
<title>math&#45;&gt;funcs</title>
<path fill="none" stroke="black" d="M626.88,-215.72C628.32,-195.69 627.28,-162.98 608.74,-144 578.37,-112.92 451.54,-98.86 386.93,-93.62"/>
<polygon fill="black" stroke="black" points="387.24,-90.06 377,-92.77 386.7,-97.03 387.24,-90.06"/>
</g>
</g>
</svg>
