<?xml version="1.0" encoding="UTF-8" standalone="no"?>
<!DOCTYPE svg PUBLIC "-//W3C//DTD SVG 1.1//EN"
 "http://www.w3.org/Graphics/SVG/1.1/DTD/svg11.dtd">
<!-- Generated by graphviz version 8.1.0 (20230707.0739)
 -->
<!-- Title: dependencies Pages: 1 -->
<svg width="718pt" height="404pt"
 viewBox="0.00 0.00 718.02 404.00" xmlns="http://www.w3.org/2000/svg" xmlns:xlink="http://www.w3.org/1999/xlink">
<g id="graph0" class="graph" transform="scale(1 1) rotate(0) translate(4 400)">
<title>dependencies</title>
<polygon fill="white" stroke="none" points="-4,4 -4,-400 714.02,-400 714.02,4 -4,4"/>
<!-- encoding/json -->
<g id="node1" class="node">
<title>encoding/json</title>
<polygon fill="#87cefa" stroke="black" points="474.12,-252 382.38,-252 382.38,-216 474.12,-216 474.12,-252"/>
<text text-anchor="middle" x="428.25" y="-228.95" font-family="Times,serif" font-size="14.00">encoding/json</text>
</g>
<!-- conv -->
<g id="node8" class="node">
<title>conv</title>
<polygon fill="none" stroke="black" points="620.25,-180 566.25,-180 566.25,-144 620.25,-144 620.25,-180"/>
<text text-anchor="middle" x="593.25" y="-156.95" font-family="Times,serif" font-size="14.00">conv</text>
</g>
<!-- encoding/json&#45;&gt;conv -->
<g id="edge5" class="edge">
<title>encoding/json&#45;&gt;conv</title>
<path fill="none" stroke="black" d="M469.46,-215.52C495.97,-204.27 530.15,-189.77 555.87,-178.86"/>
<polygon fill="black" stroke="black" points="557.14,-181.7 564.98,-174.57 554.4,-175.25 557.14,-181.7"/>
</g>
<!-- constraint -->
<g id="node9" class="node">
<title>constraint</title>
<polygon fill="none" stroke="black" points="591.88,-36 522.62,-36 522.62,0 591.88,0 591.88,-36"/>
<text text-anchor="middle" x="557.25" y="-12.95" font-family="Times,serif" font-size="14.00">constraint</text>
</g>
<!-- encoding/json&#45;&gt;constraint -->
<g id="edge4" class="edge">
<title>encoding/json&#45;&gt;constraint</title>
<path fill="none" stroke="black" d="M438.59,-215.85C461.04,-178.6 514.41,-90.07 541.25,-45.54"/>
<polygon fill="black" stroke="black" points="544.7,-47.6 546.86,-37.23 538.7,-43.99 544.7,-47.6"/>
</g>
<!-- funcs -->
<g id="node10" class="node">
<title>funcs</title>
<polygon fill="none" stroke="black" points="354.25,-108 300.25,-108 300.25,-72 354.25,-72 354.25,-108"/>
<text text-anchor="middle" x="327.25" y="-84.95" font-family="Times,serif" font-size="14.00">funcs</text>
</g>
<!-- encoding/json&#45;&gt;funcs -->
<g id="edge6" class="edge">
<title>encoding/json&#45;&gt;funcs</title>
<path fill="none" stroke="black" d="M426.13,-215.83C423.07,-196.77 415.96,-165.82 400.25,-144 390.75,-130.8 376.96,-119.6 363.91,-110.93"/>
<polygon fill="black" stroke="black" points="365.94,-107.45 355.61,-105.08 362.21,-113.37 365.94,-107.45"/>
</g>
<!-- union -->
<g id="node12" class="node">
<title>union</title>
<polygon fill="none" stroke="black" points="358.25,-180 304.25,-180 304.25,-144 358.25,-144 358.25,-180"/>
<text text-anchor="middle" x="331.25" y="-156.95" font-family="Times,serif" font-size="14.00">union</text>
</g>
<!-- encoding/json&#45;&gt;union -->
<g id="edge7" class="edge">
<title>encoding/json&#45;&gt;union</title>
<path fill="none" stroke="black" d="M404.27,-215.7C392.15,-206.95 377.25,-196.19 364.08,-186.69"/>
<polygon fill="black" stroke="black" points="366.45,-183.36 356.29,-180.35 362.35,-189.04 366.45,-183.36"/>
</g>
<!-- encoding/json/parse -->
<g id="node2" class="node">
<title>encoding/json/parse</title>
<polygon fill="#87cefa" stroke="black" points="491.25,-396 367.25,-396 367.25,-360 491.25,-360 491.25,-396"/>
<text text-anchor="middle" x="429.25" y="-372.95" font-family="Times,serif" font-size="14.00">encoding/json/parse</text>
</g>
<!-- encoding/json/parse&#45;&gt;encoding/json -->
<g id="edge8" class="edge">
<title>encoding/json/parse&#45;&gt;encoding/json</title>
<path fill="none" stroke="black" d="M444.86,-359.77C452.62,-350.03 461.2,-337.18 465.25,-324 469.95,-308.71 470.05,-303.26 465.25,-288 462.22,-278.36 456.74,-268.94 450.91,-260.78"/>
<polygon fill="black" stroke="black" points="453.15,-258.96 444.29,-253.15 447.6,-263.22 453.15,-258.96"/>
</g>
<!-- stream -->
<g id="node6" class="node">
<title>stream</title>
<polygon fill="#87cefa" stroke="black" points="567.25,-324 513.25,-324 513.25,-288 567.25,-288 567.25,-324"/>
<text text-anchor="middle" x="540.25" y="-300.95" font-family="Times,serif" font-size="14.00">stream</text>
</g>
<!-- encoding/json/parse&#45;&gt;stream -->
<g id="edge11" class="edge">
<title>encoding/json/parse&#45;&gt;stream</title>
<path fill="none" stroke="black" d="M456.97,-359.52C471.12,-350.6 488.51,-339.63 503.73,-330.03"/>
<polygon fill="black" stroke="black" points="505.29,-332.56 511.88,-324.26 501.55,-326.63 505.29,-332.56"/>
</g>
<!-- iter -->
<g id="node7" class="node">
<title>iter</title>
<polygon fill="#e6e6fa" stroke="black" points="326.25,-252 272.25,-252 272.25,-216 326.25,-216 326.25,-252"/>
<text text-anchor="middle" x="299.25" y="-228.95" font-family="Times,serif" font-size="14.00">iter</text>
</g>
<!-- encoding/json/parse&#45;&gt;iter -->
<g id="edge10" class="edge">
<title>encoding/json/parse&#45;&gt;iter</title>
<path fill="none" stroke="black" d="M415.92,-359.76C401.53,-341.44 377.65,-311.89 355.25,-288 346.26,-278.41 335.92,-268.37 326.59,-259.65"/>
<polygon fill="black" stroke="black" points="329.44,-257.59 319.72,-253.36 324.68,-262.72 329.44,-257.59"/>
</g>
<!-- encoding/json/parse&#45;&gt;funcs -->
<g id="edge9" class="edge">
<title>encoding/json/parse&#45;&gt;funcs</title>
<path fill="none" stroke="black" d="M366.8,-370.2C309.94,-362.57 232.07,-348 213.25,-324 178.44,-279.62 198.26,-245.9 268.25,-144 275.49,-133.47 285.23,-123.6 294.71,-115.31"/>
<polygon fill="black" stroke="black" points="296.49,-117.55 301.91,-108.45 291.99,-112.19 296.49,-117.55"/>
</g>
<!-- encoding/json/write -->
<g id="node3" class="node">
<title>encoding/json/write</title>
<polygon fill="#87cefa" stroke="black" points="345.88,-324 222.62,-324 222.62,-288 345.88,-288 345.88,-324"/>
<text text-anchor="middle" x="284.25" y="-300.95" font-family="Times,serif" font-size="14.00">encoding/json/write</text>
</g>
<!-- encoding/json/write&#45;&gt;encoding/json -->
<g id="edge12" class="edge">
<title>encoding/json/write&#45;&gt;encoding/json</title>
<path fill="none" stroke="black" d="M320.22,-287.52C339.26,-278.26 362.83,-266.8 383.1,-256.95"/>
<polygon fill="black" stroke="black" points="384.28,-259.78 391.74,-252.26 381.22,-253.48 384.28,-259.78"/>
</g>
<!-- encoding/json/write&#45;&gt;funcs -->
<g id="edge13" class="edge">
<title>encoding/json/write&#45;&gt;funcs</title>
<path fill="none" stroke="black" d="M275.53,-287.83C270.88,-277.69 265.63,-264.44 263.25,-252 260.25,-236.28 260.59,-231.78 263.25,-216 268.88,-182.6 272.48,-173.98 288.25,-144 293.17,-134.64 299.63,-125.13 305.87,-116.79"/>
<polygon fill="black" stroke="black" points="309.12,-119.31 312.48,-109.27 303.59,-115.03 309.12,-119.31"/>
</g>
<!-- io/writer -->
<g id="node13" class="node">
<title>io/writer</title>
<polygon fill="none" stroke="black" points="62.5,-180 0,-180 0,-144 62.5,-144 62.5,-180"/>
<text text-anchor="middle" x="31.25" y="-156.95" font-family="Times,serif" font-size="14.00">io/writer</text>
</g>
<!-- encoding/json/write&#45;&gt;io/writer -->
<g id="edge14" class="edge">
<title>encoding/json/write&#45;&gt;io/writer</title>
<path fill="none" stroke="black" d="M253.23,-287.59C207.49,-261.91 121.93,-213.89 71.44,-185.55"/>
<polygon fill="black" stroke="black" points="73.56,-182.17 63.13,-180.33 70.14,-188.28 73.56,-182.17"/>
</g>
<!-- event -->
<g id="node4" class="node">
<title>event</title>
<polygon fill="#87cefa" stroke="black" points="456.25,-324 402.25,-324 402.25,-288 456.25,-288 456.25,-324"/>
<text text-anchor="middle" x="429.25" y="-300.95" font-family="Times,serif" font-size="14.00">event</text>
</g>
<!-- event&#45;&gt;encoding/json -->
<g id="edge15" class="edge">
<title>event&#45;&gt;encoding/json</title>
<path fill="none" stroke="black" d="M429,-287.7C428.9,-280.24 428.77,-271.32 428.65,-262.97"/>
<polygon fill="black" stroke="black" points="432.14,-263.05 428.49,-253.1 425.14,-263.15 432.14,-263.05"/>
</g>
<!-- event&#45;&gt;funcs -->
<g id="edge16" class="edge">
<title>event&#45;&gt;funcs</title>
<path fill="none" stroke="black" d="M403.48,-287.66C392.1,-278.5 379.84,-266.21 373.25,-252 353.03,-208.39 383.78,-189.14 367.25,-144 363.64,-134.14 357.54,-124.59 351.17,-116.38"/>
<polygon fill="black" stroke="black" points="353.34,-114.51 344.27,-109.04 347.95,-118.97 353.34,-114.51"/>
</g>
<!-- rest -->
<g id="node5" class="node">
<title>rest</title>
<polygon fill="#87cefa" stroke="black" points="172.25,-180 118.25,-180 118.25,-144 172.25,-144 172.25,-180"/>
<text text-anchor="middle" x="145.25" y="-156.95" font-family="Times,serif" font-size="14.00">rest</text>
</g>
<!-- rest&#45;&gt;funcs -->
<g id="edge28" class="edge">
<title>rest&#45;&gt;funcs</title>
<path fill="none" stroke="black" d="M172.55,-149.53C177.11,-147.66 181.81,-145.76 186.25,-144 221.08,-130.24 261.06,-115.29 289.54,-104.79"/>
<polygon fill="black" stroke="black" points="290.68,-107.73 298.85,-100.99 288.26,-101.16 290.68,-107.73"/>
</g>
<!-- tuple -->
<g id="node14" class="node">
<title>tuple</title>
<polygon fill="none" stroke="black" points="172.25,-36 118.25,-36 118.25,0 172.25,0 172.25,-36"/>
<text text-anchor="middle" x="145.25" y="-12.95" font-family="Times,serif" font-size="14.00">tuple</text>
</g>
<!-- rest&#45;&gt;tuple -->
<g id="edge29" class="edge">
<title>rest&#45;&gt;tuple</title>
<path fill="none" stroke="black" d="M145.25,-143.59C145.25,-119.5 145.25,-75.75 145.25,-47.03"/>
<polygon fill="black" stroke="black" points="148.75,-47.11 145.25,-37.11 141.75,-47.11 148.75,-47.11"/>
</g>
<!-- stream&#45;&gt;iter -->
<g id="edge33" class="edge">
<title>stream&#45;&gt;iter</title>
<path fill="none" stroke="black" d="M513.07,-297.11C470.04,-284.61 386.1,-260.23 337.17,-246.01"/>
<polygon fill="black" stroke="black" points="338.28,-242.4 327.7,-242.97 336.32,-249.12 338.28,-242.4"/>
</g>
<!-- stream&#45;&gt;conv -->
<g id="edge31" class="edge">
<title>stream&#45;&gt;conv</title>
<path fill="none" stroke="black" d="M546.75,-287.59C555.82,-263.29 572.36,-218.97 583.07,-190.27"/>
<polygon fill="black" stroke="black" points="586.65,-191.7 586.86,-181.11 580.09,-189.26 586.65,-191.7"/>
</g>
<!-- stream&#45;&gt;constraint -->
<g id="edge30" class="edge">
<title>stream&#45;&gt;constraint</title>
<path fill="none" stroke="black" d="M567.54,-298.64C604.65,-289.39 667.96,-271.19 681.25,-252 726.91,-186.06 714.27,-137.69 668.25,-72 652.95,-50.16 626.16,-37.02 602.74,-29.28"/>
<polygon fill="black" stroke="black" points="603.85,-25.66 593.27,-26.1 601.82,-32.35 603.85,-25.66"/>
</g>
<!-- stream&#45;&gt;funcs -->
<g id="edge32" class="edge">
<title>stream&#45;&gt;funcs</title>
<path fill="none" stroke="black" d="M531.43,-287.51C514.43,-255.32 474.27,-186.13 423.25,-144 405.46,-129.31 382.99,-116.64 364.27,-107.39"/>
<polygon fill="black" stroke="black" points="366.11,-103.91 355.58,-102.73 363.08,-110.22 366.11,-103.91"/>
</g>
<!-- stream&#45;&gt;tuple -->
<g id="edge35" class="edge">
<title>stream&#45;&gt;tuple</title>
<path fill="none" stroke="black" d="M537.63,-287.8C534.32,-269.27 527.5,-239.29 515.25,-216 471.92,-133.64 446.99,-112.58 363.25,-72 304.12,-43.34 228.25,-29.44 183.38,-23.29"/>
<polygon fill="black" stroke="black" points="184.04,-19.71 173.67,-21.89 183.13,-26.66 184.04,-19.71"/>
</g>
<!-- math -->
<g id="node16" class="node">
<title>math</title>
<polygon fill="none" stroke="black" points="672.25,-252 618.25,-252 618.25,-216 672.25,-216 672.25,-252"/>
<text text-anchor="middle" x="645.25" y="-228.95" font-family="Times,serif" font-size="14.00">math</text>
</g>
<!-- stream&#45;&gt;math -->
<g id="edge34" class="edge">
<title>stream&#45;&gt;math</title>
<path fill="none" stroke="black" d="M566.48,-287.52C579.73,-278.68 595.99,-267.84 610.3,-258.3"/>
<polygon fill="black" stroke="black" points="611.98,-260.72 618.36,-252.26 608.1,-254.9 611.98,-260.72"/>
</g>
<!-- iter&#45;&gt;funcs -->
<g id="edge22" class="edge">
<title>iter&#45;&gt;funcs</title>
<path fill="none" stroke="black" d="M295.31,-215.58C291.92,-197.37 288.53,-168.14 295.25,-144 297.86,-134.62 302.63,-125.25 307.7,-117.05"/>
<polygon fill="black" stroke="black" points="311.07,-119.3 313.69,-109.03 305.24,-115.43 311.07,-119.3"/>
</g>
<!-- iter&#45;&gt;union -->
<g id="edge24" class="edge">
<title>iter&#45;&gt;union</title>
<path fill="none" stroke="black" d="M307.16,-215.7C310.73,-207.9 315.02,-198.51 318.99,-189.83"/>
<polygon fill="black" stroke="black" points="322.46,-191.65 323.43,-181.1 316.09,-188.74 322.46,-191.65"/>
</g>
<!-- iter&#45;&gt;tuple -->
<g id="edge23" class="edge">
<title>iter&#45;&gt;tuple</title>
<path fill="none" stroke="black" d="M271.8,-229.41C224.05,-222.56 128.92,-205.91 109.25,-180 79.01,-140.17 106.76,-79.79 127.47,-45.41"/>
<polygon fill="black" stroke="black" points="130.74,-47.78 133.07,-37.44 124.8,-44.07 130.74,-47.78"/>
</g>
<!-- conv&#45;&gt;constraint -->
<g id="edge1" class="edge">
<title>conv&#45;&gt;constraint</title>
<path fill="none" stroke="black" d="M587.3,-143.94C583.82,-133.62 579.48,-120.14 576.25,-108 570.85,-87.71 565.93,-64.5 562.46,-46.88"/>
<polygon fill="black" stroke="black" points="565.72,-46.34 560.39,-37.18 558.85,-47.67 565.72,-46.34"/>
</g>
<!-- conv&#45;&gt;funcs -->
<g id="edge2" class="edge">
<title>conv&#45;&gt;funcs</title>
<path fill="none" stroke="black" d="M565.79,-153.77C517.97,-141.19 419.38,-115.25 365.12,-100.97"/>
<polygon fill="black" stroke="black" points="366.13,-97.35 355.57,-98.19 364.35,-104.12 366.13,-97.35"/>
</g>
<!-- reflect -->
<g id="node11" class="node">
<title>reflect</title>
<polygon fill="none" stroke="black" points="639.25,-108 585.25,-108 585.25,-72 639.25,-72 639.25,-108"/>
<text text-anchor="middle" x="612.25" y="-84.95" font-family="Times,serif" font-size="14.00">reflect</text>
</g>
<!-- conv&#45;&gt;reflect -->
<g id="edge3" class="edge">
<title>conv&#45;&gt;reflect</title>
<path fill="none" stroke="black" d="M597.95,-143.7C599.99,-136.15 602.45,-127.12 604.74,-118.68"/>
<polygon fill="black" stroke="black" points="608.37,-119.67 607.61,-109.1 601.61,-117.84 608.37,-119.67"/>
</g>
<!-- funcs&#45;&gt;constraint -->
<g id="edge17" class="edge">
<title>funcs&#45;&gt;constraint</title>
<path fill="none" stroke="black" d="M354.54,-80.7C393.4,-68.87 465.15,-47.03 512.03,-32.76"/>
<polygon fill="black" stroke="black" points="512.96,-35.83 521.51,-29.57 510.92,-29.14 512.96,-35.83"/>
</g>
<!-- funcs&#45;&gt;tuple -->
<g id="edge18" class="edge">
<title>funcs&#45;&gt;tuple</title>
<path fill="none" stroke="black" d="M300,-78.52C268.77,-66.51 217.42,-46.76 182.51,-33.33"/>
<polygon fill="black" stroke="black" points="184.27,-29.87 173.68,-29.55 181.76,-36.41 184.27,-29.87"/>
</g>
<!-- io/writer&#45;&gt;funcs -->
<g id="edge20" class="edge">
<title>io/writer&#45;&gt;funcs</title>
<path fill="none" stroke="black" d="M62.93,-153.51C117.85,-140.52 230.51,-113.88 289.44,-99.94"/>
<polygon fill="black" stroke="black" points="290.21,-103.12 299.13,-97.41 288.59,-96.31 290.21,-103.12"/>
</g>
<!-- io/writer&#45;&gt;tuple -->
<g id="edge21" class="edge">
<title>io/writer&#45;&gt;tuple</title>
<path fill="none" stroke="black" d="M37.36,-143.6C44.6,-124.61 58.02,-94 76.25,-72 85.62,-60.69 97.82,-50.33 109.36,-41.83"/>
<polygon fill="black" stroke="black" points="110.86,-44.34 116.99,-35.7 106.81,-38.63 110.86,-44.34"/>
</g>
<!-- io -->
<g id="node15" class="node">
<title>io</title>
<polygon fill="none" stroke="black" points="672.25,-324 618.25,-324 618.25,-288 672.25,-288 672.25,-324"/>
<text text-anchor="middle" x="645.25" y="-300.95" font-family="Times,serif" font-size="14.00">io</text>
</g>
<!-- io&#45;&gt;math -->
<g id="edge19" class="edge">
<title>io&#45;&gt;math</title>
<path fill="none" stroke="black" d="M645.25,-287.7C645.25,-280.24 645.25,-271.32 645.25,-262.97"/>
<polygon fill="black" stroke="black" points="648.75,-263.1 645.25,-253.1 641.75,-263.1 648.75,-263.1"/>
</g>
<!-- math&#45;&gt;conv -->
<g id="edge26" class="edge">
<title>math&#45;&gt;conv</title>
<path fill="none" stroke="black" d="M632.4,-215.7C626.35,-207.56 619.02,-197.69 612.34,-188.7"/>
<polygon fill="black" stroke="black" points="614.73,-187.04 605.96,-181.1 609.11,-191.22 614.73,-187.04"/>
</g>
<!-- math&#45;&gt;constraint -->
<g id="edge25" class="edge">
<title>math&#45;&gt;constraint</title>
<path fill="none" stroke="black" d="M651.06,-215.98C660.58,-184.84 675.82,-117.73 648.25,-72 637.82,-54.69 619.43,-42.45 601.9,-34.13"/>
<polygon fill="black" stroke="black" points="603.87,-30.73 593.31,-29.9 601.04,-37.13 603.87,-30.73"/>
</g>
<!-- math&#45;&gt;funcs -->
<g id="edge27" class="edge">
<title>math&#45;&gt;funcs</title>
<path fill="none" stroke="black" d="M647.48,-215.64C649,-195.51 648.05,-162.72 629.25,-144 592.64,-107.54 437.91,-95.9 365.24,-92.4"/>
<polygon fill="black" stroke="black" points="365.46,-88.86 355.32,-91.91 365.15,-95.86 365.46,-88.86"/>
</g>
</g>
</svg>
