<?xml version="1.0" encoding="UTF-8" standalone="no"?>
<!DOCTYPE svg PUBLIC "-//W3C//DTD SVG 1.1//EN"
 "http://www.w3.org/Graphics/SVG/1.1/DTD/svg11.dtd">
<!-- Generated by graphviz version 8.1.0 (20230707.0739)
 -->
<!-- Title: dependencies Pages: 1 -->
<svg width="364pt" height="188pt"
 viewBox="0.00 0.00 363.73 188.00" xmlns="http://www.w3.org/2000/svg" xmlns:xlink="http://www.w3.org/1999/xlink">
<g id="graph0" class="graph" transform="scale(1 1) rotate(0) translate(4 184)">
<title>dependencies</title>
<polygon fill="white" stroke="none" points="-4,4 -4,-184 359.73,-184 359.73,4 -4,4"/>
<!-- encoding/json/parse -->
<g id="node1" class="node">
<title>encoding/json/parse</title>
<ellipse fill="none" stroke="black" cx="271.11" cy="-162" rx="84.62" ry="18"/>
<text text-anchor="middle" x="271.11" y="-156.95" font-family="Times,serif" font-size="14.00">encoding/json/parse</text>
</g>
<!-- encoding/json -->
<g id="node2" class="node">
<title>encoding/json</title>
<ellipse fill="none" stroke="black" cx="132.11" cy="-90" rx="62.61" ry="18"/>
<text text-anchor="middle" x="132.11" y="-84.95" font-family="Times,serif" font-size="14.00">encoding/json</text>
</g>
<!-- encoding/json/parse&#45;&gt;encoding/json -->
<g id="edge1" class="edge">
<title>encoding/json/parse&#45;&gt;encoding/json</title>
<path fill="none" stroke="black" d="M239.22,-144.94C219.15,-134.84 193.1,-121.72 171.71,-110.95"/>
<polygon fill="black" stroke="black" points="173.45,-107.4 162.95,-106.03 170.3,-113.65 173.45,-107.4"/>
</g>
<!-- iter -->
<g id="node3" class="node">
<title>iter</title>
<ellipse fill="none" stroke="black" cx="271.11" cy="-18" rx="27" ry="18"/>
<text text-anchor="middle" x="271.11" y="-12.95" font-family="Times,serif" font-size="14.00">iter</text>
</g>
<!-- encoding/json/parse&#45;&gt;iter -->
<g id="edge2" class="edge">
<title>encoding/json/parse&#45;&gt;iter</title>
<path fill="none" stroke="black" d="M265.83,-144.01C262.91,-133.7 259.58,-120.23 258.11,-108 256.19,-92.12 256.19,-87.88 258.11,-72 259.12,-63.59 261.01,-54.6 263.05,-46.45"/>
<polygon fill="black" stroke="black" points="266.64,-47.56 265.83,-36.99 259.87,-45.75 266.64,-47.56"/>
</g>
<!-- stream -->
<g id="node4" class="node">
<title>stream</title>
<ellipse fill="none" stroke="black" cx="303.11" cy="-90" rx="36" ry="18"/>
<text text-anchor="middle" x="303.11" y="-84.95" font-family="Times,serif" font-size="14.00">stream</text>
</g>
<!-- encoding/json/parse&#45;&gt;stream -->
<g id="edge3" class="edge">
<title>encoding/json/parse&#45;&gt;stream</title>
<path fill="none" stroke="black" d="M279.02,-143.7C282.64,-135.78 287,-126.23 291.02,-117.44"/>
<polygon fill="black" stroke="black" points="294.53,-119.17 295.51,-108.62 288.17,-116.26 294.53,-119.17"/>
</g>
<!-- stream&#45;&gt;iter -->
<g id="edge5" class="edge">
<title>stream&#45;&gt;iter</title>
<path fill="none" stroke="black" d="M295.36,-72.05C291.69,-64.03 287.22,-54.26 283.13,-45.3"/>
<polygon fill="black" stroke="black" points="285.9,-43.95 278.56,-36.31 279.54,-46.86 285.9,-43.95"/>
</g>
<!-- encoding/json/write -->
<g id="node5" class="node">
<title>encoding/json/write</title>
<ellipse fill="none" stroke="black" cx="84.11" cy="-162" rx="84.11" ry="18"/>
<text text-anchor="middle" x="84.11" y="-156.95" font-family="Times,serif" font-size="14.00">encoding/json/write</text>
</g>
<!-- encoding/json/write&#45;&gt;encoding/json -->
<g id="edge4" class="edge">
<title>encoding/json/write&#45;&gt;encoding/json</title>
<path fill="none" stroke="black" d="M95.97,-143.7C101.49,-135.64 108.18,-125.89 114.29,-116.98"/>
<polygon fill="black" stroke="black" points="117.61,-119.33 120.38,-109.1 111.84,-115.37 117.61,-119.33"/>
</g>
</g>
</svg>
