<?xml version="1.0" encoding="UTF-8" standalone="no"?>
<!DOCTYPE svg PUBLIC "-//W3C//DTD SVG 1.1//EN"
 "http://www.w3.org/Graphics/SVG/1.1/DTD/svg11.dtd">
<!-- Generated by graphviz version 8.1.0 (20230707.0739)
 -->
<!-- Title: dependencies Pages: 1 -->
<svg width="719pt" height="404pt"
 viewBox="0.00 0.00 718.59 404.00" xmlns="http://www.w3.org/2000/svg" xmlns:xlink="http://www.w3.org/1999/xlink">
<g id="graph0" class="graph" transform="scale(1 1) rotate(0) translate(4 400)">
<title>dependencies</title>
<polygon fill="white" stroke="none" points="-4,4 -4,-400 714.59,-400 714.59,4 -4,4"/>
<!-- encoding/json -->
<g id="node1" class="node">
<title>encoding/json</title>
<polygon fill="#87cefa" stroke="black" points="481.12,-252 389.38,-252 389.38,-216 481.12,-216 481.12,-252"/>
<text text-anchor="middle" x="435.25" y="-228.95" font-family="Times,serif" font-size="14.00">encoding/json</text>
</g>
<!-- conv -->
<g id="node8" class="node">
<title>conv</title>
<polygon fill="none" stroke="black" points="620.25,-180 566.25,-180 566.25,-144 620.25,-144 620.25,-180"/>
<text text-anchor="middle" x="593.25" y="-156.95" font-family="Times,serif" font-size="14.00">conv</text>
</g>
<!-- encoding/json&#45;&gt;conv -->
<g id="edge5" class="edge">
<title>encoding/json&#45;&gt;conv</title>
<path fill="none" stroke="black" d="M474.71,-215.52C499.67,-204.46 531.71,-190.26 556.19,-179.42"/>
<polygon fill="black" stroke="black" points="557.45,-182.25 565.17,-175 554.61,-175.85 557.45,-182.25"/>
</g>
<!-- constraint -->
<g id="node9" class="node">
<title>constraint</title>
<polygon fill="none" stroke="black" points="591.88,-36 522.62,-36 522.62,0 591.88,0 591.88,-36"/>
<text text-anchor="middle" x="557.25" y="-12.95" font-family="Times,serif" font-size="14.00">constraint</text>
</g>
<!-- encoding/json&#45;&gt;constraint -->
<g id="edge4" class="edge">
<title>encoding/json&#45;&gt;constraint</title>
<path fill="none" stroke="black" d="M445.03,-215.85C466.26,-178.6 516.74,-90.07 542.12,-45.54"/>
<polygon fill="black" stroke="black" points="545.51,-47.65 547.43,-37.23 539.43,-44.19 545.51,-47.65"/>
</g>
<!-- funcs -->
<g id="node10" class="node">
<title>funcs</title>
<polygon fill="none" stroke="black" points="390.25,-108 336.25,-108 336.25,-72 390.25,-72 390.25,-108"/>
<text text-anchor="middle" x="363.25" y="-84.95" font-family="Times,serif" font-size="14.00">funcs</text>
</g>
<!-- encoding/json&#45;&gt;funcs -->
<g id="edge6" class="edge">
<title>encoding/json&#45;&gt;funcs</title>
<path fill="none" stroke="black" d="M429.81,-215.74C423.73,-197.41 413.04,-167.85 400.25,-144 395.4,-134.95 389.28,-125.59 383.43,-117.3"/>
<polygon fill="black" stroke="black" points="385.73,-115.51 377.02,-109.48 380.06,-119.63 385.73,-115.51"/>
</g>
<!-- encoding/json/parse -->
<g id="node2" class="node">
<title>encoding/json/parse</title>
<polygon fill="#87cefa" stroke="black" points="497.25,-396 373.25,-396 373.25,-360 497.25,-360 497.25,-396"/>
<text text-anchor="middle" x="435.25" y="-372.95" font-family="Times,serif" font-size="14.00">encoding/json/parse</text>
</g>
<!-- encoding/json/parse&#45;&gt;encoding/json -->
<g id="edge7" class="edge">
<title>encoding/json/parse&#45;&gt;encoding/json</title>
<path fill="none" stroke="black" d="M450.86,-359.77C458.62,-350.03 467.2,-337.18 471.25,-324 475.95,-308.71 475.95,-303.29 471.25,-288 468.3,-278.42 462.97,-269.02 457.3,-260.86"/>
<polygon fill="black" stroke="black" points="459.65,-259.15 450.86,-253.23 454.04,-263.33 459.65,-259.15"/>
</g>
<!-- stream -->
<g id="node6" class="node">
<title>stream</title>
<polygon fill="#87cefa" stroke="black" points="574.25,-324 520.25,-324 520.25,-288 574.25,-288 574.25,-324"/>
<text text-anchor="middle" x="547.25" y="-300.95" font-family="Times,serif" font-size="14.00">stream</text>
</g>
<!-- encoding/json/parse&#45;&gt;stream -->
<g id="edge10" class="edge">
<title>encoding/json/parse&#45;&gt;stream</title>
<path fill="none" stroke="black" d="M463.22,-359.52C477.6,-350.53 495.3,-339.47 510.75,-329.81"/>
<polygon fill="black" stroke="black" points="512.39,-332.29 519.02,-324.02 508.68,-326.35 512.39,-332.29"/>
</g>
<!-- iter -->
<g id="node7" class="node">
<title>iter</title>
<polygon fill="#e6e6fa" stroke="black" points="333.25,-252 279.25,-252 279.25,-216 333.25,-216 333.25,-252"/>
<text text-anchor="middle" x="306.25" y="-228.95" font-family="Times,serif" font-size="14.00">iter</text>
</g>
<!-- encoding/json/parse&#45;&gt;iter -->
<g id="edge9" class="edge">
<title>encoding/json/parse&#45;&gt;iter</title>
<path fill="none" stroke="black" d="M421.88,-359.8C407.45,-341.51 383.55,-311.99 361.25,-288 352.38,-278.46 342.22,-268.44 333.07,-259.71"/>
<polygon fill="black" stroke="black" points="336.01,-257.73 326.34,-253.41 331.21,-262.82 336.01,-257.73"/>
</g>
<!-- encoding/json/parse&#45;&gt;funcs -->
<g id="edge8" class="edge">
<title>encoding/json/parse&#45;&gt;funcs</title>
<path fill="none" stroke="black" d="M372.8,-370.2C315.94,-362.57 238.07,-348 219.25,-324 190.91,-287.87 162.96,-247.45 243.25,-144 263.19,-118.3 298.23,-104.78 325.32,-97.85"/>
<polygon fill="black" stroke="black" points="326.06,-101.04 335,-95.35 324.47,-94.22 326.06,-101.04"/>
</g>
<!-- encoding/json/write -->
<g id="node3" class="node">
<title>encoding/json/write</title>
<polygon fill="#87cefa" stroke="black" points="351.88,-324 228.62,-324 228.62,-288 351.88,-288 351.88,-324"/>
<text text-anchor="middle" x="290.25" y="-300.95" font-family="Times,serif" font-size="14.00">encoding/json/write</text>
</g>
<!-- encoding/json/write&#45;&gt;encoding/json -->
<g id="edge11" class="edge">
<title>encoding/json/write&#45;&gt;encoding/json</title>
<path fill="none" stroke="black" d="M326.47,-287.52C345.57,-278.29 369.2,-266.89 389.55,-257.06"/>
<polygon fill="black" stroke="black" points="390.76,-259.88 398.25,-252.38 387.72,-253.58 390.76,-259.88"/>
</g>
<!-- encoding/json/write&#45;&gt;funcs -->
<g id="edge12" class="edge">
<title>encoding/json/write&#45;&gt;funcs</title>
<path fill="none" stroke="black" d="M279.12,-287.61C260.73,-256.46 228.75,-190.12 257.25,-144 272.14,-119.91 301.66,-106.4 325.77,-99.06"/>
<polygon fill="black" stroke="black" points="326.36,-102.25 335.06,-96.2 324.48,-95.51 326.36,-102.25"/>
</g>
<!-- io/writer -->
<g id="node12" class="node">
<title>io/writer</title>
<polygon fill="none" stroke="black" points="62.5,-180 0,-180 0,-144 62.5,-144 62.5,-180"/>
<text text-anchor="middle" x="31.25" y="-156.95" font-family="Times,serif" font-size="14.00">io/writer</text>
</g>
<!-- encoding/json/write&#45;&gt;io/writer -->
<g id="edge13" class="edge">
<title>encoding/json/write&#45;&gt;io/writer</title>
<path fill="none" stroke="black" d="M258.49,-287.59C211.67,-261.91 124.08,-213.89 72.39,-185.55"/>
<polygon fill="black" stroke="black" points="74.31,-182.07 63.86,-180.33 70.95,-188.21 74.31,-182.07"/>
</g>
<!-- event -->
<g id="node4" class="node">
<title>event</title>
<polygon fill="#87cefa" stroke="black" points="462.25,-324 408.25,-324 408.25,-288 462.25,-288 462.25,-324"/>
<text text-anchor="middle" x="435.25" y="-300.95" font-family="Times,serif" font-size="14.00">event</text>
</g>
<!-- event&#45;&gt;encoding/json -->
<g id="edge14" class="edge">
<title>event&#45;&gt;encoding/json</title>
<path fill="none" stroke="black" d="M435.25,-287.7C435.25,-280.24 435.25,-271.32 435.25,-262.97"/>
<polygon fill="black" stroke="black" points="438.75,-263.1 435.25,-253.1 431.75,-263.1 438.75,-263.1"/>
</g>
<!-- event&#45;&gt;funcs -->
<g id="edge15" class="edge">
<title>event&#45;&gt;funcs</title>
<path fill="none" stroke="black" d="M410.52,-287.66C399.34,-278.42 387.12,-266.06 380.25,-252 359.28,-209.08 358.66,-152.19 360.61,-118.79"/>
<polygon fill="black" stroke="black" points="364.16,-119.24 361.38,-109.02 357.18,-118.74 364.16,-119.24"/>
</g>
<!-- rest -->
<g id="node5" class="node">
<title>rest</title>
<polygon fill="#87cefa" stroke="black" points="172.25,-180 118.25,-180 118.25,-144 172.25,-144 172.25,-180"/>
<text text-anchor="middle" x="145.25" y="-156.95" font-family="Times,serif" font-size="14.00">rest</text>
</g>
<!-- rest&#45;&gt;funcs -->
<g id="edge27" class="edge">
<title>rest&#45;&gt;funcs</title>
<path fill="none" stroke="black" d="M172.45,-149.27C177.02,-147.43 181.75,-145.6 186.25,-144 233.63,-127.13 289.36,-111.05 325.45,-101.11"/>
<polygon fill="black" stroke="black" points="326.26,-104.24 334.98,-98.23 324.41,-97.49 326.26,-104.24"/>
</g>
<!-- tuple -->
<g id="node13" class="node">
<title>tuple</title>
<polygon fill="none" stroke="black" points="172.25,-36 118.25,-36 118.25,0 172.25,0 172.25,-36"/>
<text text-anchor="middle" x="145.25" y="-12.95" font-family="Times,serif" font-size="14.00">tuple</text>
</g>
<!-- rest&#45;&gt;tuple -->
<g id="edge28" class="edge">
<title>rest&#45;&gt;tuple</title>
<path fill="none" stroke="black" d="M145.25,-143.59C145.25,-119.5 145.25,-75.75 145.25,-47.03"/>
<polygon fill="black" stroke="black" points="148.75,-47.11 145.25,-37.11 141.75,-47.11 148.75,-47.11"/>
</g>
<!-- stream&#45;&gt;iter -->
<g id="edge32" class="edge">
<title>stream&#45;&gt;iter</title>
<path fill="none" stroke="black" d="M520.07,-297.11C477.04,-284.61 393.1,-260.23 344.17,-246.01"/>
<polygon fill="black" stroke="black" points="345.28,-242.4 334.7,-242.97 343.32,-249.12 345.28,-242.4"/>
</g>
<!-- stream&#45;&gt;conv -->
<g id="edge30" class="edge">
<title>stream&#45;&gt;conv</title>
<path fill="none" stroke="black" d="M552.89,-287.59C560.76,-263.29 575.12,-218.97 584.42,-190.27"/>
<polygon fill="black" stroke="black" points="587.95,-191.7 587.71,-181.11 581.3,-189.55 587.95,-191.7"/>
</g>
<!-- stream&#45;&gt;constraint -->
<g id="edge29" class="edge">
<title>stream&#45;&gt;constraint</title>
<path fill="none" stroke="black" d="M574.6,-298.15C610.3,-288.6 669.73,-270.36 682.25,-252 727.45,-185.7 714.74,-137.4 668.25,-72 652.8,-50.27 626.01,-37.12 602.62,-29.36"/>
<polygon fill="black" stroke="black" points="603.75,-25.74 593.17,-26.17 601.71,-32.44 603.75,-25.74"/>
</g>
<!-- stream&#45;&gt;funcs -->
<g id="edge31" class="edge">
<title>stream&#45;&gt;funcs</title>
<path fill="none" stroke="black" d="M537.4,-287.65C526.67,-269.25 508.58,-239.64 490.25,-216 463.47,-181.46 454.56,-174.51 423.25,-144 413.37,-134.38 402.14,-124.25 392.08,-115.46"/>
<polygon fill="black" stroke="black" points="394.82,-112.33 384.97,-108.43 390.24,-117.62 394.82,-112.33"/>
</g>
<!-- stream&#45;&gt;tuple -->
<g id="edge34" class="edge">
<title>stream&#45;&gt;tuple</title>
<path fill="none" stroke="black" d="M543.35,-287.5C538.77,-268.97 530.13,-239.25 517.25,-216 477.16,-143.62 470.01,-114.9 399.25,-72 331.06,-30.66 235.73,-21.15 183.4,-19.22"/>
<polygon fill="black" stroke="black" points="183.7,-15.7 173.6,-18.9 183.49,-22.69 183.7,-15.7"/>
</g>
<!-- math -->
<g id="node15" class="node">
<title>math</title>
<polygon fill="none" stroke="black" points="673.25,-252 619.25,-252 619.25,-216 673.25,-216 673.25,-252"/>
<text text-anchor="middle" x="646.25" y="-228.95" font-family="Times,serif" font-size="14.00">math</text>
</g>
<!-- stream&#45;&gt;math -->
<g id="edge33" class="edge">
<title>stream&#45;&gt;math</title>
<path fill="none" stroke="black" d="M571.98,-287.52C584.35,-278.76 599.52,-268.04 612.91,-258.58"/>
<polygon fill="black" stroke="black" points="614.69,-260.89 620.84,-252.26 610.65,-255.18 614.69,-260.89"/>
</g>
<!-- iter&#45;&gt;funcs -->
<g id="edge21" class="edge">
<title>iter&#45;&gt;funcs</title>
<path fill="none" stroke="black" d="M313.9,-215.9C318.47,-205.55 324.33,-192.07 329.25,-180 337.58,-159.58 346.45,-136.29 353.05,-118.66"/>
<polygon fill="black" stroke="black" points="356.62,-120.08 356.83,-109.48 350.06,-117.64 356.62,-120.08"/>
</g>
<!-- iter&#45;&gt;tuple -->
<g id="edge22" class="edge">
<title>iter&#45;&gt;tuple</title>
<path fill="none" stroke="black" d="M278.96,-229.73C229.88,-223.22 129.88,-206.91 109.25,-180 78.83,-140.31 106.64,-79.88 127.41,-45.45"/>
<polygon fill="black" stroke="black" points="130.69,-47.8 133.03,-37.47 124.76,-44.09 130.69,-47.8"/>
</g>
<!-- union -->
<g id="node16" class="node">
<title>union</title>
<polygon fill="none" stroke="black" points="320.25,-180 266.25,-180 266.25,-144 320.25,-144 320.25,-180"/>
<text text-anchor="middle" x="293.25" y="-156.95" font-family="Times,serif" font-size="14.00">union</text>
</g>
<!-- iter&#45;&gt;union -->
<g id="edge23" class="edge">
<title>iter&#45;&gt;union</title>
<path fill="none" stroke="black" d="M303.04,-215.7C301.64,-208.15 299.96,-199.12 298.39,-190.68"/>
<polygon fill="black" stroke="black" points="301.69,-190.3 296.43,-181.1 294.81,-191.58 301.69,-190.3"/>
</g>
<!-- conv&#45;&gt;constraint -->
<g id="edge1" class="edge">
<title>conv&#45;&gt;constraint</title>
<path fill="none" stroke="black" d="M587.3,-143.94C583.82,-133.62 579.48,-120.14 576.25,-108 570.85,-87.71 565.93,-64.5 562.46,-46.88"/>
<polygon fill="black" stroke="black" points="565.72,-46.34 560.39,-37.18 558.85,-47.67 565.72,-46.34"/>
</g>
<!-- conv&#45;&gt;funcs -->
<g id="edge2" class="edge">
<title>conv&#45;&gt;funcs</title>
<path fill="none" stroke="black" d="M565.96,-152.7C524.98,-140.22 447.42,-116.62 401.02,-102.5"/>
<polygon fill="black" stroke="black" points="402.09,-98.86 391.5,-99.29 400.05,-105.55 402.09,-98.86"/>
</g>
<!-- reflect -->
<g id="node11" class="node">
<title>reflect</title>
<polygon fill="none" stroke="black" points="639.25,-108 585.25,-108 585.25,-72 639.25,-72 639.25,-108"/>
<text text-anchor="middle" x="612.25" y="-84.95" font-family="Times,serif" font-size="14.00">reflect</text>
</g>
<!-- conv&#45;&gt;reflect -->
<g id="edge3" class="edge">
<title>conv&#45;&gt;reflect</title>
<path fill="none" stroke="black" d="M597.95,-143.7C599.99,-136.15 602.45,-127.12 604.74,-118.68"/>
<polygon fill="black" stroke="black" points="608.37,-119.67 607.61,-109.1 601.61,-117.84 608.37,-119.67"/>
</g>
<!-- funcs&#45;&gt;constraint -->
<g id="edge16" class="edge">
<title>funcs&#45;&gt;constraint</title>
<path fill="none" stroke="black" d="M390.63,-79.12C422.23,-67.72 474.67,-48.8 512.28,-35.23"/>
<polygon fill="black" stroke="black" points="513.25,-38.24 521.47,-31.55 510.87,-31.65 513.25,-38.24"/>
</g>
<!-- funcs&#45;&gt;tuple -->
<g id="edge17" class="edge">
<title>funcs&#45;&gt;tuple</title>
<path fill="none" stroke="black" d="M336.08,-80.28C297.38,-67.85 226.26,-45.01 182.62,-31"/>
<polygon fill="black" stroke="black" points="184.01,-27.45 173.42,-27.72 181.87,-34.11 184.01,-27.45"/>
</g>
<!-- io/writer&#45;&gt;funcs -->
<g id="edge19" class="edge">
<title>io/writer&#45;&gt;funcs</title>
<path fill="none" stroke="black" d="M62.74,-154.07C76.94,-150.96 93.93,-147.27 109.25,-144 185.84,-127.66 275.55,-109.07 325.23,-98.82"/>
<polygon fill="black" stroke="black" points="325.71,-102.09 334.79,-96.65 324.29,-95.24 325.71,-102.09"/>
</g>
<!-- io/writer&#45;&gt;tuple -->
<g id="edge20" class="edge">
<title>io/writer&#45;&gt;tuple</title>
<path fill="none" stroke="black" d="M37.36,-143.6C44.6,-124.61 58.02,-94 76.25,-72 85.62,-60.69 97.82,-50.33 109.36,-41.83"/>
<polygon fill="black" stroke="black" points="110.86,-44.34 116.99,-35.7 106.81,-38.63 110.86,-44.34"/>
</g>
<!-- io -->
<g id="node14" class="node">
<title>io</title>
<polygon fill="none" stroke="black" points="673.25,-324 619.25,-324 619.25,-288 673.25,-288 673.25,-324"/>
<text text-anchor="middle" x="646.25" y="-300.95" font-family="Times,serif" font-size="14.00">io</text>
</g>
<!-- io&#45;&gt;math -->
<g id="edge18" class="edge">
<title>io&#45;&gt;math</title>
<path fill="none" stroke="black" d="M646.25,-287.7C646.25,-280.24 646.25,-271.32 646.25,-262.97"/>
<polygon fill="black" stroke="black" points="649.75,-263.1 646.25,-253.1 642.75,-263.1 649.75,-263.1"/>
</g>
<!-- math&#45;&gt;conv -->
<g id="edge25" class="edge">
<title>math&#45;&gt;conv</title>
<path fill="none" stroke="black" d="M633.15,-215.7C626.99,-207.56 619.51,-197.69 612.71,-188.7"/>
<polygon fill="black" stroke="black" points="615.03,-186.96 606.2,-181.1 609.45,-191.19 615.03,-186.96"/>
</g>
<!-- math&#45;&gt;constraint -->
<g id="edge24" class="edge">
<title>math&#45;&gt;constraint</title>
<path fill="none" stroke="black" d="M651.9,-215.98C661.13,-184.84 675.82,-117.72 648.25,-72 637.82,-54.69 619.43,-42.45 601.9,-34.13"/>
<polygon fill="black" stroke="black" points="603.87,-30.73 593.31,-29.9 601.04,-37.13 603.87,-30.73"/>
</g>
<!-- math&#45;&gt;funcs -->
<g id="edge26" class="edge">
<title>math&#45;&gt;funcs</title>
<path fill="none" stroke="black" d="M648.18,-215.69C649.38,-195.61 647.97,-162.87 629.25,-144 597.82,-112.32 467.12,-98.5 401.37,-93.46"/>
<polygon fill="black" stroke="black" points="401.88,-89.91 391.65,-92.67 401.36,-96.89 401.88,-89.91"/>
</g>
</g>
</svg>
