<?xml version="1.0" encoding="UTF-8" standalone="no"?>
<!DOCTYPE svg PUBLIC "-//W3C//DTD SVG 1.1//EN"
 "http://www.w3.org/Graphics/SVG/1.1/DTD/svg11.dtd">
<!-- Generated by graphviz version 8.0.1 (20230327.1645)
 -->
<!-- Title: dependencies Pages: 1 -->
<svg width="299pt" height="260pt"
 viewBox="0.00 0.00 299.41 260.00" xmlns="http://www.w3.org/2000/svg" xmlns:xlink="http://www.w3.org/1999/xlink">
<g id="graph0" class="graph" transform="scale(1 1) rotate(0) translate(4 256)">
<title>dependencies</title>
<polygon fill="white" stroke="none" points="-4,4 -4,-256 295.41,-256 295.41,4 -4,4"/>
<!-- conv -->
<g id="node1" class="node">
<title>conv</title>
<ellipse fill="none" stroke="black" cx="179.64" cy="-162" rx="27.9" ry="18"/>
<text text-anchor="middle" x="179.64" y="-158.3" font-family="Times,serif" font-size="14.00">conv</text>
</g>
<!-- constraint -->
<g id="node2" class="node">
<title>constraint</title>
<ellipse fill="none" stroke="black" cx="179.64" cy="-18" rx="45.49" ry="18"/>
<text text-anchor="middle" x="179.64" y="-14.3" font-family="Times,serif" font-size="14.00">constraint</text>
</g>
<!-- conv&#45;&gt;constraint -->
<g id="edge1" class="edge">
<title>conv&#45;&gt;constraint</title>
<path fill="none" stroke="black" d="M179.64,-143.59C179.64,-119.5 179.64,-75.75 179.64,-47.03"/>
<polygon fill="black" stroke="black" points="183.14,-47.11 179.64,-37.11 176.14,-47.11 183.14,-47.11"/>
</g>
<!-- funcs -->
<g id="node3" class="node">
<title>funcs</title>
<ellipse fill="none" stroke="black" cx="121.64" cy="-90" rx="29.8" ry="18"/>
<text text-anchor="middle" x="121.64" y="-86.3" font-family="Times,serif" font-size="14.00">funcs</text>
</g>
<!-- conv&#45;&gt;funcs -->
<g id="edge2" class="edge">
<title>conv&#45;&gt;funcs</title>
<path fill="none" stroke="black" d="M167.06,-145.81C159.56,-136.76 149.88,-125.08 141.39,-114.83"/>
<polygon fill="black" stroke="black" points="143.68,-113.11 134.6,-107.64 138.29,-117.58 143.68,-113.11"/>
</g>
<!-- reflect -->
<g id="node4" class="node">
<title>reflect</title>
<ellipse fill="none" stroke="black" cx="240.64" cy="-90" rx="33.29" ry="18"/>
<text text-anchor="middle" x="240.64" y="-86.3" font-family="Times,serif" font-size="14.00">reflect</text>
</g>
<!-- conv&#45;&gt;reflect -->
<g id="edge3" class="edge">
<title>conv&#45;&gt;reflect</title>
<path fill="none" stroke="black" d="M192.88,-145.81C200.76,-136.76 210.94,-125.08 219.87,-114.83"/>
<polygon fill="black" stroke="black" points="223.08,-117.48 227.01,-107.64 217.8,-112.88 223.08,-117.48"/>
</g>
<!-- funcs&#45;&gt;constraint -->
<g id="edge4" class="edge">
<title>funcs&#45;&gt;constraint</title>
<path fill="none" stroke="black" d="M134.51,-73.46C141.74,-64.74 150.93,-53.65 159.12,-43.76"/>
<polygon fill="black" stroke="black" points="162.31,-46.4 166,-36.47 156.92,-41.93 162.31,-46.4"/>
</g>
<!-- tuple -->
<g id="node5" class="node">
<title>tuple</title>
<ellipse fill="none" stroke="black" cx="36.64" cy="-18" rx="28.7" ry="18"/>
<text text-anchor="middle" x="36.64" y="-14.3" font-family="Times,serif" font-size="14.00">tuple</text>
</g>
<!-- funcs&#45;&gt;tuple -->
<g id="edge5" class="edge">
<title>funcs&#45;&gt;tuple</title>
<path fill="none" stroke="black" d="M104.44,-74.83C92.15,-64.71 75.41,-50.93 61.65,-39.59"/>
<polygon fill="black" stroke="black" points="64.47,-36.56 54.53,-32.91 60.02,-41.96 64.47,-36.56"/>
</g>
<!-- iter -->
<g id="node6" class="node">
<title>iter</title>
<ellipse fill="none" stroke="black" cx="43.64" cy="-162" rx="27" ry="18"/>
<text text-anchor="middle" x="43.64" y="-158.3" font-family="Times,serif" font-size="14.00">iter</text>
</g>
<!-- iter&#45;&gt;funcs -->
<g id="edge6" class="edge">
<title>iter&#45;&gt;funcs</title>
<path fill="none" stroke="black" d="M59.05,-147.17C70.05,-137.3 85.06,-123.83 97.62,-112.56"/>
<polygon fill="black" stroke="black" points="99.35,-115.81 104.46,-106.52 94.68,-110.6 99.35,-115.81"/>
</g>
<!-- iter&#45;&gt;tuple -->
<g id="edge7" class="edge">
<title>iter&#45;&gt;tuple</title>
<path fill="none" stroke="black" d="M28.8,-146.78C19.6,-136.89 8.62,-122.87 3.64,-108 -1.44,-92.83 -0.76,-87.38 3.64,-72 6.5,-62 11.85,-52.06 17.42,-43.53"/>
<polygon fill="black" stroke="black" points="20.82,-45.78 23.68,-35.58 15.08,-41.76 20.82,-45.78"/>
</g>
<!-- union -->
<g id="node7" class="node">
<title>union</title>
<ellipse fill="none" stroke="black" cx="43.64" cy="-90" rx="30.59" ry="18"/>
<text text-anchor="middle" x="43.64" y="-86.3" font-family="Times,serif" font-size="14.00">union</text>
</g>
<!-- iter&#45;&gt;union -->
<g id="edge8" class="edge">
<title>iter&#45;&gt;union</title>
<path fill="none" stroke="black" d="M43.64,-143.7C43.64,-136.24 43.64,-127.32 43.64,-118.97"/>
<polygon fill="black" stroke="black" points="47.14,-119.1 43.64,-109.1 40.14,-119.1 47.14,-119.1"/>
</g>
<!-- util -->
<g id="node8" class="node">
<title>util</title>
<ellipse fill="none" stroke="black" cx="179.64" cy="-234" rx="27" ry="18"/>
<text text-anchor="middle" x="179.64" y="-230.3" font-family="Times,serif" font-size="14.00">util</text>
</g>
<!-- util&#45;&gt;conv -->
<g id="edge10" class="edge">
<title>util&#45;&gt;conv</title>
<path fill="none" stroke="black" d="M179.64,-215.7C179.64,-208.24 179.64,-199.32 179.64,-190.97"/>
<polygon fill="black" stroke="black" points="183.14,-191.1 179.64,-181.1 176.14,-191.1 183.14,-191.1"/>
</g>
<!-- util&#45;&gt;constraint -->
<g id="edge9" class="edge">
<title>util&#45;&gt;constraint</title>
<path fill="none" stroke="black" d="M198.38,-220.59C236.53,-193.73 316.86,-128.09 282.64,-72 270.68,-52.39 248.89,-39.73 228.43,-31.72"/>
<polygon fill="black" stroke="black" points="229.81,-28.14 219.22,-28.05 227.44,-34.73 229.81,-28.14"/>
</g>
<!-- util&#45;&gt;funcs -->
<g id="edge11" class="edge">
<title>util&#45;&gt;funcs</title>
<path fill="none" stroke="black" d="M166.62,-217.71C158.63,-207.6 148.78,-193.73 142.64,-180 133.93,-160.53 128.58,-136.98 125.46,-119"/>
<polygon fill="black" stroke="black" points="128.79,-118.67 123.76,-109.35 121.88,-119.78 128.79,-118.67"/>
</g>
</g>
</svg>
