<?xml version="1.0" encoding="UTF-8" standalone="no"?>
<!DOCTYPE svg PUBLIC "-//W3C//DTD SVG 1.1//EN"
 "http://www.w3.org/Graphics/SVG/1.1/DTD/svg11.dtd">
<!-- Generated by graphviz version 9.0.0 (20230911.1827)
 -->
<!-- Title: dependencies Pages: 1 -->
<svg width="768pt" height="404pt"
 viewBox="0.00 0.00 768.41 404.00" xmlns="http://www.w3.org/2000/svg" xmlns:xlink="http://www.w3.org/1999/xlink">
<g id="graph0" class="graph" transform="scale(1 1) rotate(0) translate(4 400)">
<title>dependencies</title>
<polygon fill="white" stroke="none" points="-4,4 -4,-400 764.41,-400 764.41,4 -4,4"/>
<!-- encoding/json -->
<g id="node1" class="node">
<title>encoding/json</title>
<polygon fill="#87cefa" stroke="black" points="469.12,-252 377.38,-252 377.38,-216 469.12,-216 469.12,-252"/>
<text text-anchor="middle" x="423.25" y="-228.95" font-family="Times,serif" font-size="14.00">encoding/json</text>
</g>
<!-- conv -->
<g id="node8" class="node">
<title>conv</title>
<polygon fill="none" stroke="black" points="696.25,-180 642.25,-180 642.25,-144 696.25,-144 696.25,-180"/>
<text text-anchor="middle" x="669.25" y="-156.95" font-family="Times,serif" font-size="14.00">conv</text>
</g>
<!-- encoding/json&#45;&gt;conv -->
<g id="edge5" class="edge">
<title>encoding/json&#45;&gt;conv</title>
<path fill="none" stroke="black" d="M469.52,-219.83C516.15,-206.56 587.29,-186.32 630.88,-173.92"/>
<polygon fill="black" stroke="black" points="631.76,-177.31 640.42,-171.2 629.84,-170.57 631.76,-177.31"/>
</g>
<!-- constraint -->
<g id="node9" class="node">
<title>constraint</title>
<polygon fill="none" stroke="black" points="720.88,-36 651.62,-36 651.62,0 720.88,0 720.88,-36"/>
<text text-anchor="middle" x="686.25" y="-12.95" font-family="Times,serif" font-size="14.00">constraint</text>
</g>
<!-- encoding/json&#45;&gt;constraint -->
<g id="edge4" class="edge">
<title>encoding/json&#45;&gt;constraint</title>
<path fill="none" stroke="black" d="M439.22,-215.67C468.36,-184.61 532.91,-118.4 595.25,-72 609.93,-61.07 627.04,-50.59 642.43,-41.87"/>
<polygon fill="black" stroke="black" points="643.9,-45.07 650.94,-37.15 640.5,-38.95 643.9,-45.07"/>
</g>
<!-- funcs -->
<g id="node10" class="node">
<title>funcs</title>
<polygon fill="none" stroke="black" points="341.25,-108 287.25,-108 287.25,-72 341.25,-72 341.25,-108"/>
<text text-anchor="middle" x="314.25" y="-84.95" font-family="Times,serif" font-size="14.00">funcs</text>
</g>
<!-- encoding/json&#45;&gt;funcs -->
<g id="edge6" class="edge">
<title>encoding/json&#45;&gt;funcs</title>
<path fill="none" stroke="black" d="M423.79,-215.62C423.53,-196.38 420.49,-165.28 405.25,-144 392.2,-125.77 370.77,-112.85 351.99,-104.33"/>
<polygon fill="black" stroke="black" points="353.57,-101.2 343,-100.52 350.84,-107.64 353.57,-101.2"/>
</g>
<!-- tuple -->
<g id="node12" class="node">
<title>tuple</title>
<polygon fill="none" stroke="black" points="265.25,-36 211.25,-36 211.25,0 265.25,0 265.25,-36"/>
<text text-anchor="middle" x="238.25" y="-12.95" font-family="Times,serif" font-size="14.00">tuple</text>
</g>
<!-- encoding/json&#45;&gt;tuple -->
<g id="edge7" class="edge">
<title>encoding/json&#45;&gt;tuple</title>
<path fill="none" stroke="black" d="M428.34,-215.79C432.87,-197.25 437.35,-167.27 427.25,-144 400.14,-81.52 323.26,-46.38 276.33,-30.18"/>
<polygon fill="black" stroke="black" points="277.69,-26.94 267.09,-27.12 275.48,-33.59 277.69,-26.94"/>
</g>
<!-- union -->
<g id="node13" class="node">
<title>union</title>
<polygon fill="none" stroke="black" points="396.25,-180 342.25,-180 342.25,-144 396.25,-144 396.25,-180"/>
<text text-anchor="middle" x="369.25" y="-156.95" font-family="Times,serif" font-size="14.00">union</text>
</g>
<!-- encoding/json&#45;&gt;union -->
<g id="edge8" class="edge">
<title>encoding/json&#45;&gt;union</title>
<path fill="none" stroke="black" d="M409.9,-215.7C403.69,-207.64 396.17,-197.89 389.29,-188.98"/>
<polygon fill="black" stroke="black" points="392.25,-187.08 383.37,-181.3 386.71,-191.36 392.25,-187.08"/>
</g>
<!-- encoding/json/parse -->
<g id="node2" class="node">
<title>encoding/json/parse</title>
<polygon fill="#87cefa" stroke="black" points="495.25,-396 371.25,-396 371.25,-360 495.25,-360 495.25,-396"/>
<text text-anchor="middle" x="433.25" y="-372.95" font-family="Times,serif" font-size="14.00">encoding/json/parse</text>
</g>
<!-- encoding/json/parse&#45;&gt;encoding/json -->
<g id="edge9" class="edge">
<title>encoding/json/parse&#45;&gt;encoding/json</title>
<path fill="none" stroke="black" d="M432.47,-359.59C431.61,-341.64 430.12,-312.85 428.25,-288 427.65,-280.04 426.89,-271.43 426.14,-263.5"/>
<polygon fill="black" stroke="black" points="429.64,-263.29 425.18,-253.68 422.67,-263.97 429.64,-263.29"/>
</g>
<!-- stream -->
<g id="node6" class="node">
<title>stream</title>
<polygon fill="#87cefa" stroke="black" points="641.25,-324 587.25,-324 587.25,-288 641.25,-288 641.25,-324"/>
<text text-anchor="middle" x="614.25" y="-300.95" font-family="Times,serif" font-size="14.00">stream</text>
</g>
<!-- encoding/json/parse&#45;&gt;stream -->
<g id="edge12" class="edge">
<title>encoding/json/parse&#45;&gt;stream</title>
<path fill="none" stroke="black" d="M478.46,-359.52C508.63,-347.85 547.86,-332.68 576.39,-321.64"/>
<polygon fill="black" stroke="black" points="577.28,-325.05 585.35,-318.18 574.76,-318.52 577.28,-325.05"/>
</g>
<!-- iter -->
<g id="node7" class="node">
<title>iter</title>
<polygon fill="#e6e6fa" stroke="black" points="359.25,-252 305.25,-252 305.25,-216 359.25,-216 359.25,-252"/>
<text text-anchor="middle" x="332.25" y="-228.95" font-family="Times,serif" font-size="14.00">iter</text>
</g>
<!-- encoding/json/parse&#45;&gt;iter -->
<g id="edge11" class="edge">
<title>encoding/json/parse&#45;&gt;iter</title>
<path fill="none" stroke="black" d="M428.51,-359.7C422.77,-340.81 411.75,-310.28 395.25,-288 387.43,-277.45 377.11,-267.64 367.09,-259.41"/>
<polygon fill="black" stroke="black" points="369.27,-256.67 359.25,-253.25 364.95,-262.17 369.27,-256.67"/>
</g>
<!-- encoding/json/parse&#45;&gt;funcs -->
<g id="edge10" class="edge">
<title>encoding/json/parse&#45;&gt;funcs</title>
<path fill="none" stroke="black" d="M370.98,-372.69C304.25,-366.63 204.7,-352.9 181.25,-324 125.23,-254.97 226.68,-159.35 281.93,-115.16"/>
<polygon fill="black" stroke="black" points="283.8,-118.14 289.5,-109.21 279.48,-112.64 283.8,-118.14"/>
</g>
<!-- encoding/json/write -->
<g id="node3" class="node">
<title>encoding/json/write</title>
<polygon fill="#87cefa" stroke="black" points="313.88,-324 190.62,-324 190.62,-288 313.88,-288 313.88,-324"/>
<text text-anchor="middle" x="252.25" y="-300.95" font-family="Times,serif" font-size="14.00">encoding/json/write</text>
</g>
<!-- encoding/json/write&#45;&gt;encoding/json -->
<g id="edge13" class="edge">
<title>encoding/json/write&#45;&gt;encoding/json</title>
<path fill="none" stroke="black" d="M294.96,-287.52C317.79,-278.17 346.12,-266.57 370.34,-256.66"/>
<polygon fill="black" stroke="black" points="371.46,-259.98 379.39,-252.96 368.81,-253.5 371.46,-259.98"/>
</g>
<!-- encoding/json/write&#45;&gt;funcs -->
<g id="edge14" class="edge">
<title>encoding/json/write&#45;&gt;funcs</title>
<path fill="none" stroke="black" d="M253.88,-287.59C257.08,-257.51 265.6,-194.22 284.25,-144 287.51,-135.22 292.11,-126.17 296.73,-118.09"/>
<polygon fill="black" stroke="black" points="299.58,-120.14 301.71,-109.76 293.57,-116.54 299.58,-120.14"/>
</g>
<!-- io/writer -->
<g id="node14" class="node">
<title>io/writer</title>
<polygon fill="none" stroke="black" points="62.5,-180 0,-180 0,-144 62.5,-144 62.5,-180"/>
<text text-anchor="middle" x="31.25" y="-156.95" font-family="Times,serif" font-size="14.00">io/writer</text>
</g>
<!-- encoding/json/write&#45;&gt;io/writer -->
<g id="edge15" class="edge">
<title>encoding/json/write&#45;&gt;io/writer</title>
<path fill="none" stroke="black" d="M225.15,-287.59C185.61,-262.18 112.01,-214.89 67.74,-186.44"/>
<polygon fill="black" stroke="black" points="69.8,-183.61 59.5,-181.15 66.02,-189.5 69.8,-183.61"/>
</g>
<!-- event -->
<g id="node4" class="node">
<title>event</title>
<polygon fill="#87cefa" stroke="black" points="386.25,-324 332.25,-324 332.25,-288 386.25,-288 386.25,-324"/>
<text text-anchor="middle" x="359.25" y="-300.95" font-family="Times,serif" font-size="14.00">event</text>
</g>
<!-- event&#45;&gt;encoding/json -->
<g id="edge16" class="edge">
<title>event&#45;&gt;encoding/json</title>
<path fill="none" stroke="black" d="M375.07,-287.7C382.59,-279.47 391.72,-269.48 400.01,-260.42"/>
<polygon fill="black" stroke="black" points="402.43,-262.96 406.59,-253.22 397.26,-258.24 402.43,-262.96"/>
</g>
<!-- event&#45;&gt;funcs -->
<g id="edge17" class="edge">
<title>event&#45;&gt;funcs</title>
<path fill="none" stroke="black" d="M331.91,-289.85C318.5,-280.8 303.67,-267.94 296.25,-252 276.09,-208.7 290.6,-152.01 302.65,-118.74"/>
<polygon fill="black" stroke="black" points="305.75,-120.41 306.05,-109.82 299.21,-117.92 305.75,-120.41"/>
</g>
<!-- rest -->
<g id="node5" class="node">
<title>rest</title>
<polygon fill="#87cefa" stroke="black" points="134.25,-180 80.25,-180 80.25,-144 134.25,-144 134.25,-180"/>
<text text-anchor="middle" x="107.25" y="-156.95" font-family="Times,serif" font-size="14.00">rest</text>
</g>
<!-- rest&#45;&gt;funcs -->
<g id="edge29" class="edge">
<title>rest&#45;&gt;funcs</title>
<path fill="none" stroke="black" d="M134.74,-151.7C171.03,-139.43 235.1,-117.76 276.08,-103.91"/>
<polygon fill="black" stroke="black" points="277.19,-107.23 285.54,-100.71 274.95,-100.6 277.19,-107.23"/>
</g>
<!-- rest&#45;&gt;tuple -->
<g id="edge30" class="edge">
<title>rest&#45;&gt;tuple</title>
<path fill="none" stroke="black" d="M111.87,-143.5C117.69,-124.15 129.31,-92.95 148.25,-72 162.69,-56.03 183.09,-43.48 200.81,-34.61"/>
<polygon fill="black" stroke="black" points="201.99,-37.92 209.51,-30.46 198.98,-31.6 201.99,-37.92"/>
</g>
<!-- stream&#45;&gt;iter -->
<g id="edge34" class="edge">
<title>stream&#45;&gt;iter</title>
<path fill="none" stroke="black" d="M586.76,-301.18C542.65,-294.61 453.34,-279.49 370.37,-252.3"/>
<polygon fill="black" stroke="black" points="371.53,-249 360.93,-249.14 369.3,-255.64 371.53,-249"/>
</g>
<!-- stream&#45;&gt;conv -->
<g id="edge32" class="edge">
<title>stream&#45;&gt;conv</title>
<path fill="none" stroke="black" d="M620.99,-287.59C630.36,-263.4 647.42,-219.36 658.54,-190.65"/>
<polygon fill="black" stroke="black" points="661.73,-192.11 662.08,-181.52 655.2,-189.58 661.73,-192.11"/>
</g>
<!-- stream&#45;&gt;constraint -->
<g id="edge31" class="edge">
<title>stream&#45;&gt;constraint</title>
<path fill="none" stroke="black" d="M641.51,-295.62C677.56,-282.95 737.27,-260.92 743.25,-252 786.88,-186.9 735.56,-91.6 705.31,-45.68"/>
<polygon fill="black" stroke="black" points="708.39,-43.98 699.89,-37.65 702.59,-47.9 708.39,-43.98"/>
</g>
<!-- stream&#45;&gt;funcs -->
<g id="edge33" class="edge">
<title>stream&#45;&gt;funcs</title>
<path fill="none" stroke="black" d="M595.28,-287.5C555.25,-250.76 462.85,-167.05 427.25,-144 403.49,-128.61 374.56,-115.13 351.92,-105.61"/>
<polygon fill="black" stroke="black" points="353.34,-102.41 342.76,-101.85 350.67,-108.89 353.34,-102.41"/>
</g>
<!-- stream&#45;&gt;tuple -->
<g id="edge36" class="edge">
<title>stream&#45;&gt;tuple</title>
<path fill="none" stroke="black" d="M603.37,-287.53C575.29,-243.96 495.8,-129.86 399.25,-72 360.58,-48.83 310.54,-34.41 276.59,-26.57"/>
<polygon fill="black" stroke="black" points="277.73,-23.24 267.21,-24.48 276.21,-30.07 277.73,-23.24"/>
</g>
<!-- math -->
<g id="node16" class="node">
<title>math</title>
<polygon fill="none" stroke="black" points="734.25,-252 680.25,-252 680.25,-216 734.25,-216 734.25,-252"/>
<text text-anchor="middle" x="707.25" y="-228.95" font-family="Times,serif" font-size="14.00">math</text>
</g>
<!-- stream&#45;&gt;math -->
<g id="edge35" class="edge">
<title>stream&#45;&gt;math</title>
<path fill="none" stroke="black" d="M637.24,-287.7C648.64,-279.11 662.6,-268.61 675.05,-259.24"/>
<polygon fill="black" stroke="black" points="677.11,-262.07 682.99,-253.26 672.9,-256.47 677.11,-262.07"/>
</g>
<!-- iter&#45;&gt;funcs -->
<g id="edge23" class="edge">
<title>iter&#45;&gt;funcs</title>
<path fill="none" stroke="black" d="M330.04,-215.59C327,-191.61 321.49,-148.14 317.85,-119.42"/>
<polygon fill="black" stroke="black" points="321.34,-119.09 316.61,-109.61 314.39,-119.97 321.34,-119.09"/>
</g>
<!-- iter&#45;&gt;tuple -->
<g id="edge24" class="edge">
<title>iter&#45;&gt;tuple</title>
<path fill="none" stroke="black" d="M324.72,-215.85C308.49,-178.91 270.12,-91.55 250.4,-46.67"/>
<polygon fill="black" stroke="black" points="253.65,-45.37 246.43,-37.62 247.25,-48.18 253.65,-45.37"/>
</g>
<!-- iter&#45;&gt;union -->
<g id="edge25" class="edge">
<title>iter&#45;&gt;union</title>
<path fill="none" stroke="black" d="M341.4,-215.7C345.47,-207.98 350.37,-198.71 354.92,-190.11"/>
<polygon fill="black" stroke="black" points="357.92,-191.92 359.5,-181.44 351.73,-188.65 357.92,-191.92"/>
</g>
<!-- conv&#45;&gt;constraint -->
<g id="edge1" class="edge">
<title>conv&#45;&gt;constraint</title>
<path fill="none" stroke="black" d="M671.33,-143.59C674.2,-119.61 679.41,-76.14 682.85,-47.42"/>
<polygon fill="black" stroke="black" points="686.31,-47.96 684.02,-37.61 679.36,-47.13 686.31,-47.96"/>
</g>
<!-- conv&#45;&gt;funcs -->
<g id="edge2" class="edge">
<title>conv&#45;&gt;funcs</title>
<path fill="none" stroke="black" d="M641.86,-154.95C626.67,-151.63 607.43,-147.5 590.25,-144 505.8,-126.81 406.48,-108.11 353.03,-98.17"/>
<polygon fill="black" stroke="black" points="353.67,-94.72 343.2,-96.34 352.39,-101.61 353.67,-94.72"/>
</g>
<!-- reflect -->
<g id="node11" class="node">
<title>reflect</title>
<polygon fill="none" stroke="black" points="658.25,-108 604.25,-108 604.25,-72 658.25,-72 658.25,-108"/>
<text text-anchor="middle" x="631.25" y="-84.95" font-family="Times,serif" font-size="14.00">reflect</text>
</g>
<!-- conv&#45;&gt;reflect -->
<g id="edge3" class="edge">
<title>conv&#45;&gt;reflect</title>
<path fill="none" stroke="black" d="M659.86,-143.7C655.67,-135.98 650.64,-126.71 645.97,-118.11"/>
<polygon fill="black" stroke="black" points="649.1,-116.55 641.26,-109.43 642.95,-119.89 649.1,-116.55"/>
</g>
<!-- funcs&#45;&gt;constraint -->
<g id="edge18" class="edge">
<title>funcs&#45;&gt;constraint</title>
<path fill="none" stroke="black" d="M341.6,-83.85C404.85,-71.95 561.79,-42.42 640.17,-27.67"/>
<polygon fill="black" stroke="black" points="640.48,-31.17 649.66,-25.89 639.18,-24.3 640.48,-31.17"/>
</g>
<!-- funcs&#45;&gt;tuple -->
<g id="edge19" class="edge">
<title>funcs&#45;&gt;tuple</title>
<path fill="none" stroke="black" d="M295.46,-71.7C286.42,-63.37 275.41,-53.22 265.47,-44.07"/>
<polygon fill="black" stroke="black" points="267.92,-41.57 258.2,-37.37 263.18,-46.72 267.92,-41.57"/>
</g>
<!-- union&#45;&gt;funcs -->
<g id="edge37" class="edge">
<title>union&#45;&gt;funcs</title>
<path fill="none" stroke="black" d="M355.65,-143.7C349.33,-135.64 341.67,-125.89 334.66,-116.98"/>
<polygon fill="black" stroke="black" points="337.55,-115 328.62,-109.29 332.05,-119.32 337.55,-115"/>
</g>
<!-- io/writer&#45;&gt;funcs -->
<g id="edge21" class="edge">
<title>io/writer&#45;&gt;funcs</title>
<path fill="none" stroke="black" d="M62.92,-146.91C65.72,-145.86 68.52,-144.87 71.25,-144 141.95,-121.49 227.22,-105.32 275.65,-97.12"/>
<polygon fill="black" stroke="black" points="276.06,-100.6 285.35,-95.5 274.91,-93.69 276.06,-100.6"/>
</g>
<!-- io/writer&#45;&gt;tuple -->
<g id="edge22" class="edge">
<title>io/writer&#45;&gt;tuple</title>
<path fill="none" stroke="black" d="M45.57,-143.78C62.37,-124.39 91.82,-92.88 122.25,-72 146.52,-55.34 176.87,-41.69 200.43,-32.42"/>
<polygon fill="black" stroke="black" points="201.57,-35.73 209.66,-28.89 199.06,-29.2 201.57,-35.73"/>
</g>
<!-- io -->
<g id="node15" class="node">
<title>io</title>
<polygon fill="none" stroke="black" points="734.25,-324 680.25,-324 680.25,-288 734.25,-288 734.25,-324"/>
<text text-anchor="middle" x="707.25" y="-300.95" font-family="Times,serif" font-size="14.00">io</text>
</g>
<!-- io&#45;&gt;math -->
<g id="edge20" class="edge">
<title>io&#45;&gt;math</title>
<path fill="none" stroke="black" d="M707.25,-287.7C707.25,-280.41 707.25,-271.73 707.25,-263.54"/>
<polygon fill="black" stroke="black" points="710.75,-263.62 707.25,-253.62 703.75,-263.62 710.75,-263.62"/>
</g>
<!-- math&#45;&gt;conv -->
<g id="edge27" class="edge">
<title>math&#45;&gt;conv</title>
<path fill="none" stroke="black" d="M697.86,-215.7C693.67,-207.98 688.64,-198.71 683.97,-190.11"/>
<polygon fill="black" stroke="black" points="687.1,-188.55 679.26,-181.43 680.95,-191.89 687.1,-188.55"/>
</g>
<!-- math&#45;&gt;constraint -->
<g id="edge26" class="edge">
<title>math&#45;&gt;constraint</title>
<path fill="none" stroke="black" d="M707.52,-215.57C707.64,-197.6 707.4,-168.79 705.25,-144 702.36,-110.74 696.2,-72.87 691.67,-47.62"/>
<polygon fill="black" stroke="black" points="695.12,-47 689.87,-37.8 688.23,-48.26 695.12,-47"/>
</g>
<!-- math&#45;&gt;funcs -->
<g id="edge28" class="edge">
<title>math&#45;&gt;funcs</title>
<path fill="none" stroke="black" d="M680.04,-221.99C637.02,-204.71 550.55,-170.45 476.25,-144 434.23,-129.04 385.53,-113.33 352.59,-102.93"/>
<polygon fill="black" stroke="black" points="353.66,-99.6 343.07,-99.94 351.56,-106.27 353.66,-99.6"/>
</g>
</g>
</svg>
