<?xml version="1.0" encoding="UTF-8" standalone="no"?>
<!DOCTYPE svg PUBLIC "-//W3C//DTD SVG 1.1//EN"
 "http://www.w3.org/Graphics/SVG/1.1/DTD/svg11.dtd">
<!-- Generated by graphviz version 8.0.1 (20230327.1645)
 -->
<!-- Title: dependencies Pages: 1 -->
<svg width="568pt" height="404pt"
 viewBox="0.00 0.00 567.84 404.00" xmlns="http://www.w3.org/2000/svg" xmlns:xlink="http://www.w3.org/1999/xlink">
<g id="graph0" class="graph" transform="scale(1 1) rotate(0) translate(4 400)">
<title>dependencies</title>
<polygon fill="white" stroke="none" points="-4,4 -4,-400 563.84,-400 563.84,4 -4,4"/>
<!-- conv -->
<g id="node1" class="node">
<title>conv</title>
<ellipse fill="none" stroke="black" cx="126.82" cy="-162" rx="27.9" ry="18"/>
<text text-anchor="middle" x="126.82" y="-158.3" font-family="Times,serif" font-size="14.00">conv</text>
</g>
<!-- constraint -->
<g id="node2" class="node">
<title>constraint</title>
<ellipse fill="none" stroke="black" cx="121.82" cy="-18" rx="45.49" ry="18"/>
<text text-anchor="middle" x="121.82" y="-14.3" font-family="Times,serif" font-size="14.00">constraint</text>
</g>
<!-- conv&#45;&gt;constraint -->
<g id="edge1" class="edge">
<title>conv&#45;&gt;constraint</title>
<path fill="none" stroke="black" d="M140.94,-146.14C149.38,-136.19 159.3,-122.34 163.82,-108 168.62,-92.74 169.08,-87.11 163.82,-72 160.15,-61.47 153.42,-51.45 146.41,-43.02"/>
<polygon fill="black" stroke="black" points="149.38,-40.98 140.11,-35.86 144.16,-45.65 149.38,-40.98"/>
</g>
<!-- funcs -->
<g id="node3" class="node">
<title>funcs</title>
<ellipse fill="none" stroke="black" cx="278.82" cy="-90" rx="29.8" ry="18"/>
<text text-anchor="middle" x="278.82" y="-86.3" font-family="Times,serif" font-size="14.00">funcs</text>
</g>
<!-- conv&#45;&gt;funcs -->
<g id="edge2" class="edge">
<title>conv&#45;&gt;funcs</title>
<path fill="none" stroke="black" d="M149.24,-150.67C174.8,-138.9 216.81,-119.56 246.04,-106.09"/>
<polygon fill="black" stroke="black" points="247.18,-108.96 254.8,-101.6 244.25,-102.6 247.18,-108.96"/>
</g>
<!-- reflect -->
<g id="node4" class="node">
<title>reflect</title>
<ellipse fill="none" stroke="black" cx="121.82" cy="-90" rx="33.29" ry="18"/>
<text text-anchor="middle" x="121.82" y="-86.3" font-family="Times,serif" font-size="14.00">reflect</text>
</g>
<!-- conv&#45;&gt;reflect -->
<g id="edge3" class="edge">
<title>conv&#45;&gt;reflect</title>
<path fill="none" stroke="black" d="M125.58,-143.7C125.05,-136.24 124.41,-127.32 123.81,-118.97"/>
<polygon fill="black" stroke="black" points="127.24,-118.83 123.04,-109.1 120.26,-119.33 127.24,-118.83"/>
</g>
<!-- funcs&#45;&gt;constraint -->
<g id="edge4" class="edge">
<title>funcs&#45;&gt;constraint</title>
<path fill="none" stroke="black" d="M255.31,-78.52C230.44,-67.43 190.77,-49.75 161.13,-36.53"/>
<polygon fill="black" stroke="black" points="162.66,-32.93 152.11,-32.06 159.81,-39.33 162.66,-32.93"/>
</g>
<!-- tuple -->
<g id="node5" class="node">
<title>tuple</title>
<ellipse fill="none" stroke="black" cx="360.82" cy="-18" rx="28.7" ry="18"/>
<text text-anchor="middle" x="360.82" y="-14.3" font-family="Times,serif" font-size="14.00">tuple</text>
</g>
<!-- funcs&#45;&gt;tuple -->
<g id="edge5" class="edge">
<title>funcs&#45;&gt;tuple</title>
<path fill="none" stroke="black" d="M295.41,-74.83C307.08,-64.87 322.9,-51.37 336.06,-40.14"/>
<polygon fill="black" stroke="black" points="337.91,-42.3 343.25,-33.14 333.37,-36.98 337.91,-42.3"/>
</g>
<!-- iter -->
<g id="node6" class="node">
<title>iter</title>
<ellipse fill="none" stroke="black" cx="454.82" cy="-234" rx="27" ry="18"/>
<text text-anchor="middle" x="454.82" y="-230.3" font-family="Times,serif" font-size="14.00">iter</text>
</g>
<!-- iter&#45;&gt;funcs -->
<g id="edge6" class="edge">
<title>iter&#45;&gt;funcs</title>
<path fill="none" stroke="black" d="M455.88,-215.71C456.14,-195.95 453.47,-163.82 435.82,-144 406.25,-110.81 355.18,-98.38 319.33,-93.74"/>
<polygon fill="black" stroke="black" points="320.07,-90.18 309.74,-92.53 319.28,-97.14 320.07,-90.18"/>
</g>
<!-- iter&#45;&gt;tuple -->
<g id="edge7" class="edge">
<title>iter&#45;&gt;tuple</title>
<path fill="none" stroke="black" d="M480.27,-227.26C503.99,-220.42 537.99,-206.43 553.82,-180 562.04,-166.27 561.46,-158.06 553.82,-144 520.47,-82.67 442.62,-46.8 396.63,-30.22"/>
<polygon fill="black" stroke="black" points="398.09,-26.68 387.5,-26.7 395.79,-33.29 398.09,-26.68"/>
</g>
<!-- union -->
<g id="node7" class="node">
<title>union</title>
<ellipse fill="none" stroke="black" cx="513.82" cy="-162" rx="30.59" ry="18"/>
<text text-anchor="middle" x="513.82" y="-158.3" font-family="Times,serif" font-size="14.00">union</text>
</g>
<!-- iter&#45;&gt;union -->
<g id="edge8" class="edge">
<title>iter&#45;&gt;union</title>
<path fill="none" stroke="black" d="M467.62,-217.81C475.24,-208.76 485.09,-197.08 493.73,-186.83"/>
<polygon fill="black" stroke="black" points="496.86,-189.55 500.63,-179.64 491.51,-185.03 496.86,-189.55"/>
</g>
<!-- json -->
<g id="node8" class="node">
<title>json</title>
<ellipse fill="none" stroke="black" cx="169.82" cy="-234" rx="27" ry="18"/>
<text text-anchor="middle" x="169.82" y="-230.3" font-family="Times,serif" font-size="14.00">json</text>
</g>
<!-- json&#45;&gt;conv -->
<g id="edge10" class="edge">
<title>json&#45;&gt;conv</title>
<path fill="none" stroke="black" d="M159.84,-216.76C154.69,-208.37 148.28,-197.93 142.48,-188.5"/>
<polygon fill="black" stroke="black" points="144.95,-186.84 136.73,-180.15 138.99,-190.5 144.95,-186.84"/>
</g>
<!-- json&#45;&gt;constraint -->
<g id="edge9" class="edge">
<title>json&#45;&gt;constraint</title>
<path fill="none" stroke="black" d="M146.87,-224.14C128.31,-215.71 103.13,-201.15 89.82,-180 64.13,-139.21 63.96,-117.52 79.82,-72 83.48,-61.47 90.21,-51.45 97.23,-43.02"/>
<polygon fill="black" stroke="black" points="99.47,-45.65 103.52,-35.86 94.25,-40.98 99.47,-45.65"/>
</g>
<!-- json&#45;&gt;funcs -->
<g id="edge11" class="edge">
<title>json&#45;&gt;funcs</title>
<path fill="none" stroke="black" d="M181.69,-217.53C200.59,-192.91 237.68,-144.59 260.16,-115.31"/>
<polygon fill="black" stroke="black" points="263.31,-117.94 266.63,-107.88 257.76,-113.68 263.31,-117.94"/>
</g>
<!-- json/parse -->
<g id="node9" class="node">
<title>json/parse</title>
<ellipse fill="none" stroke="black" cx="241.82" cy="-378" rx="46.29" ry="18"/>
<text text-anchor="middle" x="241.82" y="-374.3" font-family="Times,serif" font-size="14.00">json/parse</text>
</g>
<!-- json/parse&#45;&gt;iter -->
<g id="edge12" class="edge">
<title>json/parse&#45;&gt;iter</title>
<path fill="none" stroke="black" d="M285.17,-371.35C320.1,-364.91 368.84,-351.48 402.82,-324 422.87,-307.78 436.82,-281.62 445.19,-261.85"/>
<polygon fill="black" stroke="black" points="448.7,-263.49 449.16,-252.91 442.2,-260.9 448.7,-263.49"/>
</g>
<!-- json/parse&#45;&gt;json -->
<g id="edge13" class="edge">
<title>json/parse&#45;&gt;json</title>
<path fill="none" stroke="black" d="M241.01,-359.6C239.51,-340.89 235.19,-310.77 222.82,-288 216.07,-275.58 205.51,-264.17 195.58,-255.13"/>
<polygon fill="black" stroke="black" points="198.35,-252.03 188.5,-248.13 193.77,-257.32 198.35,-252.03"/>
</g>
<!-- stream -->
<g id="node10" class="node">
<title>stream</title>
<ellipse fill="none" stroke="black" cx="179.82" cy="-306" rx="34.39" ry="18"/>
<text text-anchor="middle" x="179.82" y="-302.3" font-family="Times,serif" font-size="14.00">stream</text>
</g>
<!-- json/parse&#45;&gt;stream -->
<g id="edge14" class="edge">
<title>json/parse&#45;&gt;stream</title>
<path fill="none" stroke="black" d="M227.44,-360.76C219.58,-351.89 209.7,-340.74 200.98,-330.89"/>
<polygon fill="black" stroke="black" points="203.94,-328.83 194.69,-323.67 198.7,-333.47 203.94,-328.83"/>
</g>
<!-- stream&#45;&gt;conv -->
<g id="edge20" class="edge">
<title>stream&#45;&gt;conv</title>
<path fill="none" stroke="black" d="M162.27,-290.18C152.06,-280.46 140.03,-266.83 133.82,-252 125.76,-232.77 124.24,-209.17 124.61,-191.11"/>
<polygon fill="black" stroke="black" points="128.15,-191.28 125.07,-181.14 121.15,-190.98 128.15,-191.28"/>
</g>
<!-- stream&#45;&gt;constraint -->
<g id="edge19" class="edge">
<title>stream&#45;&gt;constraint</title>
<path fill="none" stroke="black" d="M145.28,-304.58C107.44,-302.04 48.34,-291.5 19.82,-252 -7.52,-214.15 -14.06,-174.61 51.82,-72 60.36,-58.68 73.49,-47.45 86.07,-38.81"/>
<polygon fill="black" stroke="black" points="87.58,-41.35 94.07,-32.97 83.77,-35.48 87.58,-41.35"/>
</g>
<!-- stream&#45;&gt;funcs -->
<g id="edge21" class="edge">
<title>stream&#45;&gt;funcs</title>
<path fill="none" stroke="black" d="M210.5,-297.46C233.45,-290.05 263.28,-276.21 277.82,-252 302.5,-210.87 294.54,-152.54 286.61,-118.55"/>
<polygon fill="black" stroke="black" points="289.8,-117.86 283.97,-109.01 283.01,-119.57 289.8,-117.86"/>
</g>
<!-- stream&#45;&gt;tuple -->
<g id="edge24" class="edge">
<title>stream&#45;&gt;tuple</title>
<path fill="none" stroke="black" d="M211.74,-298.82C238.74,-291.94 276.51,-278.16 298.82,-252 349.87,-192.11 359.37,-94.53 360.82,-46.91"/>
<polygon fill="black" stroke="black" points="364.34,-47.27 361.04,-37.2 357.34,-47.13 364.34,-47.27"/>
</g>
<!-- stream&#45;&gt;iter -->
<g id="edge22" class="edge">
<title>stream&#45;&gt;iter</title>
<path fill="none" stroke="black" d="M210.3,-297.24C261.58,-284.19 364.85,-257.9 419.32,-244.04"/>
<polygon fill="black" stroke="black" points="420.02,-247.21 428.85,-241.35 418.3,-240.43 420.02,-247.21"/>
</g>
<!-- math -->
<g id="node13" class="node">
<title>math</title>
<ellipse fill="none" stroke="black" cx="57.82" cy="-234" rx="28.7" ry="18"/>
<text text-anchor="middle" x="57.82" y="-230.3" font-family="Times,serif" font-size="14.00">math</text>
</g>
<!-- stream&#45;&gt;math -->
<g id="edge23" class="edge">
<title>stream&#45;&gt;math</title>
<path fill="none" stroke="black" d="M157.15,-292C137.55,-280.75 109.07,-264.41 87.63,-252.1"/>
<polygon fill="black" stroke="black" points="89.74,-248.71 79.33,-246.77 86.26,-254.78 89.74,-248.71"/>
</g>
<!-- json/write -->
<g id="node11" class="node">
<title>json/write</title>
<ellipse fill="none" stroke="black" cx="347.82" cy="-306" rx="46.29" ry="18"/>
<text text-anchor="middle" x="347.82" y="-302.3" font-family="Times,serif" font-size="14.00">json/write</text>
</g>
<!-- json/write&#45;&gt;json -->
<g id="edge15" class="edge">
<title>json/write&#45;&gt;json</title>
<path fill="none" stroke="black" d="M313.93,-293.26C284.97,-283 242.3,-267.39 205.82,-252 204.15,-251.3 202.45,-250.56 200.74,-249.81"/>
<polygon fill="black" stroke="black" points="202.55,-246.33 192,-245.37 199.65,-252.7 202.55,-246.33"/>
</g>
<!-- writer -->
<g id="node12" class="node">
<title>writer</title>
<ellipse fill="none" stroke="black" cx="394.82" cy="-162" rx="31.7" ry="18"/>
<text text-anchor="middle" x="394.82" y="-158.3" font-family="Times,serif" font-size="14.00">writer</text>
</g>
<!-- json/write&#45;&gt;writer -->
<g id="edge16" class="edge">
<title>json/write&#45;&gt;writer</title>
<path fill="none" stroke="black" d="M353.49,-287.87C361.5,-263.67 376.21,-219.21 385.75,-190.39"/>
<polygon fill="black" stroke="black" points="389.31,-191.78 389.13,-181.19 382.66,-189.58 389.31,-191.78"/>
</g>
<!-- writer&#45;&gt;funcs -->
<g id="edge28" class="edge">
<title>writer&#45;&gt;funcs</title>
<path fill="none" stroke="black" d="M373.54,-148.16C355.25,-137.12 328.67,-121.08 308.32,-108.8"/>
<polygon fill="black" stroke="black" points="310.55,-105.46 300.18,-103.29 306.93,-111.45 310.55,-105.46"/>
</g>
<!-- writer&#45;&gt;tuple -->
<g id="edge29" class="edge">
<title>writer&#45;&gt;tuple</title>
<path fill="none" stroke="black" d="M390.71,-143.87C384.95,-119.78 374.37,-75.6 367.47,-46.77"/>
<polygon fill="black" stroke="black" points="370.66,-46.1 364.93,-37.19 363.86,-47.73 370.66,-46.1"/>
</g>
<!-- math&#45;&gt;conv -->
<g id="edge18" class="edge">
<title>math&#45;&gt;conv</title>
<path fill="none" stroke="black" d="M72.45,-218.15C81.78,-208.69 94.05,-196.24 104.58,-185.56"/>
<polygon fill="black" stroke="black" points="106.68,-188.4 111.2,-178.82 101.69,-183.49 106.68,-188.4"/>
</g>
<!-- math&#45;&gt;constraint -->
<g id="edge17" class="edge">
<title>math&#45;&gt;constraint</title>
<path fill="none" stroke="black" d="M54.88,-216.06C50.43,-185.62 44.65,-120.35 66.82,-72 72.29,-60.07 81.75,-49.44 91.3,-40.89"/>
<polygon fill="black" stroke="black" points="93.2,-43.03 98.62,-33.93 88.71,-37.66 93.2,-43.03"/>
</g>
<!-- util -->
<g id="node14" class="node">
<title>util</title>
<ellipse fill="none" stroke="black" cx="241.82" cy="-234" rx="27" ry="18"/>
<text text-anchor="middle" x="241.82" y="-230.3" font-family="Times,serif" font-size="14.00">util</text>
</g>
<!-- util&#45;&gt;conv -->
<g id="edge26" class="edge">
<title>util&#45;&gt;conv</title>
<path fill="none" stroke="black" d="M222.31,-221.13C204.05,-210.01 176.55,-193.27 155.74,-180.61"/>
<polygon fill="black" stroke="black" points="157.78,-177.14 147.42,-174.93 154.14,-183.12 157.78,-177.14"/>
</g>
<!-- util&#45;&gt;constraint -->
<g id="edge25" class="edge">
<title>util&#45;&gt;constraint</title>
<path fill="none" stroke="black" d="M237.98,-215.79C230.51,-184.92 211.9,-119 179.82,-72 172.01,-60.56 161.26,-49.85 151.14,-41.1"/>
<polygon fill="black" stroke="black" points="153.8,-37.93 143.87,-34.24 149.33,-43.31 153.8,-37.93"/>
</g>
<!-- util&#45;&gt;funcs -->
<g id="edge27" class="edge">
<title>util&#45;&gt;funcs</title>
<path fill="none" stroke="black" d="M246.28,-215.87C252.56,-191.78 264.07,-147.6 271.58,-118.77"/>
<polygon fill="black" stroke="black" points="275.2,-119.75 274.34,-109.19 268.43,-117.98 275.2,-119.75"/>
</g>
</g>
</svg>
