<?xml version="1.0" encoding="UTF-8" standalone="no"?>
<!DOCTYPE svg PUBLIC "-//W3C//DTD SVG 1.1//EN"
 "http://www.w3.org/Graphics/SVG/1.1/DTD/svg11.dtd">
<!-- Generated by graphviz version 8.0.5 (20230430.1635)
 -->
<!-- Title: dependencies Pages: 1 -->
<svg width="621pt" height="404pt"
 viewBox="0.00 0.00 620.62 404.00" xmlns="http://www.w3.org/2000/svg" xmlns:xlink="http://www.w3.org/1999/xlink">
<g id="graph0" class="graph" transform="scale(1 1) rotate(0) translate(4 400)">
<title>dependencies</title>
<polygon fill="white" stroke="none" points="-4,4 -4,-400 616.62,-400 616.62,4 -4,4"/>
<!-- conv -->
<g id="node1" class="node">
<title>conv</title>
<ellipse fill="none" stroke="black" cx="176" cy="-162" rx="28.83" ry="18"/>
<text text-anchor="middle" x="176" y="-156.95" font-family="Times,serif" font-size="14.00">conv</text>
</g>
<!-- constraint -->
<g id="node2" class="node">
<title>constraint</title>
<ellipse fill="none" stroke="black" cx="138" cy="-18" rx="47.26" ry="18"/>
<text text-anchor="middle" x="138" y="-12.95" font-family="Times,serif" font-size="14.00">constraint</text>
</g>
<!-- conv&#45;&gt;constraint -->
<g id="edge1" class="edge">
<title>conv&#45;&gt;constraint</title>
<path fill="none" stroke="black" d="M171.42,-143.87C164.97,-119.78 153.15,-75.6 145.43,-46.77"/>
<polygon fill="black" stroke="black" points="148.57,-45.94 142.6,-37.19 141.8,-47.75 148.57,-45.94"/>
</g>
<!-- funcs -->
<g id="node3" class="node">
<title>funcs</title>
<ellipse fill="none" stroke="black" cx="340" cy="-90" rx="30.88" ry="18"/>
<text text-anchor="middle" x="340" y="-84.95" font-family="Times,serif" font-size="14.00">funcs</text>
</g>
<!-- conv&#45;&gt;funcs -->
<g id="edge2" class="edge">
<title>conv&#45;&gt;funcs</title>
<path fill="none" stroke="black" d="M199.5,-150.97C227.31,-139.1 273.86,-119.23 305.7,-105.64"/>
<polygon fill="black" stroke="black" points="306.65,-108.61 314.48,-101.47 303.9,-102.17 306.65,-108.61"/>
</g>
<!-- reflect -->
<g id="node4" class="node">
<title>reflect</title>
<ellipse fill="none" stroke="black" cx="219" cy="-90" rx="34.46" ry="18"/>
<text text-anchor="middle" x="219" y="-84.95" font-family="Times,serif" font-size="14.00">reflect</text>
</g>
<!-- conv&#45;&gt;reflect -->
<g id="edge3" class="edge">
<title>conv&#45;&gt;reflect</title>
<path fill="none" stroke="black" d="M185.97,-144.76C191.06,-136.49 197.36,-126.23 203.09,-116.9"/>
<polygon fill="black" stroke="black" points="206.53,-118.99 208.78,-108.63 200.57,-115.32 206.53,-118.99"/>
</g>
<!-- funcs&#45;&gt;constraint -->
<g id="edge4" class="edge">
<title>funcs&#45;&gt;constraint</title>
<path fill="none" stroke="black" d="M314.83,-79.31C308.38,-76.88 301.45,-74.31 295,-72 257.52,-58.6 214.69,-44.2 183.25,-33.8"/>
<polygon fill="black" stroke="black" points="184.64,-30.24 174.04,-30.43 182.44,-36.89 184.64,-30.24"/>
</g>
<!-- tuple -->
<g id="node5" class="node">
<title>tuple</title>
<ellipse fill="none" stroke="black" cx="472" cy="-18" rx="29.34" ry="18"/>
<text text-anchor="middle" x="472" y="-12.95" font-family="Times,serif" font-size="14.00">tuple</text>
</g>
<!-- funcs&#45;&gt;tuple -->
<g id="edge5" class="edge">
<title>funcs&#45;&gt;tuple</title>
<path fill="none" stroke="black" d="M362.39,-77.13C383.98,-65.67 416.85,-48.25 440.96,-35.46"/>
<polygon fill="black" stroke="black" points="442.18,-38.24 449.38,-30.47 438.9,-32.06 442.18,-38.24"/>
</g>
<!-- iter -->
<g id="node6" class="node">
<title>iter</title>
<ellipse fill="none" stroke="black" cx="562" cy="-234" rx="27" ry="18"/>
<text text-anchor="middle" x="562" y="-228.95" font-family="Times,serif" font-size="14.00">iter</text>
</g>
<!-- iter&#45;&gt;funcs -->
<g id="edge6" class="edge">
<title>iter&#45;&gt;funcs</title>
<path fill="none" stroke="black" d="M546.52,-218.84C525.64,-200.2 486.82,-167.1 450,-144 425.97,-128.93 397.01,-115.13 374.84,-105.4"/>
<polygon fill="black" stroke="black" points="376.43,-101.84 365.86,-101.09 373.65,-108.26 376.43,-101.84"/>
</g>
<!-- iter&#45;&gt;tuple -->
<g id="edge7" class="edge">
<title>iter&#45;&gt;tuple</title>
<path fill="none" stroke="black" d="M578.56,-219.64C589.21,-209.92 602.12,-195.75 608,-180 613.6,-165.01 614.43,-158.65 608,-144 586.58,-95.23 535.7,-57.12 502.61,-36.37"/>
<polygon fill="black" stroke="black" points="504.74,-32.96 494.38,-30.74 501.09,-38.94 504.74,-32.96"/>
</g>
<!-- union -->
<g id="node7" class="node">
<title>union</title>
<ellipse fill="none" stroke="black" cx="567" cy="-162" rx="31.9" ry="18"/>
<text text-anchor="middle" x="567" y="-156.95" font-family="Times,serif" font-size="14.00">union</text>
</g>
<!-- iter&#45;&gt;union -->
<g id="edge8" class="edge">
<title>iter&#45;&gt;union</title>
<path fill="none" stroke="black" d="M563.24,-215.7C563.77,-208.24 564.41,-199.32 565,-190.97"/>
<polygon fill="black" stroke="black" points="568.56,-191.33 565.78,-181.1 561.57,-190.83 568.56,-191.33"/>
</g>
<!-- json -->
<g id="node8" class="node">
<title>json</title>
<ellipse fill="none" stroke="black" cx="27" cy="-234" rx="27" ry="18"/>
<text text-anchor="middle" x="27" y="-228.95" font-family="Times,serif" font-size="14.00">json</text>
</g>
<!-- json&#45;&gt;conv -->
<g id="edge10" class="edge">
<title>json&#45;&gt;conv</title>
<path fill="none" stroke="black" d="M48.67,-222.82C73.65,-211.09 114.96,-191.68 143.73,-178.16"/>
<polygon fill="black" stroke="black" points="144.77,-181.07 152.33,-173.65 141.79,-174.73 144.77,-181.07"/>
</g>
<!-- json&#45;&gt;constraint -->
<g id="edge9" class="edge">
<title>json&#45;&gt;constraint</title>
<path fill="none" stroke="black" d="M27.54,-215.99C29.27,-184.89 36.55,-117.82 67,-72 75.84,-58.7 89.18,-47.47 101.92,-38.82"/>
<polygon fill="black" stroke="black" points="103.5,-41.33 110.02,-32.99 99.72,-35.44 103.5,-41.33"/>
</g>
<!-- json&#45;&gt;funcs -->
<g id="edge11" class="edge">
<title>json&#45;&gt;funcs</title>
<path fill="none" stroke="black" d="M41.03,-218.42C60.83,-198.68 98.95,-163.65 138,-144 152.58,-136.66 246.62,-113.42 301.1,-100.28"/>
<polygon fill="black" stroke="black" points="301.85,-103.46 310.76,-97.72 300.22,-96.65 301.85,-103.46"/>
</g>
<!-- json/parse -->
<g id="node9" class="node">
<title>json/parse</title>
<ellipse fill="none" stroke="black" cx="299" cy="-378" rx="48.28" ry="18"/>
<text text-anchor="middle" x="299" y="-372.95" font-family="Times,serif" font-size="14.00">json/parse</text>
</g>
<!-- json/parse&#45;&gt;iter -->
<g id="edge12" class="edge">
<title>json/parse&#45;&gt;iter</title>
<path fill="none" stroke="black" d="M325.67,-362.6C375,-335.96 480.22,-279.16 531.98,-251.21"/>
<polygon fill="black" stroke="black" points="533.45,-253.85 540.58,-246.02 530.12,-247.7 533.45,-253.85"/>
</g>
<!-- json/parse&#45;&gt;json -->
<g id="edge13" class="edge">
<title>json/parse&#45;&gt;json</title>
<path fill="none" stroke="black" d="M256.87,-368.98C221.23,-361.03 169.61,-346.71 129,-324 97.45,-306.36 66.99,-277.79 47.7,-257.79"/>
<polygon fill="black" stroke="black" points="50.81,-255.92 41.39,-251.06 45.72,-260.73 50.81,-255.92"/>
</g>
<!-- stream -->
<g id="node10" class="node">
<title>stream</title>
<ellipse fill="none" stroke="black" cx="299" cy="-306" rx="36" ry="18"/>
<text text-anchor="middle" x="299" y="-300.95" font-family="Times,serif" font-size="14.00">stream</text>
</g>
<!-- json/parse&#45;&gt;stream -->
<g id="edge14" class="edge">
<title>json/parse&#45;&gt;stream</title>
<path fill="none" stroke="black" d="M299,-359.7C299,-352.24 299,-343.32 299,-334.97"/>
<polygon fill="black" stroke="black" points="302.5,-335.1 299,-325.1 295.5,-335.1 302.5,-335.1"/>
</g>
<!-- stream&#45;&gt;conv -->
<g id="edge21" class="edge">
<title>stream&#45;&gt;conv</title>
<path fill="none" stroke="black" d="M271.88,-294.03C252.89,-285.16 228.14,-271.01 212,-252 197.01,-234.35 187.69,-209.64 182.29,-190.73"/>
<polygon fill="black" stroke="black" points="185.43,-189.88 179.5,-181.1 178.66,-191.66 185.43,-189.88"/>
</g>
<!-- stream&#45;&gt;constraint -->
<g id="edge20" class="edge">
<title>stream&#45;&gt;constraint</title>
<path fill="none" stroke="black" d="M269.14,-295.66C260.71,-293.1 251.51,-290.38 243,-288 180.71,-270.6 141.68,-303.08 102,-252 54.28,-190.56 97.26,-91.93 122.56,-45.19"/>
<polygon fill="black" stroke="black" points="126,-47.21 127.81,-36.77 119.88,-43.81 126,-47.21"/>
</g>
<!-- stream&#45;&gt;funcs -->
<g id="edge22" class="edge">
<title>stream&#45;&gt;funcs</title>
<path fill="none" stroke="black" d="M302.29,-287.85C309.35,-250.99 326.03,-163.92 334.64,-118.96"/>
<polygon fill="black" stroke="black" points="338.25,-119.71 336.7,-109.23 331.38,-118.4 338.25,-119.71"/>
</g>
<!-- stream&#45;&gt;tuple -->
<g id="edge25" class="edge">
<title>stream&#45;&gt;tuple</title>
<path fill="none" stroke="black" d="M323.44,-292.49C358.02,-273.36 420.31,-233.39 450,-180 473.31,-138.1 475.36,-80.87 474.11,-47.13"/>
<polygon fill="black" stroke="black" points="477.56,-47.06 473.56,-37.25 470.57,-47.41 477.56,-47.06"/>
</g>
<!-- stream&#45;&gt;iter -->
<g id="edge23" class="edge">
<title>stream&#45;&gt;iter</title>
<path fill="none" stroke="black" d="M332.18,-298.79C375.97,-290.21 455.23,-273.34 521,-252 523.95,-251.04 527,-249.96 530.02,-248.83"/>
<polygon fill="black" stroke="black" points="531.1,-251.77 539.11,-244.83 528.53,-245.26 531.1,-251.77"/>
</g>
<!-- math -->
<g id="node13" class="node">
<title>math</title>
<ellipse fill="none" stroke="black" cx="251" cy="-234" rx="29.86" ry="18"/>
<text text-anchor="middle" x="251" y="-228.95" font-family="Times,serif" font-size="14.00">math</text>
</g>
<!-- stream&#45;&gt;math -->
<g id="edge24" class="edge">
<title>stream&#45;&gt;math</title>
<path fill="none" stroke="black" d="M287.87,-288.76C282.05,-280.28 274.8,-269.71 268.28,-260.2"/>
<polygon fill="black" stroke="black" points="270.61,-258.42 262.07,-252.15 264.84,-262.37 270.61,-258.42"/>
</g>
<!-- json/write -->
<g id="node11" class="node">
<title>json/write</title>
<ellipse fill="none" stroke="black" cx="186" cy="-306" rx="47.77" ry="18"/>
<text text-anchor="middle" x="186" y="-300.95" font-family="Times,serif" font-size="14.00">json/write</text>
</g>
<!-- json/write&#45;&gt;json -->
<g id="edge15" class="edge">
<title>json/write&#45;&gt;json</title>
<path fill="none" stroke="black" d="M155.72,-291.67C127.95,-279.44 86.98,-261.41 58.76,-248.98"/>
<polygon fill="black" stroke="black" points="60.55,-245.51 49.99,-244.68 57.73,-251.91 60.55,-245.51"/>
</g>
<!-- writer -->
<g id="node12" class="node">
<title>writer</title>
<ellipse fill="none" stroke="black" cx="408" cy="-162" rx="32.93" ry="18"/>
<text text-anchor="middle" x="408" y="-156.95" font-family="Times,serif" font-size="14.00">writer</text>
</g>
<!-- json/write&#45;&gt;writer -->
<g id="edge16" class="edge">
<title>json/write&#45;&gt;writer</title>
<path fill="none" stroke="black" d="M215.89,-291.48C237.1,-281.48 265.94,-267.04 290,-252 323.38,-231.13 359.12,-203.32 382.42,-184.37"/>
<polygon fill="black" stroke="black" points="384.19,-186.63 389.7,-177.58 379.75,-181.21 384.19,-186.63"/>
</g>
<!-- writer&#45;&gt;funcs -->
<g id="edge29" class="edge">
<title>writer&#45;&gt;funcs</title>
<path fill="none" stroke="black" d="M393.25,-145.81C384.16,-136.45 372.33,-124.28 362.13,-113.79"/>
<polygon fill="black" stroke="black" points="365.2,-111.89 355.73,-107.16 360.18,-116.77 365.2,-111.89"/>
</g>
<!-- writer&#45;&gt;tuple -->
<g id="edge30" class="edge">
<title>writer&#45;&gt;tuple</title>
<path fill="none" stroke="black" d="M415.59,-144.15C426.56,-119.81 446.96,-74.57 459.98,-45.67"/>
<polygon fill="black" stroke="black" points="463.5,-47.38 464.42,-36.82 457.12,-44.5 463.5,-47.38"/>
</g>
<!-- math&#45;&gt;conv -->
<g id="edge18" class="edge">
<title>math&#45;&gt;conv</title>
<path fill="none" stroke="black" d="M235.46,-218.5C225,-208.73 211.02,-195.69 199.25,-184.7"/>
<polygon fill="black" stroke="black" points="202.22,-182.75 192.52,-178.49 197.44,-187.87 202.22,-182.75"/>
</g>
<!-- math&#45;&gt;constraint -->
<g id="edge17" class="edge">
<title>math&#45;&gt;constraint</title>
<path fill="none" stroke="black" d="M258.28,-216.26C270.63,-185.01 291.63,-116.89 262,-72 246.41,-48.39 217.91,-35.26 192.16,-27.97"/>
<polygon fill="black" stroke="black" points="193.27,-24.39 182.71,-25.29 191.52,-31.17 193.27,-24.39"/>
</g>
<!-- math&#45;&gt;funcs -->
<g id="edge19" class="edge">
<title>math&#45;&gt;funcs</title>
<path fill="none" stroke="black" d="M261.49,-216.81C268.24,-206.34 277.19,-192.4 285,-180 298.39,-158.73 313.38,-134.45 324.32,-116.63"/>
<polygon fill="black" stroke="black" points="327.7,-118.81 329.95,-108.45 321.73,-115.15 327.7,-118.81"/>
</g>
<!-- util -->
<g id="node14" class="node">
<title>util</title>
<ellipse fill="none" stroke="black" cx="138" cy="-234" rx="27" ry="18"/>
<text text-anchor="middle" x="138" y="-228.95" font-family="Times,serif" font-size="14.00">util</text>
</g>
<!-- util&#45;&gt;conv -->
<g id="edge27" class="edge">
<title>util&#45;&gt;conv</title>
<path fill="none" stroke="black" d="M146.81,-216.76C151.32,-208.46 156.92,-198.15 162,-188.79"/>
<polygon fill="black" stroke="black" points="165.54,-190.61 167.23,-180.15 159.39,-187.27 165.54,-190.61"/>
</g>
<!-- util&#45;&gt;constraint -->
<g id="edge26" class="edge">
<title>util&#45;&gt;constraint</title>
<path fill="none" stroke="black" d="M138,-215.85C138,-178.99 138,-91.92 138,-46.96"/>
<polygon fill="black" stroke="black" points="141.5,-47.23 138,-37.23 134.5,-47.23 141.5,-47.23"/>
</g>
<!-- util&#45;&gt;funcs -->
<g id="edge28" class="edge">
<title>util&#45;&gt;funcs</title>
<path fill="none" stroke="black" d="M156.14,-220.39C171.55,-209.68 194.25,-193.86 214,-180 247.78,-156.29 286.54,-128.88 312.05,-110.82"/>
<polygon fill="black" stroke="black" points="313.68,-113.24 319.81,-104.61 309.63,-107.53 313.68,-113.24"/>
</g>
</g>
</svg>
