<?xml version="1.0" encoding="UTF-8" standalone="no"?>
<!DOCTYPE svg PUBLIC "-//W3C//DTD SVG 1.1//EN"
 "http://www.w3.org/Graphics/SVG/1.1/DTD/svg11.dtd">
<!-- Generated by graphviz version 9.0.0 (20230911.1827)
 -->
<!-- Title: dependencies Pages: 1 -->
<svg width="995pt" height="620pt"
 viewBox="0.00 0.00 995.05 620.00" xmlns="http://www.w3.org/2000/svg" xmlns:xlink="http://www.w3.org/1999/xlink">
<g id="graph0" class="graph" transform="scale(1 1) rotate(0) translate(4 616)">
<title>dependencies</title>
<polygon fill="white" stroke="none" points="-4,4 -4,-616 991.05,-616 991.05,4 -4,4"/>
<!-- encoding/json -->
<g id="node1" class="node">
<title>encoding/json</title>
<polygon fill="#87cefa" stroke="black" points="448.93,-396 357.18,-396 357.18,-360 448.93,-360 448.93,-396"/>
<text text-anchor="middle" x="403.05" y="-372.95" font-family="Times,serif" font-size="14.00">encoding/json</text>
</g>
<!-- tuple -->
<g id="node10" class="node">
<title>tuple</title>
<polygon fill="none" stroke="black" points="826.05,-36 772.05,-36 772.05,0 826.05,0 826.05,-36"/>
<text text-anchor="middle" x="799.05" y="-12.95" font-family="Times,serif" font-size="14.00">tuple</text>
</g>
<!-- encoding/json&#45;&gt;tuple -->
<g id="edge14" class="edge">
<title>encoding/json&#45;&gt;tuple</title>
<path fill="none" stroke="black" d="M436.47,-359.55C523.28,-314.11 749.96,-194.6 761.05,-180 790.74,-140.93 797.73,-82.3 799.09,-47.62"/>
<polygon fill="black" stroke="black" points="802.58,-48.02 799.33,-37.93 795.58,-47.84 802.58,-48.02"/>
</g>
<!-- union -->
<g id="node11" class="node">
<title>union</title>
<polygon fill="none" stroke="black" points="642.05,-324 588.05,-324 588.05,-288 642.05,-288 642.05,-324"/>
<text text-anchor="middle" x="615.05" y="-300.95" font-family="Times,serif" font-size="14.00">union</text>
</g>
<!-- encoding/json&#45;&gt;union -->
<g id="edge15" class="edge">
<title>encoding/json&#45;&gt;union</title>
<path fill="none" stroke="black" d="M449.31,-361.72C487.63,-349.07 541.4,-331.32 577.19,-319.5"/>
<polygon fill="black" stroke="black" points="577.84,-322.97 586.24,-316.51 575.65,-316.32 577.84,-322.97"/>
</g>
<!-- conv -->
<g id="node13" class="node">
<title>conv</title>
<polygon fill="none" stroke="black" points="281.05,-324 227.05,-324 227.05,-288 281.05,-288 281.05,-324"/>
<text text-anchor="middle" x="254.05" y="-300.95" font-family="Times,serif" font-size="14.00">conv</text>
</g>
<!-- encoding/json&#45;&gt;conv -->
<g id="edge12" class="edge">
<title>encoding/json&#45;&gt;conv</title>
<path fill="none" stroke="black" d="M365.89,-359.6C346.08,-350.32 321.07,-338.59 291.41,-324.63"/>
<polygon fill="black" stroke="black" points="293.08,-321.55 282.54,-320.46 290.1,-327.89 293.08,-321.55"/>
</g>
<!-- constraint -->
<g id="node14" class="node">
<title>constraint</title>
<polygon fill="none" stroke="black" points="148.68,-36 79.43,-36 79.43,0 148.68,0 148.68,-36"/>
<text text-anchor="middle" x="114.05" y="-12.95" font-family="Times,serif" font-size="14.00">constraint</text>
</g>
<!-- encoding/json&#45;&gt;constraint -->
<g id="edge11" class="edge">
<title>encoding/json&#45;&gt;constraint</title>
<path fill="none" stroke="black" d="M356.75,-375.13C315.51,-371.07 255.98,-359.02 218.05,-324 136.72,-248.91 118.98,-107.69 115.12,-47.42"/>
<polygon fill="black" stroke="black" points="118.63,-47.47 114.59,-37.68 111.64,-47.86 118.63,-47.47"/>
</g>
<!-- funcs -->
<g id="node15" class="node">
<title>funcs</title>
<polygon fill="none" stroke="black" points="492.05,-108 438.05,-108 438.05,-72 492.05,-72 492.05,-108"/>
<text text-anchor="middle" x="465.05" y="-84.95" font-family="Times,serif" font-size="14.00">funcs</text>
</g>
<!-- encoding/json&#45;&gt;funcs -->
<g id="edge13" class="edge">
<title>encoding/json&#45;&gt;funcs</title>
<path fill="none" stroke="black" d="M402.7,-359.76C402.43,-320.33 404.77,-221.04 432.05,-144 435.29,-134.85 440.31,-125.61 445.46,-117.47"/>
<polygon fill="black" stroke="black" points="448.19,-119.67 450.85,-109.42 442.38,-115.78 448.19,-119.67"/>
</g>
<!-- encoding/json/parse -->
<g id="node2" class="node">
<title>encoding/json/parse</title>
<polygon fill="#87cefa" stroke="black" points="453.05,-540 329.05,-540 329.05,-504 453.05,-504 453.05,-540"/>
<text text-anchor="middle" x="391.05" y="-516.95" font-family="Times,serif" font-size="14.00">encoding/json/parse</text>
</g>
<!-- encoding/json/parse&#45;&gt;encoding/json -->
<g id="edge16" class="edge">
<title>encoding/json/parse&#45;&gt;encoding/json</title>
<path fill="none" stroke="black" d="M386.39,-503.81C382.19,-485.79 377.33,-456.71 382.05,-432 383.67,-423.54 386.61,-414.71 389.79,-406.74"/>
<polygon fill="black" stroke="black" points="393,-408.13 393.74,-397.56 386.57,-405.36 393,-408.13"/>
</g>
<!-- stream -->
<g id="node6" class="node">
<title>stream</title>
<polygon fill="#87cefa" stroke="black" points="445.05,-468 391.05,-468 391.05,-432 445.05,-432 445.05,-468"/>
<text text-anchor="middle" x="418.05" y="-444.95" font-family="Times,serif" font-size="14.00">stream</text>
</g>
<!-- encoding/json/parse&#45;&gt;stream -->
<g id="edge19" class="edge">
<title>encoding/json/parse&#45;&gt;stream</title>
<path fill="none" stroke="black" d="M397.73,-503.7C400.64,-496.15 404.12,-487.12 407.37,-478.68"/>
<polygon fill="black" stroke="black" points="410.58,-480.11 410.91,-469.52 404.05,-477.59 410.58,-480.11"/>
</g>
<!-- iter -->
<g id="node7" class="node">
<title>iter</title>
<polygon fill="#e6e6fa" stroke="black" points="642.05,-396 588.05,-396 588.05,-360 642.05,-360 642.05,-396"/>
<text text-anchor="middle" x="615.05" y="-372.95" font-family="Times,serif" font-size="14.00">iter</text>
</g>
<!-- encoding/json/parse&#45;&gt;iter -->
<g id="edge18" class="edge">
<title>encoding/json/parse&#45;&gt;iter</title>
<path fill="none" stroke="black" d="M453.42,-512.2C506.26,-503.47 576.47,-488.44 596.05,-468 611.35,-452.03 615.6,-426.93 616.31,-407.44"/>
<polygon fill="black" stroke="black" points="619.81,-407.7 616.35,-397.68 612.81,-407.67 619.81,-407.7"/>
</g>
<!-- encoding/json/parse&#45;&gt;funcs -->
<g id="edge17" class="edge">
<title>encoding/json/parse&#45;&gt;funcs</title>
<path fill="none" stroke="black" d="M328.64,-514.04C272.35,-506.33 195.63,-491.74 177.05,-468 147.47,-430.2 171.03,-407.62 177.05,-360 189.61,-260.67 165.92,-210.19 241.05,-144 268.35,-119.95 370.1,-103.31 426.61,-95.69"/>
<polygon fill="black" stroke="black" points="426.98,-99.17 436.44,-94.4 426.07,-92.23 426.98,-99.17"/>
</g>
<!-- encoding/json/write -->
<g id="node3" class="node">
<title>encoding/json/write</title>
<polygon fill="#87cefa" stroke="black" points="586.68,-468 463.43,-468 463.43,-432 586.68,-432 586.68,-468"/>
<text text-anchor="middle" x="525.05" y="-444.95" font-family="Times,serif" font-size="14.00">encoding/json/write</text>
</g>
<!-- encoding/json/write&#45;&gt;encoding/json -->
<g id="edge20" class="edge">
<title>encoding/json/write&#45;&gt;encoding/json</title>
<path fill="none" stroke="black" d="M494.58,-431.52C478.89,-422.51 459.56,-411.42 442.72,-401.76"/>
<polygon fill="black" stroke="black" points="444.86,-398.95 434.45,-397.01 441.38,-405.03 444.86,-398.95"/>
</g>
<!-- io/writer -->
<g id="node9" class="node">
<title>io/writer</title>
<polygon fill="none" stroke="black" points="925.3,-252 862.8,-252 862.8,-216 925.3,-216 925.3,-252"/>
<text text-anchor="middle" x="894.05" y="-228.95" font-family="Times,serif" font-size="14.00">io/writer</text>
</g>
<!-- encoding/json/write&#45;&gt;io/writer -->
<g id="edge22" class="edge">
<title>encoding/json/write&#45;&gt;io/writer</title>
<path fill="none" stroke="black" d="M587.13,-446.62C670.18,-442.17 811.36,-429.74 849.05,-396 886.64,-362.35 893.93,-300.15 894.74,-263.7"/>
<polygon fill="black" stroke="black" points="898.24,-263.94 894.79,-253.92 891.24,-263.9 898.24,-263.94"/>
</g>
<!-- encoding/json/write&#45;&gt;funcs -->
<g id="edge21" class="edge">
<title>encoding/json/write&#45;&gt;funcs</title>
<path fill="none" stroke="black" d="M522.16,-431.73C512.55,-374.43 481.67,-190.18 469.78,-119.22"/>
<polygon fill="black" stroke="black" points="473.27,-118.87 468.17,-109.59 466.37,-120.03 473.27,-118.87"/>
</g>
<!-- event -->
<g id="node4" class="node">
<title>event</title>
<polygon fill="#87cefa" stroke="black" points="680.05,-180 626.05,-180 626.05,-144 680.05,-144 680.05,-180"/>
<text text-anchor="middle" x="653.05" y="-156.95" font-family="Times,serif" font-size="14.00">event</text>
</g>
<!-- event&#45;&gt;tuple -->
<g id="edge25" class="edge">
<title>event&#45;&gt;tuple</title>
<path fill="none" stroke="black" d="M670.95,-143.59C696.6,-118.65 743.92,-72.62 773.32,-44.03"/>
<polygon fill="black" stroke="black" points="775.65,-46.65 780.37,-37.17 770.76,-41.63 775.65,-46.65"/>
</g>
<!-- event&#45;&gt;constraint -->
<g id="edge23" class="edge">
<title>event&#45;&gt;constraint</title>
<path fill="none" stroke="black" d="M630,-143.55C601.39,-122.86 550.33,-89.04 501.05,-72 382.88,-31.14 234.17,-21.64 160.22,-19.53"/>
<polygon fill="black" stroke="black" points="160.61,-16.04 150.52,-19.29 160.43,-23.04 160.61,-16.04"/>
</g>
<!-- event&#45;&gt;funcs -->
<g id="edge24" class="edge">
<title>event&#45;&gt;funcs</title>
<path fill="none" stroke="black" d="M625.78,-149.48C621.21,-147.61 616.51,-145.73 612.05,-144 575.26,-129.75 532.84,-114.59 503.05,-104.15"/>
<polygon fill="black" stroke="black" points="504.31,-100.88 493.72,-100.89 502,-107.49 504.31,-100.88"/>
</g>
<!-- rest -->
<g id="node5" class="node">
<title>rest</title>
<polygon fill="#87cefa" stroke="black" points="752.05,-180 698.05,-180 698.05,-144 752.05,-144 752.05,-180"/>
<text text-anchor="middle" x="725.05" y="-156.95" font-family="Times,serif" font-size="14.00">rest</text>
</g>
<!-- rest&#45;&gt;tuple -->
<g id="edge39" class="edge">
<title>rest&#45;&gt;tuple</title>
<path fill="none" stroke="black" d="M732.29,-143.63C740.03,-125.46 752.98,-96.26 766.05,-72 770.73,-63.32 776.25,-54.11 781.43,-45.85"/>
<polygon fill="black" stroke="black" points="784.25,-47.93 786.67,-37.62 778.35,-44.17 784.25,-47.93"/>
</g>
<!-- rest&#45;&gt;funcs -->
<g id="edge38" class="edge">
<title>rest&#45;&gt;funcs</title>
<path fill="none" stroke="black" d="M697.78,-147.4C694.87,-146.17 691.92,-145 689.05,-144 625.56,-121.77 548.7,-105.86 503.52,-97.57"/>
<polygon fill="black" stroke="black" points="504.42,-94.17 493.96,-95.84 503.18,-101.06 504.42,-94.17"/>
</g>
<!-- stream&#45;&gt;iter -->
<g id="edge43" class="edge">
<title>stream&#45;&gt;iter</title>
<path fill="none" stroke="black" d="M445.42,-435.65C448.31,-434.37 451.23,-433.13 454.05,-432 495.25,-415.56 543.75,-400.11 576.67,-390.18"/>
<polygon fill="black" stroke="black" points="577.59,-393.55 586.17,-387.34 575.59,-386.85 577.59,-393.55"/>
</g>
<!-- stream&#45;&gt;tuple -->
<g id="edge45" class="edge">
<title>stream&#45;&gt;tuple</title>
<path fill="none" stroke="black" d="M445.27,-435.25C448.19,-434.04 451.16,-432.93 454.05,-432 538.79,-404.77 573.31,-439.34 651.05,-396 755.86,-337.57 779.71,-295.27 813.05,-180 826.43,-133.76 830.46,-119.2 821.05,-72 819.34,-63.4 816.2,-54.45 812.83,-46.41"/>
<polygon fill="black" stroke="black" points="816.11,-45.17 808.8,-37.5 809.73,-48.05 816.11,-45.17"/>
</g>
<!-- stream&#45;&gt;conv -->
<g id="edge41" class="edge">
<title>stream&#45;&gt;conv</title>
<path fill="none" stroke="black" d="M393.89,-431.72C380.16,-421.66 362.82,-408.52 348.05,-396 323.82,-375.46 297.69,-350.47 279.14,-332.2"/>
<polygon fill="black" stroke="black" points="281.83,-329.94 272.27,-325.39 276.91,-334.92 281.83,-329.94"/>
</g>
<!-- stream&#45;&gt;constraint -->
<g id="edge40" class="edge">
<title>stream&#45;&gt;constraint</title>
<path fill="none" stroke="black" d="M390.78,-446.6C334.3,-441.08 207.26,-425.62 177.05,-396 80.3,-301.14 97.81,-117.76 108.86,-47.42"/>
<polygon fill="black" stroke="black" points="112.26,-48.32 110.44,-37.88 105.35,-47.17 112.26,-48.32"/>
</g>
<!-- stream&#45;&gt;funcs -->
<g id="edge42" class="edge">
<title>stream&#45;&gt;funcs</title>
<path fill="none" stroke="black" d="M435.66,-431.56C444.13,-421.94 453.43,-409.28 458.05,-396 466.97,-370.35 466.09,-189.97 465.39,-119.3"/>
<polygon fill="black" stroke="black" points="468.89,-119.67 465.29,-109.7 461.89,-119.74 468.89,-119.67"/>
</g>
<!-- math -->
<g id="node19" class="node">
<title>math</title>
<polygon fill="none" stroke="black" points="240.05,-396 186.05,-396 186.05,-360 240.05,-360 240.05,-396"/>
<text text-anchor="middle" x="213.05" y="-372.95" font-family="Times,serif" font-size="14.00">math</text>
</g>
<!-- stream&#45;&gt;math -->
<g id="edge44" class="edge">
<title>stream&#45;&gt;math</title>
<path fill="none" stroke="black" d="M390.83,-439.7C354.99,-427.47 291.78,-405.88 251.19,-392.02"/>
<polygon fill="black" stroke="black" points="252.41,-388.74 241.82,-388.82 250.15,-395.37 252.41,-388.74"/>
</g>
<!-- iter&#45;&gt;tuple -->
<g id="edge32" class="edge">
<title>iter&#45;&gt;tuple</title>
<path fill="none" stroke="black" d="M639.34,-359.73C680.21,-329.03 761.48,-260.54 794.05,-180 811.7,-136.36 808.3,-80.5 803.9,-47.36"/>
<polygon fill="black" stroke="black" points="807.41,-47.13 802.49,-37.74 800.48,-48.14 807.41,-47.13"/>
</g>
<!-- iter&#45;&gt;union -->
<g id="edge33" class="edge">
<title>iter&#45;&gt;union</title>
<path fill="none" stroke="black" d="M615.05,-359.7C615.05,-352.41 615.05,-343.73 615.05,-335.54"/>
<polygon fill="black" stroke="black" points="618.55,-335.62 615.05,-325.62 611.55,-335.62 618.55,-335.62"/>
</g>
<!-- iter&#45;&gt;funcs -->
<g id="edge31" class="edge">
<title>iter&#45;&gt;funcs</title>
<path fill="none" stroke="black" d="M602.26,-359.82C595,-349.68 586,-336.43 579.05,-324 536.24,-247.43 539.33,-221.41 498.05,-144 493.41,-135.3 487.9,-126.08 482.72,-117.82"/>
<polygon fill="black" stroke="black" points="485.8,-116.14 477.47,-109.59 479.9,-119.91 485.8,-116.14"/>
</g>
<!-- code -->
<g id="node8" class="node">
<title>code</title>
<polygon fill="none" stroke="black" points="938.05,-540 884.05,-540 884.05,-504 938.05,-504 938.05,-540"/>
<text text-anchor="middle" x="911.05" y="-516.95" font-family="Times,serif" font-size="14.00">code</text>
</g>
<!-- code&#45;&gt;stream -->
<g id="edge3" class="edge">
<title>code&#45;&gt;stream</title>
<path fill="none" stroke="black" d="M883.67,-520.9C813.31,-520 620.77,-513.49 456.02,-468"/>
<polygon fill="black" stroke="black" points="457.24,-464.71 446.67,-465.36 455.34,-471.44 457.24,-464.71"/>
</g>
<!-- code&#45;&gt;iter -->
<g id="edge2" class="edge">
<title>code&#45;&gt;iter</title>
<path fill="none" stroke="black" d="M883.74,-507.9C830.54,-482.38 712.98,-425.98 652.54,-396.99"/>
<polygon fill="black" stroke="black" points="654.2,-393.9 643.67,-392.73 651.17,-400.21 654.2,-393.9"/>
</g>
<!-- code&#45;&gt;io/writer -->
<g id="edge1" class="edge">
<title>code&#45;&gt;io/writer</title>
<path fill="none" stroke="black" d="M911.66,-503.68C912.79,-464.9 914.33,-368.19 905.05,-288 904.11,-279.85 902.53,-271.09 900.86,-263.08"/>
<polygon fill="black" stroke="black" points="904.32,-262.54 898.73,-253.54 897.49,-264.06 904.32,-262.54"/>
</g>
<!-- code&#45;&gt;tuple -->
<g id="edge4" class="edge">
<title>code&#45;&gt;tuple</title>
<path fill="none" stroke="black" d="M927.54,-503.77C949.89,-478.53 987.05,-429.05 987.05,-379 987.05,-379 987.05,-379 987.05,-161 987.05,-86.57 892.07,-46.21 837.13,-29.09"/>
<polygon fill="black" stroke="black" points="838.42,-25.82 827.84,-26.31 836.42,-32.53 838.42,-25.82"/>
</g>
<!-- code&#45;&gt;union -->
<g id="edge5" class="edge">
<title>code&#45;&gt;union</title>
<path fill="none" stroke="black" d="M887.08,-503.67C834.43,-465.6 708.6,-374.64 648.34,-331.06"/>
<polygon fill="black" stroke="black" points="650.63,-328.4 640.47,-325.38 646.53,-334.08 650.63,-328.4"/>
</g>
<!-- io/writer&#45;&gt;tuple -->
<g id="edge30" class="edge">
<title>io/writer&#45;&gt;tuple</title>
<path fill="none" stroke="black" d="M895.58,-215.6C897.48,-184.45 897.6,-118.09 870.05,-72 861.88,-58.32 848.69,-47.04 835.89,-38.44"/>
<polygon fill="black" stroke="black" points="837.88,-35.56 827.55,-33.21 834.16,-41.49 837.88,-35.56"/>
</g>
<!-- io/writer&#45;&gt;funcs -->
<g id="edge29" class="edge">
<title>io/writer&#45;&gt;funcs</title>
<path fill="none" stroke="black" d="M862.56,-232.08C809.45,-229.44 699.77,-219.25 617.05,-180 594.53,-169.32 594.97,-157.55 574.05,-144 551.54,-129.42 524.42,-116.22 502.87,-106.64"/>
<polygon fill="black" stroke="black" points="504.42,-103.5 493.86,-102.71 501.62,-109.91 504.42,-103.5"/>
</g>
<!-- union&#45;&gt;funcs -->
<g id="edge46" class="edge">
<title>union&#45;&gt;funcs</title>
<path fill="none" stroke="black" d="M609.83,-287.87C599.66,-256.57 574.71,-189.19 536.05,-144 526.27,-132.56 513.59,-122.13 501.66,-113.6"/>
<polygon fill="black" stroke="black" points="503.8,-110.82 493.57,-108.04 499.83,-116.59 503.8,-110.82"/>
</g>
<!-- code/golang -->
<g id="node12" class="node">
<title>code/golang</title>
<polygon fill="none" stroke="black" points="952.05,-612 870.05,-612 870.05,-576 952.05,-576 952.05,-612"/>
<text text-anchor="middle" x="911.05" y="-588.95" font-family="Times,serif" font-size="14.00">code/golang</text>
</g>
<!-- code/golang&#45;&gt;code -->
<g id="edge6" class="edge">
<title>code/golang&#45;&gt;code</title>
<path fill="none" stroke="black" d="M911.05,-575.7C911.05,-568.41 911.05,-559.73 911.05,-551.54"/>
<polygon fill="black" stroke="black" points="914.55,-551.62 911.05,-541.62 907.55,-551.62 914.55,-551.62"/>
</g>
<!-- conv&#45;&gt;constraint -->
<g id="edge7" class="edge">
<title>conv&#45;&gt;constraint</title>
<path fill="none" stroke="black" d="M245.5,-287.54C221.97,-239.46 156.07,-104.83 127.52,-46.51"/>
<polygon fill="black" stroke="black" points="130.69,-45.03 123.15,-37.59 124.41,-48.11 130.69,-45.03"/>
</g>
<!-- conv&#45;&gt;funcs -->
<g id="edge8" class="edge">
<title>conv&#45;&gt;funcs</title>
<path fill="none" stroke="black" d="M253.45,-287.72C253.31,-254.29 258.21,-180.82 301.05,-144 336.79,-113.29 390.61,-100.31 426.74,-94.86"/>
<polygon fill="black" stroke="black" points="426.88,-98.38 436.31,-93.55 425.93,-91.44 426.88,-98.38"/>
</g>
<!-- reflect -->
<g id="node16" class="node">
<title>reflect</title>
<polygon fill="none" stroke="black" points="364.05,-180 310.05,-180 310.05,-144 364.05,-144 364.05,-180"/>
<text text-anchor="middle" x="337.05" y="-156.95" font-family="Times,serif" font-size="14.00">reflect</text>
</g>
<!-- conv&#45;&gt;reflect -->
<g id="edge9" class="edge">
<title>conv&#45;&gt;reflect</title>
<path fill="none" stroke="black" d="M257.7,-287.61C262.16,-268.91 270.9,-238.8 285.05,-216 291.27,-205.98 299.69,-196.35 307.94,-188.11"/>
<polygon fill="black" stroke="black" points="310.13,-190.86 314.95,-181.42 305.3,-185.8 310.13,-190.86"/>
</g>
<!-- union/reflect -->
<g id="node17" class="node">
<title>union/reflect</title>
<polygon fill="none" stroke="black" points="379.55,-252 294.55,-252 294.55,-216 379.55,-216 379.55,-252"/>
<text text-anchor="middle" x="337.05" y="-228.95" font-family="Times,serif" font-size="14.00">union/reflect</text>
</g>
<!-- conv&#45;&gt;union/reflect -->
<g id="edge10" class="edge">
<title>conv&#45;&gt;union/reflect</title>
<path fill="none" stroke="black" d="M274.57,-287.7C284.64,-279.2 296.96,-268.81 307.98,-259.51"/>
<polygon fill="black" stroke="black" points="309.94,-262.45 315.33,-253.32 305.43,-257.09 309.94,-262.45"/>
</g>
<!-- funcs&#45;&gt;tuple -->
<g id="edge27" class="edge">
<title>funcs&#45;&gt;tuple</title>
<path fill="none" stroke="black" d="M492.38,-83.27C551.74,-70.83 692.55,-41.32 760.73,-27.03"/>
<polygon fill="black" stroke="black" points="761.26,-30.5 770.33,-25.02 759.82,-23.65 761.26,-30.5"/>
</g>
<!-- funcs&#45;&gt;constraint -->
<g id="edge26" class="edge">
<title>funcs&#45;&gt;constraint</title>
<path fill="none" stroke="black" d="M437.8,-83.57C377.94,-71.63 234.42,-43.01 160.22,-28.21"/>
<polygon fill="black" stroke="black" points="160.91,-24.78 150.41,-26.25 159.54,-31.64 160.91,-24.78"/>
</g>
<!-- reflect&#45;&gt;funcs -->
<g id="edge37" class="edge">
<title>reflect&#45;&gt;funcs</title>
<path fill="none" stroke="black" d="M364.51,-145.98C382.99,-135.88 407.57,-122.43 427.81,-111.37"/>
<polygon fill="black" stroke="black" points="429.22,-114.59 436.31,-106.72 425.86,-108.45 429.22,-114.59"/>
</g>
<!-- union/reflect&#45;&gt;reflect -->
<g id="edge48" class="edge">
<title>union/reflect&#45;&gt;reflect</title>
<path fill="none" stroke="black" d="M337.05,-215.7C337.05,-208.41 337.05,-199.73 337.05,-191.54"/>
<polygon fill="black" stroke="black" points="340.55,-191.62 337.05,-181.62 333.55,-191.62 340.55,-191.62"/>
</g>
<!-- io -->
<g id="node18" class="node">
<title>io</title>
<polygon fill="none" stroke="black" points="240.05,-468 186.05,-468 186.05,-432 240.05,-432 240.05,-468"/>
<text text-anchor="middle" x="213.05" y="-444.95" font-family="Times,serif" font-size="14.00">io</text>
</g>
<!-- io&#45;&gt;math -->
<g id="edge28" class="edge">
<title>io&#45;&gt;math</title>
<path fill="none" stroke="black" d="M213.05,-431.7C213.05,-424.41 213.05,-415.73 213.05,-407.54"/>
<polygon fill="black" stroke="black" points="216.55,-407.62 213.05,-397.62 209.55,-407.62 216.55,-407.62"/>
</g>
<!-- math&#45;&gt;conv -->
<g id="edge35" class="edge">
<title>math&#45;&gt;conv</title>
<path fill="none" stroke="black" d="M223.19,-359.7C227.75,-351.9 233.25,-342.51 238.34,-333.83"/>
<polygon fill="black" stroke="black" points="241.23,-335.81 243.27,-325.41 235.19,-332.27 241.23,-335.81"/>
</g>
<!-- math&#45;&gt;constraint -->
<g id="edge34" class="edge">
<title>math&#45;&gt;constraint</title>
<path fill="none" stroke="black" d="M185.64,-372.08C128.11,-360 0.05,-323.22 0.05,-235 0.05,-235 0.05,-235 0.05,-161 0.05,-120.03 -0.77,-104.59 24.05,-72 35.61,-56.83 52.86,-45.18 69.18,-36.72"/>
<polygon fill="black" stroke="black" points="70.34,-40.04 77.79,-32.52 67.27,-33.75 70.34,-40.04"/>
</g>
<!-- math&#45;&gt;funcs -->
<g id="edge36" class="edge">
<title>math&#45;&gt;funcs</title>
<path fill="none" stroke="black" d="M211.52,-359.5C208.77,-315.87 208.24,-201.63 271.05,-144 313.97,-104.62 383.33,-94.06 426.45,-91.48"/>
<polygon fill="black" stroke="black" points="426.53,-94.98 436.36,-91.02 426.21,-87.99 426.53,-94.98"/>
</g>
<!-- union/conv -->
<g id="node20" class="node">
<title>union/conv</title>
<polygon fill="none" stroke="black" points="375.43,-324 298.68,-324 298.68,-288 375.43,-288 375.43,-324"/>
<text text-anchor="middle" x="337.05" y="-300.95" font-family="Times,serif" font-size="14.00">union/conv</text>
</g>
<!-- union/conv&#45;&gt;union/reflect -->
<g id="edge47" class="edge">
<title>union/conv&#45;&gt;union/reflect</title>
<path fill="none" stroke="black" d="M337.05,-287.7C337.05,-280.41 337.05,-271.73 337.05,-263.54"/>
<polygon fill="black" stroke="black" points="340.55,-263.62 337.05,-253.62 333.55,-263.62 340.55,-263.62"/>
</g>
</g>
</svg>
