<?xml version="1.0" encoding="UTF-8" standalone="no"?>
<!DOCTYPE svg PUBLIC "-//W3C//DTD SVG 1.1//EN"
 "http://www.w3.org/Graphics/SVG/1.1/DTD/svg11.dtd">
<!-- Generated by graphviz version 8.0.5 (20230430.1635)
 -->
<!-- Title: dependencies Pages: 1 -->
<svg width="291pt" height="188pt"
 viewBox="0.00 0.00 290.93 188.00" xmlns="http://www.w3.org/2000/svg" xmlns:xlink="http://www.w3.org/1999/xlink">
<g id="graph0" class="graph" transform="scale(1 1) rotate(0) translate(4 184)">
<title>dependencies</title>
<polygon fill="white" stroke="none" points="-4,4 -4,-184 286.93,-184 286.93,4 -4,4"/>
<!-- json/parse -->
<g id="node1" class="node">
<title>json/parse</title>
<ellipse fill="none" stroke="black" cx="91" cy="-162" rx="48.28" ry="18"/>
<text text-anchor="middle" x="91" y="-156.95" font-family="Times,serif" font-size="14.00">json/parse</text>
</g>
<!-- iter -->
<g id="node2" class="node">
<title>iter</title>
<ellipse fill="none" stroke="black" cx="27" cy="-18" rx="27" ry="18"/>
<text text-anchor="middle" x="27" y="-12.95" font-family="Times,serif" font-size="14.00">iter</text>
</g>
<!-- json/parse&#45;&gt;iter -->
<g id="edge1" class="edge">
<title>json/parse&#45;&gt;iter</title>
<path fill="none" stroke="black" d="M73.61,-144.9C64.07,-135.11 52.82,-121.86 46,-108 36.57,-88.84 31.8,-65.1 29.4,-46.96"/>
<polygon fill="black" stroke="black" points="32.79,-46.75 28.17,-37.21 25.83,-47.55 32.79,-46.75"/>
</g>
<!-- json -->
<g id="node3" class="node">
<title>json</title>
<ellipse fill="none" stroke="black" cx="172" cy="-90" rx="27" ry="18"/>
<text text-anchor="middle" x="172" y="-84.95" font-family="Times,serif" font-size="14.00">json</text>
</g>
<!-- json/parse&#45;&gt;json -->
<g id="edge2" class="edge">
<title>json/parse&#45;&gt;json</title>
<path fill="none" stroke="black" d="M109.38,-145.12C120.76,-135.28 135.49,-122.55 147.81,-111.9"/>
<polygon fill="black" stroke="black" points="149.61,-114.11 154.89,-104.93 145.03,-108.82 149.61,-114.11"/>
</g>
<!-- stream -->
<g id="node4" class="node">
<title>stream</title>
<ellipse fill="none" stroke="black" cx="91" cy="-90" rx="36" ry="18"/>
<text text-anchor="middle" x="91" y="-84.95" font-family="Times,serif" font-size="14.00">stream</text>
</g>
<!-- json/parse&#45;&gt;stream -->
<g id="edge3" class="edge">
<title>json/parse&#45;&gt;stream</title>
<path fill="none" stroke="black" d="M91,-143.7C91,-136.24 91,-127.32 91,-118.97"/>
<polygon fill="black" stroke="black" points="94.5,-119.1 91,-109.1 87.5,-119.1 94.5,-119.1"/>
</g>
<!-- stream&#45;&gt;iter -->
<g id="edge6" class="edge">
<title>stream&#45;&gt;iter</title>
<path fill="none" stroke="black" d="M76.48,-73.12C68.06,-63.91 57.33,-52.17 48,-41.97"/>
<polygon fill="black" stroke="black" points="50.92,-39.88 41.59,-34.86 45.75,-44.61 50.92,-39.88"/>
</g>
<!-- math -->
<g id="node7" class="node">
<title>math</title>
<ellipse fill="none" stroke="black" cx="102" cy="-18" rx="29.86" ry="18"/>
<text text-anchor="middle" x="102" y="-12.95" font-family="Times,serif" font-size="14.00">math</text>
</g>
<!-- stream&#45;&gt;math -->
<g id="edge7" class="edge">
<title>stream&#45;&gt;math</title>
<path fill="none" stroke="black" d="M93.72,-71.7C94.89,-64.24 96.29,-55.32 97.61,-46.97"/>
<polygon fill="black" stroke="black" points="101.22,-47.53 99.31,-37.1 94.3,-46.44 101.22,-47.53"/>
</g>
<!-- json/write -->
<g id="node5" class="node">
<title>json/write</title>
<ellipse fill="none" stroke="black" cx="227" cy="-162" rx="47.77" ry="18"/>
<text text-anchor="middle" x="227" y="-156.95" font-family="Times,serif" font-size="14.00">json/write</text>
</g>
<!-- json/write&#45;&gt;json -->
<g id="edge4" class="edge">
<title>json/write&#45;&gt;json</title>
<path fill="none" stroke="black" d="M213.97,-144.41C207.06,-135.62 198.45,-124.66 190.83,-114.96"/>
<polygon fill="black" stroke="black" points="193.12,-113.21 184.19,-107.51 187.61,-117.54 193.12,-113.21"/>
</g>
<!-- writer -->
<g id="node6" class="node">
<title>writer</title>
<ellipse fill="none" stroke="black" cx="250" cy="-90" rx="32.93" ry="18"/>
<text text-anchor="middle" x="250" y="-84.95" font-family="Times,serif" font-size="14.00">writer</text>
</g>
<!-- json/write&#45;&gt;writer -->
<g id="edge5" class="edge">
<title>json/write&#45;&gt;writer</title>
<path fill="none" stroke="black" d="M232.69,-143.7C235.19,-136.07 238.2,-126.92 241,-118.4"/>
<polygon fill="black" stroke="black" points="244.58,-119.7 244.38,-109.1 237.93,-117.51 244.58,-119.7"/>
</g>
</g>
</svg>
