<?xml version="1.0" encoding="UTF-8" standalone="no"?>
<!DOCTYPE svg PUBLIC "-//W3C//DTD SVG 1.1//EN"
 "http://www.w3.org/Graphics/SVG/1.1/DTD/svg11.dtd">
<!-- Generated by graphviz version 8.0.5 (20230430.1635)
 -->
<!-- Title: dependencies Pages: 1 -->
<svg width="788pt" height="404pt"
 viewBox="0.00 0.00 787.77 404.00" xmlns="http://www.w3.org/2000/svg" xmlns:xlink="http://www.w3.org/1999/xlink">
<g id="graph0" class="graph" transform="scale(1 1) rotate(0) translate(4 400)">
<title>dependencies</title>
<polygon fill="white" stroke="none" points="-4,4 -4,-400 783.77,-400 783.77,4 -4,4"/>
<!-- conv -->
<g id="node1" class="node">
<title>conv</title>
<ellipse fill="none" stroke="black" cx="171" cy="-162" rx="28.83" ry="18"/>
<text text-anchor="middle" x="171" y="-156.95" font-family="Times,serif" font-size="14.00">conv</text>
</g>
<!-- constraint -->
<g id="node2" class="node">
<title>constraint</title>
<ellipse fill="none" stroke="black" cx="228" cy="-18" rx="47.26" ry="18"/>
<text text-anchor="middle" x="228" y="-12.95" font-family="Times,serif" font-size="14.00">constraint</text>
</g>
<!-- conv&#45;&gt;constraint -->
<g id="edge1" class="edge">
<title>conv&#45;&gt;constraint</title>
<path fill="none" stroke="black" d="M177.76,-144.15C187.48,-119.94 205.5,-75.05 217.11,-46.13"/>
<polygon fill="black" stroke="black" points="220.59,-47.85 221.07,-37.27 214.1,-45.24 220.59,-47.85"/>
</g>
<!-- funcs -->
<g id="node3" class="node">
<title>funcs</title>
<ellipse fill="none" stroke="black" cx="361" cy="-90" rx="30.88" ry="18"/>
<text text-anchor="middle" x="361" y="-84.95" font-family="Times,serif" font-size="14.00">funcs</text>
</g>
<!-- conv&#45;&gt;funcs -->
<g id="edge2" class="edge">
<title>conv&#45;&gt;funcs</title>
<path fill="none" stroke="black" d="M195.45,-151.99C228.43,-139.84 287.4,-118.12 325.33,-104.14"/>
<polygon fill="black" stroke="black" points="326.26,-107.16 334.43,-100.42 323.84,-100.59 326.26,-107.16"/>
</g>
<!-- reflect -->
<g id="node4" class="node">
<title>reflect</title>
<ellipse fill="none" stroke="black" cx="147" cy="-90" rx="34.46" ry="18"/>
<text text-anchor="middle" x="147" y="-84.95" font-family="Times,serif" font-size="14.00">reflect</text>
</g>
<!-- conv&#45;&gt;reflect -->
<g id="edge3" class="edge">
<title>conv&#45;&gt;reflect</title>
<path fill="none" stroke="black" d="M165.19,-144.05C162.51,-136.23 159.26,-126.75 156.25,-117.98"/>
<polygon fill="black" stroke="black" points="159.31,-117.11 152.76,-108.79 152.69,-119.38 159.31,-117.11"/>
</g>
<!-- funcs&#45;&gt;constraint -->
<g id="edge16" class="edge">
<title>funcs&#45;&gt;constraint</title>
<path fill="none" stroke="black" d="M338.74,-77.28C318.46,-66.61 288.14,-50.65 264.35,-38.13"/>
<polygon fill="black" stroke="black" points="266.41,-34.73 255.93,-33.17 263.15,-40.93 266.41,-34.73"/>
</g>
<!-- tuple -->
<g id="node12" class="node">
<title>tuple</title>
<ellipse fill="none" stroke="black" cx="627" cy="-18" rx="29.34" ry="18"/>
<text text-anchor="middle" x="627" y="-12.95" font-family="Times,serif" font-size="14.00">tuple</text>
</g>
<!-- funcs&#45;&gt;tuple -->
<g id="edge17" class="edge">
<title>funcs&#45;&gt;tuple</title>
<path fill="none" stroke="black" d="M388.96,-81.64C437.13,-68.96 535.77,-43.01 589.72,-28.81"/>
<polygon fill="black" stroke="black" points="590.42,-31.98 599.2,-26.05 588.64,-25.21 590.42,-31.98"/>
</g>
<!-- encoding/json -->
<g id="node5" class="node">
<title>encoding/json</title>
<ellipse fill="none" stroke="black" cx="135" cy="-234" rx="62.61" ry="18"/>
<text text-anchor="middle" x="135" y="-228.95" font-family="Times,serif" font-size="14.00">encoding/json</text>
</g>
<!-- encoding/json&#45;&gt;conv -->
<g id="edge5" class="edge">
<title>encoding/json&#45;&gt;conv</title>
<path fill="none" stroke="black" d="M143.9,-215.7C148.01,-207.7 152.99,-198.02 157.55,-189.15"/>
<polygon fill="black" stroke="black" points="160.99,-191.12 162.45,-180.62 154.77,-187.91 160.99,-191.12"/>
</g>
<!-- encoding/json&#45;&gt;constraint -->
<g id="edge4" class="edge">
<title>encoding/json&#45;&gt;constraint</title>
<path fill="none" stroke="black" d="M124.23,-215.91C106.05,-184.66 74.05,-117.37 104,-72 119.59,-48.39 148.09,-35.26 173.84,-27.97"/>
<polygon fill="black" stroke="black" points="174.48,-31.17 183.29,-25.29 172.73,-24.39 174.48,-31.17"/>
</g>
<!-- encoding/json&#45;&gt;funcs -->
<g id="edge6" class="edge">
<title>encoding/json&#45;&gt;funcs</title>
<path fill="none" stroke="black" d="M160.05,-217.26C202.02,-190.89 286.36,-137.9 331.27,-109.68"/>
<polygon fill="black" stroke="black" points="332.88,-112.18 339.48,-103.89 329.15,-106.25 332.88,-112.18"/>
</g>
<!-- encoding/json/parse -->
<g id="node6" class="node">
<title>encoding/json/parse</title>
<ellipse fill="none" stroke="black" cx="504" cy="-378" rx="84.62" ry="18"/>
<text text-anchor="middle" x="504" y="-372.95" font-family="Times,serif" font-size="14.00">encoding/json/parse</text>
</g>
<!-- encoding/json/parse&#45;&gt;funcs -->
<g id="edge8" class="edge">
<title>encoding/json/parse&#45;&gt;funcs</title>
<path fill="none" stroke="black" d="M495.48,-359.97C471.43,-311.87 402.88,-174.77 374.04,-117.08"/>
<polygon fill="black" stroke="black" points="376.9,-115.97 369.29,-108.59 370.63,-119.1 376.9,-115.97"/>
</g>
<!-- encoding/json/parse&#45;&gt;encoding/json -->
<g id="edge7" class="edge">
<title>encoding/json/parse&#45;&gt;encoding/json</title>
<path fill="none" stroke="black" d="M419.18,-377.9C316.84,-376.95 153.66,-368.29 115,-324 100.01,-306.83 108.2,-280.84 118.24,-261.37"/>
<polygon fill="black" stroke="black" points="121.72,-263.3 123.54,-252.86 115.61,-259.89 121.72,-263.3"/>
</g>
<!-- iter -->
<g id="node7" class="node">
<title>iter</title>
<ellipse fill="none" stroke="black" cx="729" cy="-234" rx="27" ry="18"/>
<text text-anchor="middle" x="729" y="-228.95" font-family="Times,serif" font-size="14.00">iter</text>
</g>
<!-- encoding/json/parse&#45;&gt;iter -->
<g id="edge9" class="edge">
<title>encoding/json/parse&#45;&gt;iter</title>
<path fill="none" stroke="black" d="M530.25,-360.43C572.82,-333.57 656.57,-280.71 700.53,-252.97"/>
<polygon fill="black" stroke="black" points="702.19,-255.43 708.78,-247.13 698.46,-249.51 702.19,-255.43"/>
</g>
<!-- stream -->
<g id="node8" class="node">
<title>stream</title>
<ellipse fill="none" stroke="black" cx="536" cy="-306" rx="36" ry="18"/>
<text text-anchor="middle" x="536" y="-300.95" font-family="Times,serif" font-size="14.00">stream</text>
</g>
<!-- encoding/json/parse&#45;&gt;stream -->
<g id="edge10" class="edge">
<title>encoding/json/parse&#45;&gt;stream</title>
<path fill="none" stroke="black" d="M511.91,-359.7C515.53,-351.78 519.9,-342.23 523.91,-333.44"/>
<polygon fill="black" stroke="black" points="527.43,-335.17 528.4,-324.62 521.06,-332.26 527.43,-335.17"/>
</g>
<!-- iter&#45;&gt;funcs -->
<g id="edge21" class="edge">
<title>iter&#45;&gt;funcs</title>
<path fill="none" stroke="black" d="M702.05,-230.36C659.78,-225.36 576.21,-212.01 513,-180 490.76,-168.74 490.92,-157.55 470,-144 446.37,-128.69 417.66,-114.91 395.64,-105.24"/>
<polygon fill="black" stroke="black" points="397.3,-101.71 386.73,-100.96 394.52,-108.13 397.3,-101.71"/>
</g>
<!-- iter&#45;&gt;tuple -->
<g id="edge22" class="edge">
<title>iter&#45;&gt;tuple</title>
<path fill="none" stroke="black" d="M745.56,-219.64C756.21,-209.92 769.12,-195.75 775,-180 780.6,-165.01 781.74,-158.51 775,-144 751.24,-92.83 695.08,-55.06 659.18,-35.09"/>
<polygon fill="black" stroke="black" points="661.1,-31.6 650.63,-29.93 657.77,-37.76 661.1,-31.6"/>
</g>
<!-- union -->
<g id="node15" class="node">
<title>union</title>
<ellipse fill="none" stroke="black" cx="734" cy="-162" rx="31.9" ry="18"/>
<text text-anchor="middle" x="734" y="-156.95" font-family="Times,serif" font-size="14.00">union</text>
</g>
<!-- iter&#45;&gt;union -->
<g id="edge23" class="edge">
<title>iter&#45;&gt;union</title>
<path fill="none" stroke="black" d="M730.24,-215.7C730.77,-208.24 731.41,-199.32 732,-190.97"/>
<polygon fill="black" stroke="black" points="735.56,-191.33 732.78,-181.1 728.57,-190.83 735.56,-191.33"/>
</g>
<!-- stream&#45;&gt;conv -->
<g id="edge28" class="edge">
<title>stream&#45;&gt;conv</title>
<path fill="none" stroke="black" d="M503.05,-298.2C435.11,-284.16 285.51,-253.18 283,-252 247.87,-235.51 213.9,-205.99 192.76,-185.49"/>
<polygon fill="black" stroke="black" points="195.62,-183.4 186.05,-178.86 190.69,-188.38 195.62,-183.4"/>
</g>
<!-- stream&#45;&gt;constraint -->
<g id="edge27" class="edge">
<title>stream&#45;&gt;constraint</title>
<path fill="none" stroke="black" d="M553.94,-290.14C587.34,-260.66 652.58,-193.37 617,-144 577.16,-88.73 378.08,-46.02 281.17,-28.15"/>
<polygon fill="black" stroke="black" points="281.9,-24.54 271.43,-26.19 280.65,-31.43 281.9,-24.54"/>
</g>
<!-- stream&#45;&gt;funcs -->
<g id="edge29" class="edge">
<title>stream&#45;&gt;funcs</title>
<path fill="none" stroke="black" d="M527.68,-288.11C511.93,-257.2 475.39,-190.44 432,-144 419.88,-131.03 404.27,-118.99 390.77,-109.67"/>
<polygon fill="black" stroke="black" points="393.08,-106.34 382.83,-103.68 389.18,-112.15 393.08,-106.34"/>
</g>
<!-- stream&#45;&gt;iter -->
<g id="edge30" class="edge">
<title>stream&#45;&gt;iter</title>
<path fill="none" stroke="black" d="M565.61,-295.24C596.37,-284.96 645.83,-268.08 688,-252 690.74,-250.96 693.57,-249.85 696.41,-248.71"/>
<polygon fill="black" stroke="black" points="697.6,-251.6 705.54,-244.59 694.96,-245.12 697.6,-251.6"/>
</g>
<!-- stream&#45;&gt;tuple -->
<g id="edge32" class="edge">
<title>stream&#45;&gt;tuple</title>
<path fill="none" stroke="black" d="M563.42,-294.07C595.52,-280.99 644.97,-259.89 650,-252 693.02,-184.55 666.26,-150.33 650,-72 648.11,-62.88 644.56,-53.41 640.82,-45.04"/>
<polygon fill="black" stroke="black" points="643.55,-43.64 636.07,-36.13 637.23,-46.66 643.55,-43.64"/>
</g>
<!-- math -->
<g id="node14" class="node">
<title>math</title>
<ellipse fill="none" stroke="black" cx="322" cy="-234" rx="29.86" ry="18"/>
<text text-anchor="middle" x="322" y="-228.95" font-family="Times,serif" font-size="14.00">math</text>
</g>
<!-- stream&#45;&gt;math -->
<g id="edge31" class="edge">
<title>stream&#45;&gt;math</title>
<path fill="none" stroke="black" d="M506.69,-295.41C468.05,-282.77 400.06,-260.53 358.23,-246.85"/>
<polygon fill="black" stroke="black" points="359.53,-243.27 348.94,-243.49 357.36,-249.92 359.53,-243.27"/>
</g>
<!-- encoding/json/write -->
<g id="node9" class="node">
<title>encoding/json/write</title>
<ellipse fill="none" stroke="black" cx="360" cy="-306" rx="84.11" ry="18"/>
<text text-anchor="middle" x="360" y="-300.95" font-family="Times,serif" font-size="14.00">encoding/json/write</text>
</g>
<!-- encoding/json/write&#45;&gt;funcs -->
<g id="edge12" class="edge">
<title>encoding/json/write&#45;&gt;funcs</title>
<path fill="none" stroke="black" d="M360.41,-287.82C360.63,-277.44 360.89,-263.96 361,-252 361.44,-205.45 361.31,-151.33 361.16,-119.18"/>
<polygon fill="black" stroke="black" points="364.66,-119.38 361.11,-109.39 357.66,-119.41 364.66,-119.38"/>
</g>
<!-- encoding/json/write&#45;&gt;encoding/json -->
<g id="edge11" class="edge">
<title>encoding/json/write&#45;&gt;encoding/json</title>
<path fill="none" stroke="black" d="M313.65,-290.58C276.73,-279.09 225.06,-263.02 186.78,-251.11"/>
<polygon fill="black" stroke="black" points="187.95,-247.5 177.37,-247.87 185.87,-254.18 187.95,-247.5"/>
</g>
<!-- io/writer -->
<g id="node10" class="node">
<title>io/writer</title>
<ellipse fill="none" stroke="black" cx="565" cy="-162" rx="42.65" ry="18"/>
<text text-anchor="middle" x="565" y="-156.95" font-family="Times,serif" font-size="14.00">io/writer</text>
</g>
<!-- encoding/json/write&#45;&gt;io/writer -->
<g id="edge13" class="edge">
<title>encoding/json/write&#45;&gt;io/writer</title>
<path fill="none" stroke="black" d="M383.92,-288.43C421.25,-262.57 493.34,-212.64 534.41,-184.19"/>
<polygon fill="black" stroke="black" points="536.18,-186.53 542.41,-177.96 532.19,-180.77 536.18,-186.53"/>
</g>
<!-- io/writer&#45;&gt;funcs -->
<g id="edge19" class="edge">
<title>io/writer&#45;&gt;funcs</title>
<path fill="none" stroke="black" d="M532.68,-149.91C495.91,-137.29 436.01,-116.74 397.57,-103.55"/>
<polygon fill="black" stroke="black" points="398.93,-99.97 388.33,-100.04 396.66,-106.59 398.93,-99.97"/>
</g>
<!-- io/writer&#45;&gt;tuple -->
<g id="edge20" class="edge">
<title>io/writer&#45;&gt;tuple</title>
<path fill="none" stroke="black" d="M572.48,-143.87C583.15,-119.43 602.84,-74.33 615.41,-45.55"/>
<polygon fill="black" stroke="black" points="618.89,-47.31 619.69,-36.75 612.48,-44.51 618.89,-47.31"/>
</g>
<!-- event -->
<g id="node11" class="node">
<title>event</title>
<ellipse fill="none" stroke="black" cx="155" cy="-306" rx="30.88" ry="18"/>
<text text-anchor="middle" x="155" y="-300.95" font-family="Times,serif" font-size="14.00">event</text>
</g>
<!-- event&#45;&gt;funcs -->
<g id="edge15" class="edge">
<title>event&#45;&gt;funcs</title>
<path fill="none" stroke="black" d="M169.62,-290.2C180.07,-279.6 194.44,-264.96 207,-252 254.43,-203.04 309.55,-145.18 339.29,-113.88"/>
<polygon fill="black" stroke="black" points="341.28,-116.82 345.63,-107.16 336.2,-112 341.28,-116.82"/>
</g>
<!-- event&#45;&gt;encoding/json -->
<g id="edge14" class="edge">
<title>event&#45;&gt;encoding/json</title>
<path fill="none" stroke="black" d="M150.16,-288.05C147.98,-280.43 145.35,-271.23 142.9,-262.65"/>
<polygon fill="black" stroke="black" points="146.05,-261.93 139.94,-253.28 139.32,-263.85 146.05,-261.93"/>
</g>
<!-- io -->
<g id="node13" class="node">
<title>io</title>
<ellipse fill="none" stroke="black" cx="231" cy="-306" rx="27" ry="18"/>
<text text-anchor="middle" x="231" y="-300.95" font-family="Times,serif" font-size="14.00">io</text>
</g>
<!-- io&#45;&gt;math -->
<g id="edge18" class="edge">
<title>io&#45;&gt;math</title>
<path fill="none" stroke="black" d="M248.12,-291.83C261.46,-281.57 280.22,-267.14 295.5,-255.38"/>
<polygon fill="black" stroke="black" points="297.23,-257.7 303.03,-248.83 292.97,-252.15 297.23,-257.7"/>
</g>
<!-- math&#45;&gt;conv -->
<g id="edge25" class="edge">
<title>math&#45;&gt;conv</title>
<path fill="none" stroke="black" d="M298.74,-222.22C273.24,-210.4 232.17,-191.35 203.5,-178.07"/>
<polygon fill="black" stroke="black" points="205.09,-174.48 194.55,-173.45 202.15,-180.83 205.09,-174.48"/>
</g>
<!-- math&#45;&gt;constraint -->
<g id="edge24" class="edge">
<title>math&#45;&gt;constraint</title>
<path fill="none" stroke="black" d="M314.62,-216.21C298.4,-179.26 259.48,-90.67 239.81,-45.89"/>
<polygon fill="black" stroke="black" points="242.7,-44.76 235.47,-37.01 236.29,-47.57 242.7,-44.76"/>
</g>
<!-- math&#45;&gt;funcs -->
<g id="edge26" class="edge">
<title>math&#45;&gt;funcs</title>
<path fill="none" stroke="black" d="M326.7,-215.87C333.32,-191.78 345.45,-147.6 353.37,-118.77"/>
<polygon fill="black" stroke="black" points="357.01,-119.76 356.28,-109.19 350.26,-117.91 357.01,-119.76"/>
</g>
<!-- util -->
<g id="node16" class="node">
<title>util</title>
<ellipse fill="none" stroke="black" cx="27" cy="-234" rx="27" ry="18"/>
<text text-anchor="middle" x="27" y="-228.95" font-family="Times,serif" font-size="14.00">util</text>
</g>
<!-- util&#45;&gt;conv -->
<g id="edge34" class="edge">
<title>util&#45;&gt;conv</title>
<path fill="none" stroke="black" d="M48.56,-222.52C72.6,-210.84 111.71,-191.82 139.25,-178.44"/>
<polygon fill="black" stroke="black" points="140.36,-181.3 147.82,-173.78 137.3,-175.01 140.36,-181.3"/>
</g>
<!-- util&#45;&gt;constraint -->
<g id="edge33" class="edge">
<title>util&#45;&gt;constraint</title>
<path fill="none" stroke="black" d="M28.89,-215.71C33.32,-183.22 47.31,-112.68 88,-72 111.16,-48.84 145.45,-35.64 174.29,-28.21"/>
<polygon fill="black" stroke="black" points="174.74,-31.46 183.64,-25.72 173.1,-24.65 174.74,-31.46"/>
</g>
<!-- util&#45;&gt;funcs -->
<g id="edge35" class="edge">
<title>util&#45;&gt;funcs</title>
<path fill="none" stroke="black" d="M40.5,-217.9C59.25,-197.88 95.17,-162.9 133,-144 193.75,-113.64 272.33,-100.34 319.59,-94.75"/>
<polygon fill="black" stroke="black" points="319.78,-98.14 329.33,-93.55 319,-91.19 319.78,-98.14"/>
</g>
</g>
</svg>
