<?xml version="1.0" encoding="UTF-8" standalone="no"?>
<!DOCTYPE svg PUBLIC "-//W3C//DTD SVG 1.1//EN"
 "http://www.w3.org/Graphics/SVG/1.1/DTD/svg11.dtd">
<!-- Generated by graphviz version 9.0.0 (20230911.1827)
 -->
<!-- Title: dependencies Pages: 1 -->
<svg width="846pt" height="548pt"
 viewBox="0.00 0.00 846.25 548.00" xmlns="http://www.w3.org/2000/svg" xmlns:xlink="http://www.w3.org/1999/xlink">
<g id="graph0" class="graph" transform="scale(1 1) rotate(0) translate(4 544)">
<title>dependencies</title>
<polygon fill="white" stroke="none" points="-4,4 -4,-544 842.25,-544 842.25,4 -4,4"/>
<!-- encoding/json -->
<g id="node1" class="node">
<title>encoding/json</title>
<polygon fill="#87cefa" stroke="black" points="399.12,-396 307.38,-396 307.38,-360 399.12,-360 399.12,-396"/>
<text text-anchor="middle" x="353.25" y="-372.95" font-family="Times,serif" font-size="14.00">encoding/json</text>
</g>
<!-- conv -->
<g id="node8" class="node">
<title>conv</title>
<polygon fill="none" stroke="black" points="623.25,-324 569.25,-324 569.25,-288 623.25,-288 623.25,-324"/>
<text text-anchor="middle" x="596.25" y="-300.95" font-family="Times,serif" font-size="14.00">conv</text>
</g>
<!-- encoding/json&#45;&gt;conv -->
<g id="edge5" class="edge">
<title>encoding/json&#45;&gt;conv</title>
<path fill="none" stroke="black" d="M399.53,-363.67C445.54,-350.41 515.28,-330.32 558.18,-317.97"/>
<polygon fill="black" stroke="black" points="558.91,-321.4 567.55,-315.27 556.97,-314.67 558.91,-321.4"/>
</g>
<!-- constraint -->
<g id="node9" class="node">
<title>constraint</title>
<polygon fill="none" stroke="black" points="777.88,-36 708.62,-36 708.62,0 777.88,0 777.88,-36"/>
<text text-anchor="middle" x="743.25" y="-12.95" font-family="Times,serif" font-size="14.00">constraint</text>
</g>
<!-- encoding/json&#45;&gt;constraint -->
<g id="edge4" class="edge">
<title>encoding/json&#45;&gt;constraint</title>
<path fill="none" stroke="black" d="M394.02,-359.52C477.86,-322.76 665.14,-236.23 705.25,-180 733.75,-140.05 741.13,-81.71 742.89,-47.33"/>
<polygon fill="black" stroke="black" points="746.37,-47.87 743.25,-37.74 739.38,-47.61 746.37,-47.87"/>
</g>
<!-- funcs -->
<g id="node10" class="node">
<title>funcs</title>
<polygon fill="none" stroke="black" points="444.25,-108 390.25,-108 390.25,-72 444.25,-72 444.25,-108"/>
<text text-anchor="middle" x="417.25" y="-84.95" font-family="Times,serif" font-size="14.00">funcs</text>
</g>
<!-- encoding/json&#45;&gt;funcs -->
<g id="edge6" class="edge">
<title>encoding/json&#45;&gt;funcs</title>
<path fill="none" stroke="black" d="M353.63,-359.84C354.62,-330.15 358.08,-267.42 370.25,-216 378.4,-181.57 393.54,-143.76 404.43,-118.84"/>
<polygon fill="black" stroke="black" points="407.62,-120.3 408.49,-109.74 401.22,-117.45 407.62,-120.3"/>
</g>
<!-- tuple -->
<g id="node12" class="node">
<title>tuple</title>
<polygon fill="none" stroke="black" points="210.25,-36 156.25,-36 156.25,0 210.25,0 210.25,-36"/>
<text text-anchor="middle" x="183.25" y="-12.95" font-family="Times,serif" font-size="14.00">tuple</text>
</g>
<!-- encoding/json&#45;&gt;tuple -->
<g id="edge7" class="edge">
<title>encoding/json&#45;&gt;tuple</title>
<path fill="none" stroke="black" d="M323.19,-359.61C275.28,-329.93 183.32,-264.41 147.25,-180 128.05,-135.08 150.41,-78.56 167.48,-45.83"/>
<polygon fill="black" stroke="black" points="170.35,-47.87 172.05,-37.41 164.2,-44.53 170.35,-47.87"/>
</g>
<!-- union -->
<g id="node13" class="node">
<title>union</title>
<polygon fill="none" stroke="black" points="472.25,-180 418.25,-180 418.25,-144 472.25,-144 472.25,-180"/>
<text text-anchor="middle" x="445.25" y="-156.95" font-family="Times,serif" font-size="14.00">union</text>
</g>
<!-- encoding/json&#45;&gt;union -->
<g id="edge8" class="edge">
<title>encoding/json&#45;&gt;union</title>
<path fill="none" stroke="black" d="M370.59,-359.87C392.03,-337.39 427.48,-295.66 442.25,-252 448.81,-232.6 449.39,-209.46 448.41,-191.63"/>
<polygon fill="black" stroke="black" points="451.91,-191.47 447.66,-181.76 444.93,-192 451.91,-191.47"/>
</g>
<!-- encoding/json/parse -->
<g id="node2" class="node">
<title>encoding/json/parse</title>
<polygon fill="#87cefa" stroke="black" points="470.25,-540 346.25,-540 346.25,-504 470.25,-504 470.25,-540"/>
<text text-anchor="middle" x="408.25" y="-516.95" font-family="Times,serif" font-size="14.00">encoding/json/parse</text>
</g>
<!-- encoding/json/parse&#45;&gt;encoding/json -->
<g id="edge9" class="edge">
<title>encoding/json/parse&#45;&gt;encoding/json</title>
<path fill="none" stroke="black" d="M401.51,-503.59C392.14,-479.4 375.08,-435.36 363.96,-406.65"/>
<polygon fill="black" stroke="black" points="367.3,-405.58 360.42,-397.52 360.77,-408.11 367.3,-405.58"/>
</g>
<!-- stream -->
<g id="node6" class="node">
<title>stream</title>
<polygon fill="#87cefa" stroke="black" points="568.25,-468 514.25,-468 514.25,-432 568.25,-432 568.25,-468"/>
<text text-anchor="middle" x="541.25" y="-444.95" font-family="Times,serif" font-size="14.00">stream</text>
</g>
<!-- encoding/json/parse&#45;&gt;stream -->
<g id="edge12" class="edge">
<title>encoding/json/parse&#45;&gt;stream</title>
<path fill="none" stroke="black" d="M441.47,-503.52C460.38,-493.56 484.14,-481.06 503.72,-470.75"/>
<polygon fill="black" stroke="black" points="505.27,-473.89 512.49,-466.14 502.01,-467.7 505.27,-473.89"/>
</g>
<!-- iter -->
<g id="node7" class="node">
<title>iter</title>
<polygon fill="#e6e6fa" stroke="black" points="433.25,-252 379.25,-252 379.25,-216 433.25,-216 433.25,-252"/>
<text text-anchor="middle" x="406.25" y="-228.95" font-family="Times,serif" font-size="14.00">iter</text>
</g>
<!-- encoding/json/parse&#45;&gt;iter -->
<g id="edge11" class="edge">
<title>encoding/json/parse&#45;&gt;iter</title>
<path fill="none" stroke="black" d="M408.34,-503.61C408.48,-474.08 408.67,-412.27 408.25,-360 407.99,-326.99 407.33,-289.07 406.84,-263.74"/>
<polygon fill="black" stroke="black" points="410.34,-263.83 406.65,-253.9 403.34,-263.97 410.34,-263.83"/>
</g>
<!-- encoding/json/parse&#45;&gt;funcs -->
<g id="edge10" class="edge">
<title>encoding/json/parse&#45;&gt;funcs</title>
<path fill="none" stroke="black" d="M385.22,-503.72C358.41,-482.01 315.6,-441.98 298.25,-396 292.6,-381.03 295.49,-375.76 298.25,-360 315.85,-259.46 327.09,-233.45 376.25,-144 381.38,-134.67 388.08,-125.23 394.58,-116.96"/>
<polygon fill="black" stroke="black" points="397.17,-119.32 400.77,-109.36 391.74,-114.9 397.17,-119.32"/>
</g>
<!-- encoding/json/write -->
<g id="node3" class="node">
<title>encoding/json/write</title>
<polygon fill="#87cefa" stroke="black" points="208.88,-468 85.62,-468 85.62,-432 208.88,-432 208.88,-468"/>
<text text-anchor="middle" x="147.25" y="-444.95" font-family="Times,serif" font-size="14.00">encoding/json/write</text>
</g>
<!-- encoding/json/write&#45;&gt;encoding/json -->
<g id="edge13" class="edge">
<title>encoding/json/write&#45;&gt;encoding/json</title>
<path fill="none" stroke="black" d="M198.7,-431.52C228.44,-421.41 265.91,-408.68 296.51,-398.28"/>
<polygon fill="black" stroke="black" points="297.24,-401.73 305.59,-395.2 294.99,-395.1 297.24,-401.73"/>
</g>
<!-- encoding/json/write&#45;&gt;funcs -->
<g id="edge14" class="edge">
<title>encoding/json/write&#45;&gt;funcs</title>
<path fill="none" stroke="black" d="M148.71,-431.74C153.99,-380.42 176.52,-227.11 262.25,-144 293.9,-113.32 344.03,-100.36 378.67,-94.91"/>
<polygon fill="black" stroke="black" points="378.87,-98.42 388.28,-93.55 377.89,-91.49 378.87,-98.42"/>
</g>
<!-- io/writer -->
<g id="node14" class="node">
<title>io/writer</title>
<polygon fill="none" stroke="black" points="62.5,-180 0,-180 0,-144 62.5,-144 62.5,-180"/>
<text text-anchor="middle" x="31.25" y="-156.95" font-family="Times,serif" font-size="14.00">io/writer</text>
</g>
<!-- encoding/json/write&#45;&gt;io/writer -->
<g id="edge15" class="edge">
<title>encoding/json/write&#45;&gt;io/writer</title>
<path fill="none" stroke="black" d="M140.17,-431.54C120.71,-383.56 66.29,-249.39 42.56,-190.88"/>
<polygon fill="black" stroke="black" points="45.81,-189.59 38.81,-181.63 39.32,-192.22 45.81,-189.59"/>
</g>
<!-- event -->
<g id="node4" class="node">
<title>event</title>
<polygon fill="#87cefa" stroke="black" points="696.25,-180 642.25,-180 642.25,-144 696.25,-144 696.25,-180"/>
<text text-anchor="middle" x="669.25" y="-156.95" font-family="Times,serif" font-size="14.00">event</text>
</g>
<!-- event&#45;&gt;constraint -->
<g id="edge16" class="edge">
<title>event&#45;&gt;constraint</title>
<path fill="none" stroke="black" d="M676.49,-143.63C684.23,-125.46 697.18,-96.26 710.25,-72 714.93,-63.32 720.45,-54.11 725.63,-45.85"/>
<polygon fill="black" stroke="black" points="728.45,-47.93 730.87,-37.62 722.55,-44.17 728.45,-47.93"/>
</g>
<!-- event&#45;&gt;funcs -->
<g id="edge17" class="edge">
<title>event&#45;&gt;funcs</title>
<path fill="none" stroke="black" d="M642.11,-149.09C637.53,-147.27 632.79,-145.5 628.25,-144 568.96,-124.38 498.24,-108 455.59,-98.85"/>
<polygon fill="black" stroke="black" points="456.58,-95.48 446.07,-96.84 455.13,-102.33 456.58,-95.48"/>
</g>
<!-- event&#45;&gt;tuple -->
<g id="edge18" class="edge">
<title>event&#45;&gt;tuple</title>
<path fill="none" stroke="black" d="M641.91,-149.65C637.35,-147.76 632.67,-145.82 628.25,-144 550.52,-111.89 533.79,-96.22 453.25,-72 372.44,-47.7 274.6,-31.7 221.71,-24.12"/>
<polygon fill="black" stroke="black" points="222.39,-20.68 212,-22.75 221.42,-27.61 222.39,-20.68"/>
</g>
<!-- rest -->
<g id="node5" class="node">
<title>rest</title>
<polygon fill="#87cefa" stroke="black" points="210.25,-180 156.25,-180 156.25,-144 210.25,-144 210.25,-180"/>
<text text-anchor="middle" x="183.25" y="-156.95" font-family="Times,serif" font-size="14.00">rest</text>
</g>
<!-- rest&#45;&gt;funcs -->
<g id="edge32" class="edge">
<title>rest&#45;&gt;funcs</title>
<path fill="none" stroke="black" d="M210.41,-149.18C215,-147.35 219.73,-145.55 224.25,-144 276.93,-125.92 339.31,-109.7 378.59,-100.1"/>
<polygon fill="black" stroke="black" points="379.39,-103.51 388.28,-97.76 377.74,-96.71 379.39,-103.51"/>
</g>
<!-- rest&#45;&gt;tuple -->
<g id="edge33" class="edge">
<title>rest&#45;&gt;tuple</title>
<path fill="none" stroke="black" d="M183.25,-143.59C183.25,-119.61 183.25,-76.14 183.25,-47.42"/>
<polygon fill="black" stroke="black" points="186.75,-47.62 183.25,-37.62 179.75,-47.62 186.75,-47.62"/>
</g>
<!-- stream&#45;&gt;iter -->
<g id="edge37" class="edge">
<title>stream&#45;&gt;iter</title>
<path fill="none" stroke="black" d="M530.61,-431.51C512.5,-401.84 474.44,-339.81 441.25,-288 435.69,-279.32 429.53,-269.92 423.94,-261.48"/>
<polygon fill="black" stroke="black" points="427.01,-259.76 418.56,-253.37 421.17,-263.63 427.01,-259.76"/>
</g>
<!-- stream&#45;&gt;conv -->
<g id="edge35" class="edge">
<title>stream&#45;&gt;conv</title>
<path fill="none" stroke="black" d="M547.99,-431.59C557.36,-407.4 574.42,-363.36 585.54,-334.65"/>
<polygon fill="black" stroke="black" points="588.73,-336.11 589.08,-325.52 582.2,-333.58 588.73,-336.11"/>
</g>
<!-- stream&#45;&gt;constraint -->
<g id="edge34" class="edge">
<title>stream&#45;&gt;constraint</title>
<path fill="none" stroke="black" d="M568.66,-442.16C642.18,-423.03 838.25,-366.44 838.25,-307 838.25,-307 838.25,-307 838.25,-161 838.25,-113.42 800.95,-69.72 773.1,-43.71"/>
<polygon fill="black" stroke="black" points="775.7,-41.34 765.93,-37.24 771.01,-46.54 775.7,-41.34"/>
</g>
<!-- stream&#45;&gt;funcs -->
<g id="edge36" class="edge">
<title>stream&#45;&gt;funcs</title>
<path fill="none" stroke="black" d="M539.41,-431.87C533.07,-375.1 510.91,-193.86 481.25,-144 474.35,-132.4 463.94,-122.19 453.51,-113.92"/>
<polygon fill="black" stroke="black" points="455.75,-111.23 445.64,-108.06 451.57,-116.84 455.75,-111.23"/>
</g>
<!-- stream&#45;&gt;tuple -->
<g id="edge39" class="edge">
<title>stream&#45;&gt;tuple</title>
<path fill="none" stroke="black" d="M513.98,-449.31C466.25,-448.57 366.17,-441.25 298.25,-396 200.77,-331.05 182.43,-291.72 147.25,-180 132.72,-133.86 153.04,-78.52 168.54,-46.2"/>
<polygon fill="black" stroke="black" points="171.54,-48.04 172.88,-37.53 165.28,-44.9 171.54,-48.04"/>
</g>
<!-- math -->
<g id="node16" class="node">
<title>math</title>
<polygon fill="none" stroke="black" points="673.25,-396 619.25,-396 619.25,-360 673.25,-360 673.25,-396"/>
<text text-anchor="middle" x="646.25" y="-372.95" font-family="Times,serif" font-size="14.00">math</text>
</g>
<!-- stream&#45;&gt;math -->
<g id="edge38" class="edge">
<title>stream&#45;&gt;math</title>
<path fill="none" stroke="black" d="M567.48,-431.52C580.6,-422.76 596.68,-412.04 610.89,-402.58"/>
<polygon fill="black" stroke="black" points="612.72,-405.56 619.1,-397.1 608.84,-399.73 612.72,-405.56"/>
</g>
<!-- iter&#45;&gt;funcs -->
<g id="edge24" class="edge">
<title>iter&#45;&gt;funcs</title>
<path fill="none" stroke="black" d="M406.24,-215.57C406.37,-197.6 406.97,-168.79 409.25,-144 409.99,-136 411.14,-127.37 412.34,-119.44"/>
<polygon fill="black" stroke="black" points="415.78,-120.05 413.91,-109.62 408.87,-118.94 415.78,-120.05"/>
</g>
<!-- iter&#45;&gt;tuple -->
<g id="edge25" class="edge">
<title>iter&#45;&gt;tuple</title>
<path fill="none" stroke="black" d="M388.38,-215.85C349.15,-178.21 255.36,-88.2 209.46,-44.15"/>
<polygon fill="black" stroke="black" points="211.94,-41.68 202.3,-37.28 207.09,-46.73 211.94,-41.68"/>
</g>
<!-- iter&#45;&gt;union -->
<g id="edge26" class="edge">
<title>iter&#45;&gt;union</title>
<path fill="none" stroke="black" d="M415.89,-215.7C420.19,-207.98 425.35,-198.71 430.14,-190.11"/>
<polygon fill="black" stroke="black" points="433.17,-191.87 434.98,-181.43 427.06,-188.46 433.17,-191.87"/>
</g>
<!-- conv&#45;&gt;constraint -->
<g id="edge1" class="edge">
<title>conv&#45;&gt;constraint</title>
<path fill="none" stroke="black" d="M623.68,-300.78C652.3,-294.91 696.4,-281.46 721.25,-252 770.4,-193.74 759.33,-95.74 749.9,-47.53"/>
<polygon fill="black" stroke="black" points="753.36,-46.96 747.89,-37.89 746.51,-48.39 753.36,-46.96"/>
</g>
<!-- conv&#45;&gt;funcs -->
<g id="edge2" class="edge">
<title>conv&#45;&gt;funcs</title>
<path fill="none" stroke="black" d="M598.09,-287.71C599.4,-269.36 599.68,-239.77 591.25,-216 578.06,-178.8 570.36,-168.29 539.25,-144 508.08,-119.66 491.23,-124.95 454.95,-110.29"/>
<polygon fill="black" stroke="black" points="456.69,-107.23 446.12,-106.45 453.9,-113.65 456.69,-107.23"/>
</g>
<!-- reflect -->
<g id="node11" class="node">
<title>reflect</title>
<polygon fill="none" stroke="black" points="582.25,-252 528.25,-252 528.25,-216 582.25,-216 582.25,-252"/>
<text text-anchor="middle" x="555.25" y="-228.95" font-family="Times,serif" font-size="14.00">reflect</text>
</g>
<!-- conv&#45;&gt;reflect -->
<g id="edge3" class="edge">
<title>conv&#45;&gt;reflect</title>
<path fill="none" stroke="black" d="M586.12,-287.7C581.55,-279.9 576.05,-270.51 570.96,-261.83"/>
<polygon fill="black" stroke="black" points="574.11,-260.27 566.03,-253.41 568.07,-263.81 574.11,-260.27"/>
</g>
<!-- funcs&#45;&gt;constraint -->
<g id="edge19" class="edge">
<title>funcs&#45;&gt;constraint</title>
<path fill="none" stroke="black" d="M444.48,-83.15C500.37,-71.15 628.51,-43.64 697.42,-28.84"/>
<polygon fill="black" stroke="black" points="697.83,-32.33 706.87,-26.81 696.36,-25.49 697.83,-32.33"/>
</g>
<!-- funcs&#45;&gt;tuple -->
<g id="edge20" class="edge">
<title>funcs&#45;&gt;tuple</title>
<path fill="none" stroke="black" d="M389.95,-80.83C348.32,-68.38 268.82,-44.6 221.47,-30.43"/>
<polygon fill="black" stroke="black" points="222.77,-27.17 212.19,-27.66 220.77,-33.88 222.77,-27.17"/>
</g>
<!-- reflect&#45;&gt;funcs -->
<g id="edge30" class="edge">
<title>reflect&#45;&gt;funcs</title>
<path fill="none" stroke="black" d="M550.86,-215.74C545.18,-196.31 533.64,-164.76 514.25,-144 498,-126.6 474.73,-113.62 455.05,-104.86"/>
<polygon fill="black" stroke="black" points="456.53,-101.69 445.95,-101.02 453.8,-108.13 456.53,-101.69"/>
</g>
<!-- reflect&#45;&gt;union -->
<g id="edge31" class="edge">
<title>reflect&#45;&gt;union</title>
<path fill="none" stroke="black" d="M527.78,-215.52C513.89,-206.68 496.85,-195.84 481.87,-186.3"/>
<polygon fill="black" stroke="black" points="483.97,-183.49 473.65,-181.07 480.21,-189.39 483.97,-183.49"/>
</g>
<!-- union&#45;&gt;funcs -->
<g id="edge40" class="edge">
<title>union&#45;&gt;funcs</title>
<path fill="none" stroke="black" d="M438.33,-143.7C435.31,-136.15 431.7,-127.12 428.32,-118.68"/>
<polygon fill="black" stroke="black" points="431.62,-117.49 424.65,-109.51 425.12,-120.09 431.62,-117.49"/>
</g>
<!-- io/writer&#45;&gt;funcs -->
<g id="edge22" class="edge">
<title>io/writer&#45;&gt;funcs</title>
<path fill="none" stroke="black" d="M62.84,-155.27C133.23,-142.51 302.75,-111.77 378.98,-97.94"/>
<polygon fill="black" stroke="black" points="379.25,-101.45 388.47,-96.22 378,-94.56 379.25,-101.45"/>
</g>
<!-- io/writer&#45;&gt;tuple -->
<g id="edge23" class="edge">
<title>io/writer&#45;&gt;tuple</title>
<path fill="none" stroke="black" d="M36.34,-143.59C42.83,-124.03 55.72,-92.36 76.25,-72 95.51,-52.89 123.05,-39.47 145.36,-30.91"/>
<polygon fill="black" stroke="black" points="146.54,-34.21 154.74,-27.51 144.14,-27.63 146.54,-34.21"/>
</g>
<!-- io -->
<g id="node15" class="node">
<title>io</title>
<polygon fill="none" stroke="black" points="673.25,-468 619.25,-468 619.25,-432 673.25,-432 673.25,-468"/>
<text text-anchor="middle" x="646.25" y="-444.95" font-family="Times,serif" font-size="14.00">io</text>
</g>
<!-- io&#45;&gt;math -->
<g id="edge21" class="edge">
<title>io&#45;&gt;math</title>
<path fill="none" stroke="black" d="M646.25,-431.7C646.25,-424.41 646.25,-415.73 646.25,-407.54"/>
<polygon fill="black" stroke="black" points="649.75,-407.62 646.25,-397.62 642.75,-407.62 649.75,-407.62"/>
</g>
<!-- math&#45;&gt;conv -->
<g id="edge28" class="edge">
<title>math&#45;&gt;conv</title>
<path fill="none" stroke="black" d="M633.89,-359.7C628.2,-351.73 621.32,-342.1 615.01,-333.26"/>
<polygon fill="black" stroke="black" points="618.01,-331.44 609.35,-325.34 612.31,-335.51 618.01,-331.44"/>
</g>
<!-- math&#45;&gt;constraint -->
<g id="edge27" class="edge">
<title>math&#45;&gt;constraint</title>
<path fill="none" stroke="black" d="M673.43,-366.59C717.64,-347.67 800.25,-303.19 800.25,-235 800.25,-235 800.25,-235 800.25,-161 800.25,-118.6 778.09,-73.87 761.41,-46.2"/>
<polygon fill="black" stroke="black" points="764.4,-44.39 756.14,-37.76 758.46,-48.09 764.4,-44.39"/>
</g>
<!-- math&#45;&gt;funcs -->
<g id="edge29" class="edge">
<title>math&#45;&gt;funcs</title>
<path fill="none" stroke="black" d="M646.43,-359.53C645.85,-315.46 637.68,-199.33 570.25,-144 529.67,-110.7 504.56,-126.81 455.22,-109.98"/>
<polygon fill="black" stroke="black" points="456.67,-106.79 446.08,-106.54 454.2,-113.34 456.67,-106.79"/>
</g>
</g>
</svg>
