<?xml version="1.0" encoding="UTF-8" standalone="no"?>
<!DOCTYPE svg PUBLIC "-//W3C//DTD SVG 1.1//EN"
 "http://www.w3.org/Graphics/SVG/1.1/DTD/svg11.dtd">
<!-- Generated by graphviz version 9.0.0 (20230911.1827)
 -->
<!-- Title: dependencies Pages: 1 -->
<svg width="791pt" height="404pt"
 viewBox="0.00 0.00 791.08 404.00" xmlns="http://www.w3.org/2000/svg" xmlns:xlink="http://www.w3.org/1999/xlink">
<g id="graph0" class="graph" transform="scale(1 1) rotate(0) translate(4 400)">
<title>dependencies</title>
<polygon fill="white" stroke="none" points="-4,4 -4,-400 787.08,-400 787.08,4 -4,4"/>
<!-- encoding/json -->
<g id="node1" class="node">
<title>encoding/json</title>
<polygon fill="#87cefa" stroke="black" points="506.12,-252 414.38,-252 414.38,-216 506.12,-216 506.12,-252"/>
<text text-anchor="middle" x="460.25" y="-228.95" font-family="Times,serif" font-size="14.00">encoding/json</text>
</g>
<!-- conv -->
<g id="node8" class="node">
<title>conv</title>
<polygon fill="none" stroke="black" points="730.25,-180 676.25,-180 676.25,-144 730.25,-144 730.25,-180"/>
<text text-anchor="middle" x="703.25" y="-156.95" font-family="Times,serif" font-size="14.00">conv</text>
</g>
<!-- encoding/json&#45;&gt;conv -->
<g id="edge5" class="edge">
<title>encoding/json&#45;&gt;conv</title>
<path fill="none" stroke="black" d="M506.51,-222.76C547.79,-213.18 609.68,-197.7 662.25,-180 663.38,-179.62 664.53,-179.22 665.68,-178.81"/>
<polygon fill="black" stroke="black" points="666.57,-182.22 674.68,-175.4 664.09,-175.67 666.57,-182.22"/>
</g>
<!-- constraint -->
<g id="node9" class="node">
<title>constraint</title>
<polygon fill="none" stroke="black" points="732.88,-36 663.62,-36 663.62,0 732.88,0 732.88,-36"/>
<text text-anchor="middle" x="698.25" y="-12.95" font-family="Times,serif" font-size="14.00">constraint</text>
</g>
<!-- encoding/json&#45;&gt;constraint -->
<g id="edge4" class="edge">
<title>encoding/json&#45;&gt;constraint</title>
<path fill="none" stroke="black" d="M506.47,-230.1C544.32,-225.3 596.76,-212.73 629.25,-180 664.61,-144.38 640.57,-117.27 662.25,-72 666.55,-63.01 672.25,-53.83 677.84,-45.68"/>
<polygon fill="black" stroke="black" points="680.67,-47.75 683.63,-37.57 674.97,-43.68 680.67,-47.75"/>
</g>
<!-- funcs -->
<g id="node10" class="node">
<title>funcs</title>
<polygon fill="none" stroke="black" points="413.25,-108 359.25,-108 359.25,-72 413.25,-72 413.25,-108"/>
<text text-anchor="middle" x="386.25" y="-84.95" font-family="Times,serif" font-size="14.00">funcs</text>
</g>
<!-- encoding/json&#45;&gt;funcs -->
<g id="edge6" class="edge">
<title>encoding/json&#45;&gt;funcs</title>
<path fill="none" stroke="black" d="M451.18,-215.59C438.51,-191.29 415.42,-146.97 400.46,-118.27"/>
<polygon fill="black" stroke="black" points="403.59,-116.7 395.87,-109.45 397.38,-119.94 403.59,-116.7"/>
</g>
<!-- tuple -->
<g id="node12" class="node">
<title>tuple</title>
<polygon fill="none" stroke="black" points="210.25,-36 156.25,-36 156.25,0 210.25,0 210.25,-36"/>
<text text-anchor="middle" x="183.25" y="-12.95" font-family="Times,serif" font-size="14.00">tuple</text>
</g>
<!-- encoding/json&#45;&gt;tuple -->
<g id="edge7" class="edge">
<title>encoding/json&#45;&gt;tuple</title>
<path fill="none" stroke="black" d="M461.65,-215.62C463.27,-182.67 461.71,-110.93 422.25,-72 394.31,-44.44 282.29,-29.06 222.05,-22.63"/>
<polygon fill="black" stroke="black" points="222.55,-19.16 212.24,-21.62 221.83,-26.13 222.55,-19.16"/>
</g>
<!-- union -->
<g id="node13" class="node">
<title>union</title>
<polygon fill="none" stroke="black" points="358.25,-180 304.25,-180 304.25,-144 358.25,-144 358.25,-180"/>
<text text-anchor="middle" x="331.25" y="-156.95" font-family="Times,serif" font-size="14.00">union</text>
</g>
<!-- encoding/json&#45;&gt;union -->
<g id="edge8" class="edge">
<title>encoding/json&#45;&gt;union</title>
<path fill="none" stroke="black" d="M428.03,-215.52C410.02,-205.74 387.49,-193.52 368.7,-183.32"/>
<polygon fill="black" stroke="black" points="370.49,-180.31 360.03,-178.62 367.15,-186.46 370.49,-180.31"/>
</g>
<!-- encoding/json/parse -->
<g id="node2" class="node">
<title>encoding/json/parse</title>
<polygon fill="#87cefa" stroke="black" points="476.25,-396 352.25,-396 352.25,-360 476.25,-360 476.25,-396"/>
<text text-anchor="middle" x="414.25" y="-372.95" font-family="Times,serif" font-size="14.00">encoding/json/parse</text>
</g>
<!-- encoding/json/parse&#45;&gt;encoding/json -->
<g id="edge9" class="edge">
<title>encoding/json/parse&#45;&gt;encoding/json</title>
<path fill="none" stroke="black" d="M419.89,-359.59C427.69,-335.5 441.86,-291.75 451.17,-263.03"/>
<polygon fill="black" stroke="black" points="454.49,-264.14 454.24,-253.55 447.83,-261.99 454.49,-264.14"/>
</g>
<!-- stream -->
<g id="node6" class="node">
<title>stream</title>
<polygon fill="#87cefa" stroke="black" points="561.25,-324 507.25,-324 507.25,-288 561.25,-288 561.25,-324"/>
<text text-anchor="middle" x="534.25" y="-300.95" font-family="Times,serif" font-size="14.00">stream</text>
</g>
<!-- encoding/json/parse&#45;&gt;stream -->
<g id="edge12" class="edge">
<title>encoding/json/parse&#45;&gt;stream</title>
<path fill="none" stroke="black" d="M444.22,-359.52C460.35,-350.11 480.39,-338.42 497.46,-328.46"/>
<polygon fill="black" stroke="black" points="498.94,-331.65 505.81,-323.59 495.41,-325.61 498.94,-331.65"/>
</g>
<!-- iter -->
<g id="node7" class="node">
<title>iter</title>
<polygon fill="#e6e6fa" stroke="black" points="358.25,-252 304.25,-252 304.25,-216 358.25,-216 358.25,-252"/>
<text text-anchor="middle" x="331.25" y="-228.95" font-family="Times,serif" font-size="14.00">iter</text>
</g>
<!-- encoding/json/parse&#45;&gt;iter -->
<g id="edge11" class="edge">
<title>encoding/json/parse&#45;&gt;iter</title>
<path fill="none" stroke="black" d="M398.75,-359.63C390.29,-349.64 379.99,-336.6 372.25,-324 360.29,-304.53 349.59,-280.98 342.12,-263"/>
<polygon fill="black" stroke="black" points="345.37,-261.7 338.37,-253.75 338.89,-264.33 345.37,-261.7"/>
</g>
<!-- encoding/json/parse&#45;&gt;funcs -->
<g id="edge10" class="edge">
<title>encoding/json/parse&#45;&gt;funcs</title>
<path fill="none" stroke="black" d="M412.54,-359.54C407.86,-311.76 394.82,-178.51 389.05,-119.61"/>
<polygon fill="black" stroke="black" points="392.54,-119.35 388.08,-109.74 385.58,-120.03 392.54,-119.35"/>
</g>
<!-- encoding/json/write -->
<g id="node3" class="node">
<title>encoding/json/write</title>
<polygon fill="#87cefa" stroke="black" points="299.88,-324 176.62,-324 176.62,-288 299.88,-288 299.88,-324"/>
<text text-anchor="middle" x="238.25" y="-300.95" font-family="Times,serif" font-size="14.00">encoding/json/write</text>
</g>
<!-- encoding/json/write&#45;&gt;encoding/json -->
<g id="edge13" class="edge">
<title>encoding/json/write&#45;&gt;encoding/json</title>
<path fill="none" stroke="black" d="M293.7,-287.52C327.19,-276.96 369.77,-263.53 403.49,-252.9"/>
<polygon fill="black" stroke="black" points="404.18,-256.35 412.67,-250 402.08,-249.67 404.18,-256.35"/>
</g>
<!-- encoding/json/write&#45;&gt;funcs -->
<g id="edge14" class="edge">
<title>encoding/json/write&#45;&gt;funcs</title>
<path fill="none" stroke="black" d="M239.25,-287.72C241.94,-255.88 251.75,-187.25 287.25,-144 302.98,-124.84 327.5,-111.64 348.21,-103.2"/>
<polygon fill="black" stroke="black" points="349.42,-106.49 357.52,-99.65 346.92,-99.95 349.42,-106.49"/>
</g>
<!-- io/writer -->
<g id="node14" class="node">
<title>io/writer</title>
<polygon fill="none" stroke="black" points="62.5,-180 0,-180 0,-144 62.5,-144 62.5,-180"/>
<text text-anchor="middle" x="31.25" y="-156.95" font-family="Times,serif" font-size="14.00">io/writer</text>
</g>
<!-- encoding/json/write&#45;&gt;io/writer -->
<g id="edge15" class="edge">
<title>encoding/json/write&#45;&gt;io/writer</title>
<path fill="none" stroke="black" d="M184.13,-287.5C161.42,-278.77 135.42,-266.86 114.25,-252 89.43,-234.58 66.36,-208.72 50.87,-189.36"/>
<polygon fill="black" stroke="black" points="53.75,-187.36 44.83,-181.63 48.23,-191.67 53.75,-187.36"/>
</g>
<!-- event -->
<g id="node4" class="node">
<title>event</title>
<polygon fill="#87cefa" stroke="black" points="620.25,-180 566.25,-180 566.25,-144 620.25,-144 620.25,-180"/>
<text text-anchor="middle" x="593.25" y="-156.95" font-family="Times,serif" font-size="14.00">event</text>
</g>
<!-- event&#45;&gt;constraint -->
<g id="edge16" class="edge">
<title>event&#45;&gt;constraint</title>
<path fill="none" stroke="black" d="M597.35,-143.56C602.46,-124.54 612.6,-93.89 629.25,-72 637.61,-61.01 648.79,-51.11 659.72,-42.92"/>
<polygon fill="black" stroke="black" points="661.44,-46 667.54,-37.34 657.37,-40.3 661.44,-46"/>
</g>
<!-- event&#45;&gt;funcs -->
<g id="edge17" class="edge">
<title>event&#45;&gt;funcs</title>
<path fill="none" stroke="black" d="M566.03,-149.34C561.45,-147.49 556.74,-145.64 552.25,-144 508.86,-128.11 458.16,-112.32 424.31,-102.16"/>
<polygon fill="black" stroke="black" points="425.55,-98.87 414.96,-99.37 423.55,-105.58 425.55,-98.87"/>
</g>
<!-- event&#45;&gt;tuple -->
<g id="edge18" class="edge">
<title>event&#45;&gt;tuple</title>
<path fill="none" stroke="black" d="M583.15,-143.7C570.07,-123 545.22,-88.99 514.25,-72 464.49,-44.7 298.38,-28.23 222.13,-21.94"/>
<polygon fill="black" stroke="black" points="222.45,-18.45 212.2,-21.14 221.88,-25.43 222.45,-18.45"/>
</g>
<!-- rest -->
<g id="node5" class="node">
<title>rest</title>
<polygon fill="#87cefa" stroke="black" points="210.25,-180 156.25,-180 156.25,-144 210.25,-144 210.25,-180"/>
<text text-anchor="middle" x="183.25" y="-156.95" font-family="Times,serif" font-size="14.00">rest</text>
</g>
<!-- rest&#45;&gt;funcs -->
<g id="edge30" class="edge">
<title>rest&#45;&gt;funcs</title>
<path fill="none" stroke="black" d="M210.48,-149.37C215.05,-147.51 219.77,-145.66 224.25,-144 266.08,-128.51 314.81,-112.89 347.82,-102.66"/>
<polygon fill="black" stroke="black" points="348.83,-106.01 357.35,-99.72 346.76,-99.32 348.83,-106.01"/>
</g>
<!-- rest&#45;&gt;tuple -->
<g id="edge31" class="edge">
<title>rest&#45;&gt;tuple</title>
<path fill="none" stroke="black" d="M183.25,-143.59C183.25,-119.61 183.25,-76.14 183.25,-47.42"/>
<polygon fill="black" stroke="black" points="186.75,-47.62 183.25,-37.62 179.75,-47.62 186.75,-47.62"/>
</g>
<!-- stream&#45;&gt;iter -->
<g id="edge35" class="edge">
<title>stream&#45;&gt;iter</title>
<path fill="none" stroke="black" d="M506.87,-295.56C471.36,-283.31 409.23,-261.89 369.18,-248.08"/>
<polygon fill="black" stroke="black" points="370.54,-244.85 359.95,-244.9 368.26,-251.46 370.54,-244.85"/>
</g>
<!-- stream&#45;&gt;conv -->
<g id="edge33" class="edge">
<title>stream&#45;&gt;conv</title>
<path fill="none" stroke="black" d="M554.97,-287.59C584.83,-262.5 640.08,-216.08 674.06,-187.53"/>
<polygon fill="black" stroke="black" points="676.06,-190.42 681.46,-181.31 671.56,-185.06 676.06,-190.42"/>
</g>
<!-- stream&#45;&gt;constraint -->
<g id="edge32" class="edge">
<title>stream&#45;&gt;constraint</title>
<path fill="none" stroke="black" d="M561.48,-300C606.97,-291.22 695.84,-272.01 720.25,-252 783.93,-199.78 799.86,-146.26 764.25,-72 758.8,-60.64 749.6,-50.94 739.77,-43.07"/>
<polygon fill="black" stroke="black" points="742,-40.36 731.87,-37.25 737.85,-46 742,-40.36"/>
</g>
<!-- stream&#45;&gt;funcs -->
<g id="edge34" class="edge">
<title>stream&#45;&gt;funcs</title>
<path fill="none" stroke="black" d="M533.52,-287.56C532.07,-268.82 527.8,-238.67 515.25,-216 511.86,-209.88 449.73,-150.82 412.95,-116.12"/>
<polygon fill="black" stroke="black" points="415.42,-113.63 405.74,-109.32 410.62,-118.72 415.42,-113.63"/>
</g>
<!-- stream&#45;&gt;tuple -->
<g id="edge37" class="edge">
<title>stream&#45;&gt;tuple</title>
<path fill="none" stroke="black" d="M506.82,-300.72C425.17,-287.33 186.85,-243.3 147.25,-180 121.09,-138.19 146.41,-79.79 165.79,-46.03"/>
<polygon fill="black" stroke="black" points="168.65,-48.07 170.77,-37.69 162.64,-44.47 168.65,-48.07"/>
</g>
<!-- math -->
<g id="node16" class="node">
<title>math</title>
<polygon fill="none" stroke="black" points="711.25,-252 657.25,-252 657.25,-216 711.25,-216 711.25,-252"/>
<text text-anchor="middle" x="684.25" y="-228.95" font-family="Times,serif" font-size="14.00">math</text>
</g>
<!-- stream&#45;&gt;math -->
<g id="edge36" class="edge">
<title>stream&#45;&gt;math</title>
<path fill="none" stroke="black" d="M561.41,-292.32C585.16,-281.24 619.88,-265.04 646.36,-252.68"/>
<polygon fill="black" stroke="black" points="647.83,-255.86 655.41,-248.46 644.87,-249.52 647.83,-255.86"/>
</g>
<!-- iter&#45;&gt;funcs -->
<g id="edge24" class="edge">
<title>iter&#45;&gt;funcs</title>
<path fill="none" stroke="black" d="M315.09,-215.62C300.01,-197.2 281.71,-167.55 295.25,-144 306.7,-124.07 328.86,-110.94 348.43,-102.73"/>
<polygon fill="black" stroke="black" points="349.48,-106.07 357.55,-99.2 346.96,-99.54 349.48,-106.07"/>
</g>
<!-- iter&#45;&gt;tuple -->
<g id="edge25" class="edge">
<title>iter&#45;&gt;tuple</title>
<path fill="none" stroke="black" d="M303.92,-229.17C257.43,-222.03 166.14,-205.1 147.25,-180 117.31,-140.22 144.63,-80.22 165.25,-45.81"/>
<polygon fill="black" stroke="black" points="167.99,-48.04 170.3,-37.7 162.05,-44.34 167.99,-48.04"/>
</g>
<!-- iter&#45;&gt;union -->
<g id="edge26" class="edge">
<title>iter&#45;&gt;union</title>
<path fill="none" stroke="black" d="M331.25,-215.7C331.25,-208.41 331.25,-199.73 331.25,-191.54"/>
<polygon fill="black" stroke="black" points="334.75,-191.62 331.25,-181.62 327.75,-191.62 334.75,-191.62"/>
</g>
<!-- conv&#45;&gt;constraint -->
<g id="edge1" class="edge">
<title>conv&#45;&gt;constraint</title>
<path fill="none" stroke="black" d="M716.4,-143.91C723.17,-134.01 730.74,-120.96 734.25,-108 738.43,-92.56 738.95,-87.29 734.25,-72 731.37,-62.63 726.2,-53.42 720.67,-45.39"/>
<polygon fill="black" stroke="black" points="723.54,-43.38 714.76,-37.44 717.92,-47.56 723.54,-43.38"/>
</g>
<!-- conv&#45;&gt;funcs -->
<g id="edge2" class="edge">
<title>conv&#45;&gt;funcs</title>
<path fill="none" stroke="black" d="M675.86,-154.63C661.91,-151.41 644.69,-147.46 629.25,-144 557.04,-127.83 472.62,-109.56 424.69,-99.25"/>
<polygon fill="black" stroke="black" points="425.6,-95.86 415.08,-97.18 424.12,-102.7 425.6,-95.86"/>
</g>
<!-- reflect -->
<g id="node11" class="node">
<title>reflect</title>
<polygon fill="none" stroke="black" points="725.25,-108 671.25,-108 671.25,-72 725.25,-72 725.25,-108"/>
<text text-anchor="middle" x="698.25" y="-84.95" font-family="Times,serif" font-size="14.00">reflect</text>
</g>
<!-- conv&#45;&gt;reflect -->
<g id="edge3" class="edge">
<title>conv&#45;&gt;reflect</title>
<path fill="none" stroke="black" d="M702.01,-143.7C701.49,-136.41 700.87,-127.73 700.29,-119.54"/>
<polygon fill="black" stroke="black" points="703.78,-119.34 699.58,-109.61 696.8,-119.84 703.78,-119.34"/>
</g>
<!-- funcs&#45;&gt;constraint -->
<g id="edge19" class="edge">
<title>funcs&#45;&gt;constraint</title>
<path fill="none" stroke="black" d="M413.66,-82.85C467.36,-70.8 586.88,-43.99 652.66,-29.23"/>
<polygon fill="black" stroke="black" points="653.04,-32.73 662.04,-27.13 651.51,-25.9 653.04,-32.73"/>
</g>
<!-- funcs&#45;&gt;tuple -->
<g id="edge20" class="edge">
<title>funcs&#45;&gt;tuple</title>
<path fill="none" stroke="black" d="M358.87,-79.56C323.36,-67.31 261.23,-45.89 221.18,-32.08"/>
<polygon fill="black" stroke="black" points="222.54,-28.85 211.95,-28.9 220.26,-35.46 222.54,-28.85"/>
</g>
<!-- union&#45;&gt;funcs -->
<g id="edge38" class="edge">
<title>union&#45;&gt;funcs</title>
<path fill="none" stroke="black" d="M344.85,-143.7C351.17,-135.64 358.83,-125.89 365.84,-116.98"/>
<polygon fill="black" stroke="black" points="368.45,-119.32 371.88,-109.29 362.95,-115 368.45,-119.32"/>
</g>
<!-- io/writer&#45;&gt;funcs -->
<g id="edge22" class="edge">
<title>io/writer&#45;&gt;funcs</title>
<path fill="none" stroke="black" d="M62.75,-154.79C127.85,-141.95 277.02,-112.54 347.72,-98.6"/>
<polygon fill="black" stroke="black" points="348.16,-102.08 357.29,-96.71 346.8,-95.21 348.16,-102.08"/>
</g>
<!-- io/writer&#45;&gt;tuple -->
<g id="edge23" class="edge">
<title>io/writer&#45;&gt;tuple</title>
<path fill="none" stroke="black" d="M36.34,-143.59C42.83,-124.03 55.72,-92.36 76.25,-72 95.51,-52.89 123.05,-39.47 145.36,-30.91"/>
<polygon fill="black" stroke="black" points="146.54,-34.21 154.74,-27.51 144.14,-27.63 146.54,-34.21"/>
</g>
<!-- io -->
<g id="node15" class="node">
<title>io</title>
<polygon fill="none" stroke="black" points="711.25,-324 657.25,-324 657.25,-288 711.25,-288 711.25,-324"/>
<text text-anchor="middle" x="684.25" y="-300.95" font-family="Times,serif" font-size="14.00">io</text>
</g>
<!-- io&#45;&gt;math -->
<g id="edge21" class="edge">
<title>io&#45;&gt;math</title>
<path fill="none" stroke="black" d="M684.25,-287.7C684.25,-280.41 684.25,-271.73 684.25,-263.54"/>
<polygon fill="black" stroke="black" points="687.75,-263.62 684.25,-253.62 680.75,-263.62 687.75,-263.62"/>
</g>
<!-- math&#45;&gt;conv -->
<g id="edge28" class="edge">
<title>math&#45;&gt;conv</title>
<path fill="none" stroke="black" d="M688.95,-215.7C690.97,-208.24 693.39,-199.32 695.66,-190.97"/>
<polygon fill="black" stroke="black" points="698.97,-192.13 698.21,-181.57 692.21,-190.3 698.97,-192.13"/>
</g>
<!-- math&#45;&gt;constraint -->
<g id="edge27" class="edge">
<title>math&#45;&gt;constraint</title>
<path fill="none" stroke="black" d="M708.78,-215.56C719.91,-206.29 732.15,-193.94 739.25,-180 753.91,-151.21 747.02,-140.23 749.25,-108 750.35,-92.04 755.23,-86.84 749.25,-72 745.07,-61.63 737.78,-52.15 730,-44.17"/>
<polygon fill="black" stroke="black" points="732.59,-41.8 722.92,-37.46 727.77,-46.88 732.59,-41.8"/>
</g>
<!-- math&#45;&gt;funcs -->
<g id="edge29" class="edge">
<title>math&#45;&gt;funcs</title>
<path fill="none" stroke="black" d="M657.2,-222.48C631.29,-212.23 591.22,-195.9 557.25,-180 510.55,-158.15 458.13,-130.37 423.78,-111.7"/>
<polygon fill="black" stroke="black" points="425.51,-108.66 415.06,-106.95 422.16,-114.81 425.51,-108.66"/>
</g>
</g>
</svg>
