<?xml version="1.0" encoding="UTF-8" standalone="no"?>
<!DOCTYPE svg PUBLIC "-//W3C//DTD SVG 1.1//EN"
 "http://www.w3.org/Graphics/SVG/1.1/DTD/svg11.dtd">
<!-- Generated by graphviz version 8.0.5 (20230430.1635)
 -->
<!-- Title: dependencies Pages: 1 -->
<svg width="307pt" height="260pt"
 viewBox="0.00 0.00 306.56 260.00" xmlns="http://www.w3.org/2000/svg" xmlns:xlink="http://www.w3.org/1999/xlink">
<g id="graph0" class="graph" transform="scale(1 1) rotate(0) translate(4 256)">
<title>dependencies</title>
<polygon fill="white" stroke="none" points="-4,4 -4,-256 302.56,-256 302.56,4 -4,4"/>
<!-- conv -->
<g id="node1" class="node">
<title>conv</title>
<ellipse fill="none" stroke="black" cx="184.71" cy="-162" rx="28.83" ry="18"/>
<text text-anchor="middle" x="184.71" y="-156.95" font-family="Times,serif" font-size="14.00">conv</text>
</g>
<!-- constraint -->
<g id="node2" class="node">
<title>constraint</title>
<ellipse fill="none" stroke="black" cx="184.71" cy="-18" rx="47.26" ry="18"/>
<text text-anchor="middle" x="184.71" y="-12.95" font-family="Times,serif" font-size="14.00">constraint</text>
</g>
<!-- conv&#45;&gt;constraint -->
<g id="edge1" class="edge">
<title>conv&#45;&gt;constraint</title>
<path fill="none" stroke="black" d="M184.71,-143.59C184.71,-119.5 184.71,-75.75 184.71,-47.03"/>
<polygon fill="black" stroke="black" points="188.21,-47.11 184.71,-37.11 181.21,-47.11 188.21,-47.11"/>
</g>
<!-- funcs -->
<g id="node3" class="node">
<title>funcs</title>
<ellipse fill="none" stroke="black" cx="125.71" cy="-90" rx="30.88" ry="18"/>
<text text-anchor="middle" x="125.71" y="-84.95" font-family="Times,serif" font-size="14.00">funcs</text>
</g>
<!-- conv&#45;&gt;funcs -->
<g id="edge2" class="edge">
<title>conv&#45;&gt;funcs</title>
<path fill="none" stroke="black" d="M171.62,-145.46C163.98,-136.4 154.19,-124.79 145.61,-114.61"/>
<polygon fill="black" stroke="black" points="147.89,-112.88 138.77,-107.49 142.54,-117.39 147.89,-112.88"/>
</g>
<!-- reflect -->
<g id="node4" class="node">
<title>reflect</title>
<ellipse fill="none" stroke="black" cx="246.71" cy="-90" rx="34.46" ry="18"/>
<text text-anchor="middle" x="246.71" y="-84.95" font-family="Times,serif" font-size="14.00">reflect</text>
</g>
<!-- conv&#45;&gt;reflect -->
<g id="edge3" class="edge">
<title>conv&#45;&gt;reflect</title>
<path fill="none" stroke="black" d="M198.16,-145.81C206.18,-136.76 216.52,-125.08 225.6,-114.83"/>
<polygon fill="black" stroke="black" points="227.85,-117.45 231.86,-107.64 222.61,-112.81 227.85,-117.45"/>
</g>
<!-- funcs&#45;&gt;constraint -->
<g id="edge4" class="edge">
<title>funcs&#45;&gt;constraint</title>
<path fill="none" stroke="black" d="M138.81,-73.46C146.16,-64.74 155.5,-53.65 163.84,-43.76"/>
<polygon fill="black" stroke="black" points="167.06,-46.37 170.83,-36.47 161.71,-41.86 167.06,-46.37"/>
</g>
<!-- tuple -->
<g id="node5" class="node">
<title>tuple</title>
<ellipse fill="none" stroke="black" cx="37.71" cy="-18" rx="29.34" ry="18"/>
<text text-anchor="middle" x="37.71" y="-12.95" font-family="Times,serif" font-size="14.00">tuple</text>
</g>
<!-- funcs&#45;&gt;tuple -->
<g id="edge5" class="edge">
<title>funcs&#45;&gt;tuple</title>
<path fill="none" stroke="black" d="M107.9,-74.83C95.18,-64.71 77.85,-50.93 63.6,-39.59"/>
<polygon fill="black" stroke="black" points="66.2,-36.39 56.19,-32.91 61.84,-41.87 66.2,-36.39"/>
</g>
<!-- iter -->
<g id="node6" class="node">
<title>iter</title>
<ellipse fill="none" stroke="black" cx="44.71" cy="-162" rx="27" ry="18"/>
<text text-anchor="middle" x="44.71" y="-156.95" font-family="Times,serif" font-size="14.00">iter</text>
</g>
<!-- iter&#45;&gt;funcs -->
<g id="edge6" class="edge">
<title>iter&#45;&gt;funcs</title>
<path fill="none" stroke="black" d="M60.71,-147.17C72.14,-137.3 87.72,-123.83 100.77,-112.56"/>
<polygon fill="black" stroke="black" points="102.63,-114.71 107.91,-105.52 98.05,-109.41 102.63,-114.71"/>
</g>
<!-- iter&#45;&gt;tuple -->
<g id="edge7" class="edge">
<title>iter&#45;&gt;tuple</title>
<path fill="none" stroke="black" d="M29.5,-146.85C20.08,-136.99 8.83,-122.97 3.71,-108 -1.46,-92.86 -0.79,-87.35 3.71,-72 6.69,-61.83 12.29,-51.76 18.1,-43.18"/>
<polygon fill="black" stroke="black" points="21.34,-45.67 24.37,-35.51 15.67,-41.56 21.34,-45.67"/>
</g>
<!-- union -->
<g id="node7" class="node">
<title>union</title>
<ellipse fill="none" stroke="black" cx="44.71" cy="-90" rx="31.9" ry="18"/>
<text text-anchor="middle" x="44.71" y="-84.95" font-family="Times,serif" font-size="14.00">union</text>
</g>
<!-- iter&#45;&gt;union -->
<g id="edge8" class="edge">
<title>iter&#45;&gt;union</title>
<path fill="none" stroke="black" d="M44.71,-143.7C44.71,-136.24 44.71,-127.32 44.71,-118.97"/>
<polygon fill="black" stroke="black" points="48.21,-119.1 44.71,-109.1 41.21,-119.1 48.21,-119.1"/>
</g>
<!-- util -->
<g id="node8" class="node">
<title>util</title>
<ellipse fill="none" stroke="black" cx="184.71" cy="-234" rx="27" ry="18"/>
<text text-anchor="middle" x="184.71" y="-228.95" font-family="Times,serif" font-size="14.00">util</text>
</g>
<!-- util&#45;&gt;conv -->
<g id="edge10" class="edge">
<title>util&#45;&gt;conv</title>
<path fill="none" stroke="black" d="M184.71,-215.7C184.71,-208.24 184.71,-199.32 184.71,-190.97"/>
<polygon fill="black" stroke="black" points="188.21,-191.1 184.71,-181.1 181.21,-191.1 188.21,-191.1"/>
</g>
<!-- util&#45;&gt;constraint -->
<g id="edge9" class="edge">
<title>util&#45;&gt;constraint</title>
<path fill="none" stroke="black" d="M203.48,-220.82C242.18,-194.14 324.43,-128.41 289.71,-72 277.58,-52.29 255.61,-39.64 234.89,-31.67"/>
<polygon fill="black" stroke="black" points="236.14,-28.05 225.54,-28.02 233.81,-34.65 236.14,-28.05"/>
</g>
<!-- util&#45;&gt;funcs -->
<g id="edge11" class="edge">
<title>util&#45;&gt;funcs</title>
<path fill="none" stroke="black" d="M171.69,-218.22C163.41,-208.1 153.09,-194.02 146.71,-180 137.88,-160.59 132.54,-137.04 129.45,-119.04"/>
<polygon fill="black" stroke="black" points="132.78,-118.71 127.77,-109.38 125.87,-119.8 132.78,-118.71"/>
</g>
</g>
</svg>
