<?xml version="1.0" encoding="UTF-8" standalone="no"?>
<!DOCTYPE svg PUBLIC "-//W3C//DTD SVG 1.1//EN"
 "http://www.w3.org/Graphics/SVG/1.1/DTD/svg11.dtd">
<!-- Generated by graphviz version 9.0.0 (20230911.1827)
 -->
<!-- Title: dependencies Pages: 1 -->
<svg width="884pt" height="548pt"
 viewBox="0.00 0.00 883.67 548.00" xmlns="http://www.w3.org/2000/svg" xmlns:xlink="http://www.w3.org/1999/xlink">
<g id="graph0" class="graph" transform="scale(1 1) rotate(0) translate(4 544)">
<title>dependencies</title>
<polygon fill="white" stroke="none" points="-4,4 -4,-544 879.67,-544 879.67,4 -4,4"/>
<!-- encoding/json -->
<g id="node1" class="node">
<title>encoding/json</title>
<polygon fill="#87cefa" stroke="black" points="438.54,-396 346.79,-396 346.79,-360 438.54,-360 438.54,-396"/>
<text text-anchor="middle" x="392.67" y="-372.95" font-family="Times,serif" font-size="14.00">encoding/json</text>
</g>
<!-- funcs -->
<g id="node9" class="node">
<title>funcs</title>
<polygon fill="none" stroke="black" points="391.67,-108 337.67,-108 337.67,-72 391.67,-72 391.67,-108"/>
<text text-anchor="middle" x="364.67" y="-84.95" font-family="Times,serif" font-size="14.00">funcs</text>
</g>
<!-- encoding/json&#45;&gt;funcs -->
<g id="edge11" class="edge">
<title>encoding/json&#45;&gt;funcs</title>
<path fill="none" stroke="black" d="M346.5,-369.12C320.35,-362.04 289.74,-348.75 273.67,-324 229.04,-255.27 264.95,-209.9 313.67,-144 320.84,-134.3 329.67,-124.54 337.95,-116.08"/>
<polygon fill="black" stroke="black" points="340.27,-118.71 344.89,-109.18 335.33,-113.74 340.27,-118.71"/>
</g>
<!-- union -->
<g id="node11" class="node">
<title>union</title>
<polygon fill="none" stroke="black" points="391.67,-180 337.67,-180 337.67,-144 391.67,-144 391.67,-180"/>
<text text-anchor="middle" x="364.67" y="-156.95" font-family="Times,serif" font-size="14.00">union</text>
</g>
<!-- encoding/json&#45;&gt;union -->
<g id="edge13" class="edge">
<title>encoding/json&#45;&gt;union</title>
<path fill="none" stroke="black" d="M390.42,-359.85C385.62,-323.14 374.3,-236.66 368.4,-191.53"/>
<polygon fill="black" stroke="black" points="371.88,-191.19 367.12,-181.73 364.94,-192.1 371.88,-191.19"/>
</g>
<!-- conv -->
<g id="node13" class="node">
<title>conv</title>
<polygon fill="none" stroke="black" points="648.67,-324 594.67,-324 594.67,-288 648.67,-288 648.67,-324"/>
<text text-anchor="middle" x="621.67" y="-300.95" font-family="Times,serif" font-size="14.00">conv</text>
</g>
<!-- encoding/json&#45;&gt;conv -->
<g id="edge10" class="edge">
<title>encoding/json&#45;&gt;conv</title>
<path fill="none" stroke="black" d="M439.01,-362.83C481.56,-349.83 543.87,-330.78 583.59,-318.64"/>
<polygon fill="black" stroke="black" points="584.42,-322.04 592.96,-315.77 582.37,-315.35 584.42,-322.04"/>
</g>
<!-- constraint -->
<g id="node14" class="node">
<title>constraint</title>
<polygon fill="none" stroke="black" points="815.29,-36 746.04,-36 746.04,0 815.29,0 815.29,-36"/>
<text text-anchor="middle" x="780.67" y="-12.95" font-family="Times,serif" font-size="14.00">constraint</text>
</g>
<!-- encoding/json&#45;&gt;constraint -->
<g id="edge9" class="edge">
<title>encoding/json&#45;&gt;constraint</title>
<path fill="none" stroke="black" d="M406.15,-359.69C433.24,-326.19 497.88,-252.61 569.67,-216 639.63,-180.32 686.4,-234.79 742.67,-180 778.34,-145.26 783.12,-83.72 782.49,-47.62"/>
<polygon fill="black" stroke="black" points="786,-47.81 782.16,-37.94 779.01,-48.05 786,-47.81"/>
</g>
<!-- tuple -->
<g id="node17" class="node">
<title>tuple</title>
<polygon fill="none" stroke="black" points="201.67,-36 147.67,-36 147.67,0 201.67,0 201.67,-36"/>
<text text-anchor="middle" x="174.67" y="-12.95" font-family="Times,serif" font-size="14.00">tuple</text>
</g>
<!-- encoding/json&#45;&gt;tuple -->
<g id="edge12" class="edge">
<title>encoding/json&#45;&gt;tuple</title>
<path fill="none" stroke="black" d="M346.48,-368.78C263.5,-351.18 91.6,-301.15 24.67,-180 -9.26,-118.58 82.7,-62.42 137.38,-35.59"/>
<polygon fill="black" stroke="black" points="138.57,-38.9 146.08,-31.43 135.54,-32.59 138.57,-38.9"/>
</g>
<!-- encoding/json/parse -->
<g id="node2" class="node">
<title>encoding/json/parse</title>
<polygon fill="#87cefa" stroke="black" points="511.67,-540 387.67,-540 387.67,-504 511.67,-504 511.67,-540"/>
<text text-anchor="middle" x="449.67" y="-516.95" font-family="Times,serif" font-size="14.00">encoding/json/parse</text>
</g>
<!-- encoding/json/parse&#45;&gt;encoding/json -->
<g id="edge14" class="edge">
<title>encoding/json/parse&#45;&gt;encoding/json</title>
<path fill="none" stroke="black" d="M442.68,-503.59C432.97,-479.4 415.29,-435.36 403.77,-406.65"/>
<polygon fill="black" stroke="black" points="407.07,-405.49 400.1,-397.52 400.57,-408.1 407.07,-405.49"/>
</g>
<!-- stream -->
<g id="node6" class="node">
<title>stream</title>
<polygon fill="#87cefa" stroke="black" points="571.67,-468 517.67,-468 517.67,-432 571.67,-432 571.67,-468"/>
<text text-anchor="middle" x="544.67" y="-444.95" font-family="Times,serif" font-size="14.00">stream</text>
</g>
<!-- encoding/json/parse&#45;&gt;stream -->
<g id="edge17" class="edge">
<title>encoding/json/parse&#45;&gt;stream</title>
<path fill="none" stroke="black" d="M473.15,-503.7C484.91,-495.03 499.34,-484.4 512.14,-474.96"/>
<polygon fill="black" stroke="black" points="513.93,-477.99 519.9,-469.24 509.78,-472.36 513.93,-477.99"/>
</g>
<!-- iter -->
<g id="node7" class="node">
<title>iter</title>
<polygon fill="#e6e6fa" stroke="black" points="446.67,-252 392.67,-252 392.67,-216 446.67,-216 446.67,-252"/>
<text text-anchor="middle" x="419.67" y="-228.95" font-family="Times,serif" font-size="14.00">iter</text>
</g>
<!-- encoding/json/parse&#45;&gt;iter -->
<g id="edge16" class="edge">
<title>encoding/json/parse&#45;&gt;iter</title>
<path fill="none" stroke="black" d="M450.63,-503.53C452.01,-473.89 453.74,-411.92 447.67,-360 443.72,-326.25 434.51,-288.25 427.72,-263.11"/>
<polygon fill="black" stroke="black" points="431.15,-262.36 425.12,-253.65 424.4,-264.22 431.15,-262.36"/>
</g>
<!-- encoding/json/parse&#45;&gt;funcs -->
<g id="edge15" class="edge">
<title>encoding/json/parse&#45;&gt;funcs</title>
<path fill="none" stroke="black" d="M387.23,-519.06C307.62,-515.14 176.56,-503.35 145.67,-468 50.86,-359.51 44.95,-256.74 134.67,-144 158.17,-114.47 266.95,-99.99 326.1,-94.2"/>
<polygon fill="black" stroke="black" points="326.09,-97.71 335.72,-93.29 325.44,-90.74 326.09,-97.71"/>
</g>
<!-- encoding/json/write -->
<g id="node3" class="node">
<title>encoding/json/write</title>
<polygon fill="#87cefa" stroke="black" points="278.29,-468 155.04,-468 155.04,-432 278.29,-432 278.29,-468"/>
<text text-anchor="middle" x="216.67" y="-444.95" font-family="Times,serif" font-size="14.00">encoding/json/write</text>
</g>
<!-- encoding/json/write&#45;&gt;encoding/json -->
<g id="edge18" class="edge">
<title>encoding/json/write&#45;&gt;encoding/json</title>
<path fill="none" stroke="black" d="M260.62,-431.52C284.23,-422.13 313.54,-410.47 338.54,-400.53"/>
<polygon fill="black" stroke="black" points="339.56,-403.89 347.56,-396.94 336.97,-397.38 339.56,-403.89"/>
</g>
<!-- encoding/json/write&#45;&gt;funcs -->
<g id="edge19" class="edge">
<title>encoding/json/write&#45;&gt;funcs</title>
<path fill="none" stroke="black" d="M215.26,-431.7C212.12,-380.91 209.93,-230.35 284.67,-144 296.54,-130.28 312.78,-118.65 327.53,-109.81"/>
<polygon fill="black" stroke="black" points="329.18,-112.89 336.12,-104.89 325.7,-106.82 329.18,-112.89"/>
</g>
<!-- io/writer -->
<g id="node10" class="node">
<title>io/writer</title>
<polygon fill="none" stroke="black" points="205.92,-180 143.42,-180 143.42,-144 205.92,-144 205.92,-180"/>
<text text-anchor="middle" x="174.67" y="-156.95" font-family="Times,serif" font-size="14.00">io/writer</text>
</g>
<!-- encoding/json/write&#45;&gt;io/writer -->
<g id="edge20" class="edge">
<title>encoding/json/write&#45;&gt;io/writer</title>
<path fill="none" stroke="black" d="M211.52,-431.95C208.56,-421.63 204.99,-408.15 202.67,-396 188.71,-323.03 180.43,-235.79 176.82,-191.64"/>
<polygon fill="black" stroke="black" points="180.33,-191.57 176.04,-181.88 173.35,-192.13 180.33,-191.57"/>
</g>
<!-- event -->
<g id="node4" class="node">
<title>event</title>
<polygon fill="#87cefa" stroke="black" points="733.67,-180 679.67,-180 679.67,-144 733.67,-144 733.67,-180"/>
<text text-anchor="middle" x="706.67" y="-156.95" font-family="Times,serif" font-size="14.00">event</text>
</g>
<!-- event&#45;&gt;funcs -->
<g id="edge22" class="edge">
<title>event&#45;&gt;funcs</title>
<path fill="none" stroke="black" d="M679.17,-148.64C674.71,-146.92 670.1,-145.29 665.67,-144 573.45,-117.12 461.14,-101.75 403.26,-95.06"/>
<polygon fill="black" stroke="black" points="403.94,-91.61 393.61,-93.97 403.15,-98.57 403.94,-91.61"/>
</g>
<!-- event&#45;&gt;constraint -->
<g id="edge21" class="edge">
<title>event&#45;&gt;constraint</title>
<path fill="none" stroke="black" d="M713.9,-143.63C721.65,-125.46 734.59,-96.26 747.67,-72 752.34,-63.32 757.87,-54.11 763.04,-45.85"/>
<polygon fill="black" stroke="black" points="765.87,-47.93 768.29,-37.62 759.96,-44.17 765.87,-47.93"/>
</g>
<!-- event&#45;&gt;tuple -->
<g id="edge23" class="edge">
<title>event&#45;&gt;tuple</title>
<path fill="none" stroke="black" d="M679.38,-149.52C674.81,-147.64 670.11,-145.75 665.67,-144 580.06,-110.38 560.4,-96.17 471.67,-72 380.61,-47.19 270.6,-31.05 213.43,-23.66"/>
<polygon fill="black" stroke="black" points="213.92,-20.2 203.55,-22.41 213.03,-27.14 213.92,-20.2"/>
</g>
<!-- rest -->
<g id="node5" class="node">
<title>rest</title>
<polygon fill="#87cefa" stroke="black" points="87.67,-180 33.67,-180 33.67,-144 87.67,-144 87.67,-180"/>
<text text-anchor="middle" x="60.67" y="-156.95" font-family="Times,serif" font-size="14.00">rest</text>
</g>
<!-- rest&#45;&gt;funcs -->
<g id="edge36" class="edge">
<title>rest&#45;&gt;funcs</title>
<path fill="none" stroke="black" d="M87.74,-148.91C92.33,-147.11 97.1,-145.39 101.67,-144 179.78,-120.18 274.27,-104.13 326.06,-96.37"/>
<polygon fill="black" stroke="black" points="326.47,-99.85 335.86,-94.93 325.45,-92.93 326.47,-99.85"/>
</g>
<!-- rest&#45;&gt;tuple -->
<g id="edge37" class="edge">
<title>rest&#45;&gt;tuple</title>
<path fill="none" stroke="black" d="M74.64,-143.59C94.49,-118.86 130.99,-73.41 153.98,-44.77"/>
<polygon fill="black" stroke="black" points="156.45,-47.28 159.98,-37.29 150.99,-42.9 156.45,-47.28"/>
</g>
<!-- stream&#45;&gt;iter -->
<g id="edge41" class="edge">
<title>stream&#45;&gt;iter</title>
<path fill="none" stroke="black" d="M539.21,-431.67C527.56,-395.25 499.88,-312.14 482.67,-288 475.1,-277.4 464.95,-267.63 455,-259.44"/>
<polygon fill="black" stroke="black" points="457.22,-256.74 447.19,-253.33 452.9,-262.25 457.22,-256.74"/>
</g>
<!-- stream&#45;&gt;funcs -->
<g id="edge40" class="edge">
<title>stream&#45;&gt;funcs</title>
<path fill="none" stroke="black" d="M542.88,-431.76C540.79,-413.69 536.81,-384.58 530.67,-360 504.52,-255.49 487.82,-228.24 420.67,-144 412.82,-134.16 403.19,-124.41 394.14,-116"/>
<polygon fill="black" stroke="black" points="396.61,-113.51 386.85,-109.4 391.92,-118.71 396.61,-113.51"/>
</g>
<!-- stream&#45;&gt;conv -->
<g id="edge39" class="edge">
<title>stream&#45;&gt;conv</title>
<path fill="none" stroke="black" d="M554.11,-431.59C567.34,-407.18 591.53,-362.58 607.08,-333.89"/>
<polygon fill="black" stroke="black" points="609.98,-335.9 611.67,-325.44 603.82,-332.56 609.98,-335.9"/>
</g>
<!-- stream&#45;&gt;constraint -->
<g id="edge38" class="edge">
<title>stream&#45;&gt;constraint</title>
<path fill="none" stroke="black" d="M572.03,-443.43C651.34,-426.53 875.67,-372.89 875.67,-307 875.67,-307 875.67,-307 875.67,-161 875.67,-113.42 838.37,-69.72 810.51,-43.71"/>
<polygon fill="black" stroke="black" points="813.11,-41.34 803.35,-37.24 808.42,-46.54 813.11,-41.34"/>
</g>
<!-- stream&#45;&gt;tuple -->
<g id="edge43" class="edge">
<title>stream&#45;&gt;tuple</title>
<path fill="none" stroke="black" d="M517.36,-447.55C431.62,-441.39 166.34,-409.79 46.67,-252 -1.82,-188.07 -21.19,-131.48 32.67,-72 59.33,-42.55 103.92,-29.41 136.03,-23.57"/>
<polygon fill="black" stroke="black" points="136.44,-27.05 145.74,-21.98 135.31,-20.14 136.44,-27.05"/>
</g>
<!-- math -->
<g id="node19" class="node">
<title>math</title>
<polygon fill="none" stroke="black" points="729.67,-396 675.67,-396 675.67,-360 729.67,-360 729.67,-396"/>
<text text-anchor="middle" x="702.67" y="-372.95" font-family="Times,serif" font-size="14.00">math</text>
</g>
<!-- stream&#45;&gt;math -->
<g id="edge42" class="edge">
<title>stream&#45;&gt;math</title>
<path fill="none" stroke="black" d="M571.83,-436.97C597.49,-425.6 636.22,-408.44 664.88,-395.74"/>
<polygon fill="black" stroke="black" points="666.22,-398.97 673.95,-391.72 663.39,-392.57 666.22,-398.97"/>
</g>
<!-- iter&#45;&gt;funcs -->
<g id="edge29" class="edge">
<title>iter&#45;&gt;funcs</title>
<path fill="none" stroke="black" d="M417.97,-215.67C415.72,-197.29 410.78,-167.69 400.67,-144 396.75,-134.84 391.17,-125.6 385.57,-117.46"/>
<polygon fill="black" stroke="black" points="388.42,-115.42 379.72,-109.38 382.75,-119.53 388.42,-115.42"/>
</g>
<!-- iter&#45;&gt;union -->
<g id="edge31" class="edge">
<title>iter&#45;&gt;union</title>
<path fill="none" stroke="black" d="M406.07,-215.7C399.74,-207.64 392.08,-197.89 385.08,-188.98"/>
<polygon fill="black" stroke="black" points="387.97,-187 379.04,-181.29 382.47,-191.32 387.97,-187"/>
</g>
<!-- iter&#45;&gt;tuple -->
<g id="edge30" class="edge">
<title>iter&#45;&gt;tuple</title>
<path fill="none" stroke="black" d="M423.85,-215.64C430.7,-182.4 439.95,-109.72 400.67,-72 374.08,-46.47 270.12,-30.37 212.92,-23.25"/>
<polygon fill="black" stroke="black" points="213.66,-19.82 203.31,-22.09 212.82,-26.77 213.66,-19.82"/>
</g>
<!-- code -->
<g id="node8" class="node">
<title>code</title>
<polygon fill="none" stroke="black" points="336.67,-252 282.67,-252 282.67,-216 336.67,-216 336.67,-252"/>
<text text-anchor="middle" x="309.67" y="-228.95" font-family="Times,serif" font-size="14.00">code</text>
</g>
<!-- code&#45;&gt;funcs -->
<g id="edge1" class="edge">
<title>code&#45;&gt;funcs</title>
<path fill="none" stroke="black" d="M311.36,-215.67C313.62,-197.29 318.55,-167.69 328.67,-144 332.58,-134.84 338.16,-125.6 343.76,-117.46"/>
<polygon fill="black" stroke="black" points="346.58,-119.53 349.61,-109.38 340.91,-115.42 346.58,-119.53"/>
</g>
<!-- code&#45;&gt;io/writer -->
<g id="edge2" class="edge">
<title>code&#45;&gt;io/writer</title>
<path fill="none" stroke="black" d="M282.35,-218.83C263.41,-209.02 237.84,-195.76 216.37,-184.62"/>
<polygon fill="black" stroke="black" points="218.04,-181.55 207.55,-180.05 214.82,-187.76 218.04,-181.55"/>
</g>
<!-- code&#45;&gt;union -->
<g id="edge3" class="edge">
<title>code&#45;&gt;union</title>
<path fill="none" stroke="black" d="M323.26,-215.7C329.59,-207.64 337.25,-197.89 344.25,-188.98"/>
<polygon fill="black" stroke="black" points="346.87,-191.32 350.29,-181.29 341.36,-187 346.87,-191.32"/>
</g>
<!-- funcs&#45;&gt;constraint -->
<g id="edge24" class="edge">
<title>funcs&#45;&gt;constraint</title>
<path fill="none" stroke="black" d="M391.96,-84.41C461.78,-72.66 647.47,-41.41 734.47,-26.77"/>
<polygon fill="black" stroke="black" points="735.05,-30.22 744.33,-25.11 733.89,-23.32 735.05,-30.22"/>
</g>
<!-- funcs&#45;&gt;tuple -->
<g id="edge25" class="edge">
<title>funcs&#45;&gt;tuple</title>
<path fill="none" stroke="black" d="M337.44,-78.97C304.66,-66.89 249.42,-46.54 212.5,-32.94"/>
<polygon fill="black" stroke="black" points="214.16,-29.82 203.57,-29.65 211.74,-36.39 214.16,-29.82"/>
</g>
<!-- io/writer&#45;&gt;funcs -->
<g id="edge27" class="edge">
<title>io/writer&#45;&gt;funcs</title>
<path fill="none" stroke="black" d="M206.12,-149.07C210.66,-147.36 215.28,-145.63 219.67,-144 255.98,-130.5 297.51,-115.35 326.79,-104.72"/>
<polygon fill="black" stroke="black" points="327.75,-108.09 335.95,-101.39 325.36,-101.51 327.75,-108.09"/>
</g>
<!-- io/writer&#45;&gt;tuple -->
<g id="edge28" class="edge">
<title>io/writer&#45;&gt;tuple</title>
<path fill="none" stroke="black" d="M174.67,-143.59C174.67,-119.61 174.67,-76.14 174.67,-47.42"/>
<polygon fill="black" stroke="black" points="178.17,-47.62 174.67,-37.62 171.17,-47.62 178.17,-47.62"/>
</g>
<!-- union&#45;&gt;funcs -->
<g id="edge44" class="edge">
<title>union&#45;&gt;funcs</title>
<path fill="none" stroke="black" d="M364.67,-143.7C364.67,-136.41 364.67,-127.73 364.67,-119.54"/>
<polygon fill="black" stroke="black" points="368.17,-119.62 364.67,-109.62 361.17,-119.62 368.17,-119.62"/>
</g>
<!-- code/golang -->
<g id="node12" class="node">
<title>code/golang</title>
<polygon fill="none" stroke="black" points="364.67,-324 282.67,-324 282.67,-288 364.67,-288 364.67,-324"/>
<text text-anchor="middle" x="323.67" y="-300.95" font-family="Times,serif" font-size="14.00">code/golang</text>
</g>
<!-- code/golang&#45;&gt;code -->
<g id="edge4" class="edge">
<title>code/golang&#45;&gt;code</title>
<path fill="none" stroke="black" d="M320.2,-287.7C318.73,-280.32 316.97,-271.52 315.32,-263.25"/>
<polygon fill="black" stroke="black" points="318.78,-262.71 313.38,-253.59 311.91,-264.08 318.78,-262.71"/>
</g>
<!-- conv&#45;&gt;funcs -->
<g id="edge6" class="edge">
<title>conv&#45;&gt;funcs</title>
<path fill="none" stroke="black" d="M601.77,-287.69C591.34,-277.92 578.85,-265.08 569.67,-252 539.05,-208.4 557.44,-179.44 517.67,-144 485.47,-115.31 436.91,-101.97 403.17,-95.89"/>
<polygon fill="black" stroke="black" points="403.83,-92.45 393.4,-94.28 402.69,-99.36 403.83,-92.45"/>
</g>
<!-- conv&#45;&gt;constraint -->
<g id="edge5" class="edge">
<title>conv&#45;&gt;constraint</title>
<path fill="none" stroke="black" d="M649,-292.3C685.6,-273.59 749.02,-234.82 775.67,-180 796.35,-137.44 791.87,-80.8 786.46,-47.29"/>
<polygon fill="black" stroke="black" points="789.93,-46.78 784.74,-37.55 783.04,-48 789.93,-46.78"/>
</g>
<!-- reflect -->
<g id="node15" class="node">
<title>reflect</title>
<polygon fill="none" stroke="black" points="623.67,-180 569.67,-180 569.67,-144 623.67,-144 623.67,-180"/>
<text text-anchor="middle" x="596.67" y="-156.95" font-family="Times,serif" font-size="14.00">reflect</text>
</g>
<!-- conv&#45;&gt;reflect -->
<g id="edge7" class="edge">
<title>conv&#45;&gt;reflect</title>
<path fill="none" stroke="black" d="M645.24,-287.58C655.76,-278.33 667.03,-265.98 672.67,-252 678.65,-237.16 680.07,-230.19 672.67,-216 664.38,-200.13 648.93,-188.04 634.12,-179.44"/>
<polygon fill="black" stroke="black" points="635.86,-176.4 625.39,-174.76 632.55,-182.57 635.86,-176.4"/>
</g>
<!-- union/reflect -->
<g id="node16" class="node">
<title>union/reflect</title>
<polygon fill="none" stroke="black" points="664.17,-252 579.17,-252 579.17,-216 664.17,-216 664.17,-252"/>
<text text-anchor="middle" x="621.67" y="-228.95" font-family="Times,serif" font-size="14.00">union/reflect</text>
</g>
<!-- conv&#45;&gt;union/reflect -->
<g id="edge8" class="edge">
<title>conv&#45;&gt;union/reflect</title>
<path fill="none" stroke="black" d="M621.67,-287.7C621.67,-280.41 621.67,-271.73 621.67,-263.54"/>
<polygon fill="black" stroke="black" points="625.17,-263.62 621.67,-253.62 618.17,-263.62 625.17,-263.62"/>
</g>
<!-- reflect&#45;&gt;funcs -->
<g id="edge35" class="edge">
<title>reflect&#45;&gt;funcs</title>
<path fill="none" stroke="black" d="M569.5,-149.19C564.92,-147.36 560.18,-145.56 555.67,-144 503.4,-125.99 441.52,-109.71 402.67,-100.09"/>
<polygon fill="black" stroke="black" points="403.89,-96.78 393.34,-97.79 402.22,-103.58 403.89,-96.78"/>
</g>
<!-- union/reflect&#45;&gt;reflect -->
<g id="edge45" class="edge">
<title>union/reflect&#45;&gt;reflect</title>
<path fill="none" stroke="black" d="M615.49,-215.7C612.79,-208.15 609.57,-199.12 606.55,-190.68"/>
<polygon fill="black" stroke="black" points="609.94,-189.77 603.28,-181.53 603.35,-192.12 609.94,-189.77"/>
</g>
<!-- io -->
<g id="node18" class="node">
<title>io</title>
<polygon fill="none" stroke="black" points="729.67,-468 675.67,-468 675.67,-432 729.67,-432 729.67,-468"/>
<text text-anchor="middle" x="702.67" y="-444.95" font-family="Times,serif" font-size="14.00">io</text>
</g>
<!-- io&#45;&gt;math -->
<g id="edge26" class="edge">
<title>io&#45;&gt;math</title>
<path fill="none" stroke="black" d="M702.67,-431.7C702.67,-424.41 702.67,-415.73 702.67,-407.54"/>
<polygon fill="black" stroke="black" points="706.17,-407.62 702.67,-397.62 699.17,-407.62 706.17,-407.62"/>
</g>
<!-- math&#45;&gt;funcs -->
<g id="edge34" class="edge">
<title>math&#45;&gt;funcs</title>
<path fill="none" stroke="black" d="M704.45,-359.82C706.92,-329.57 709.08,-265.31 689.67,-216 682.19,-197.01 650.08,-154.64 632.67,-144 622.89,-138.03 475.16,-110.87 403.32,-97.92"/>
<polygon fill="black" stroke="black" points="404.02,-94.49 393.56,-96.16 402.78,-101.38 404.02,-94.49"/>
</g>
<!-- math&#45;&gt;conv -->
<g id="edge33" class="edge">
<title>math&#45;&gt;conv</title>
<path fill="none" stroke="black" d="M682.64,-359.7C672.91,-351.28 661.03,-341.02 650.35,-331.79"/>
<polygon fill="black" stroke="black" points="652.74,-329.23 642.88,-325.34 648.16,-334.52 652.74,-329.23"/>
</g>
<!-- math&#45;&gt;constraint -->
<g id="edge32" class="edge">
<title>math&#45;&gt;constraint</title>
<path fill="none" stroke="black" d="M729.98,-363.78C769.43,-342.56 837.67,-296.91 837.67,-235 837.67,-235 837.67,-235 837.67,-161 837.67,-118.6 815.51,-73.87 798.82,-46.2"/>
<polygon fill="black" stroke="black" points="801.82,-44.39 793.55,-37.76 795.88,-48.09 801.82,-44.39"/>
</g>
</g>
</svg>
