<?xml version="1.0" encoding="UTF-8" standalone="no"?>
<!DOCTYPE svg PUBLIC "-//W3C//DTD SVG 1.1//EN"
 "http://www.w3.org/Graphics/SVG/1.1/DTD/svg11.dtd">
<!-- Generated by graphviz version 9.0.0 (20230911.1827)
 -->
<!-- Title: dependencies Pages: 1 -->
<svg width="903pt" height="548pt"
 viewBox="0.00 0.00 902.95 548.00" xmlns="http://www.w3.org/2000/svg" xmlns:xlink="http://www.w3.org/1999/xlink">
<g id="graph0" class="graph" transform="scale(1 1) rotate(0) translate(4 544)">
<title>dependencies</title>
<polygon fill="white" stroke="none" points="-4,4 -4,-544 898.95,-544 898.95,4 -4,4"/>
<!-- encoding/json -->
<g id="node1" class="node">
<title>encoding/json</title>
<polygon fill="#87cefa" stroke="black" points="456.82,-396 365.07,-396 365.07,-360 456.82,-360 456.82,-396"/>
<text text-anchor="middle" x="410.95" y="-372.95" font-family="Times,serif" font-size="14.00">encoding/json</text>
</g>
<!-- funcs -->
<g id="node9" class="node">
<title>funcs</title>
<polygon fill="none" stroke="black" points="456.95,-108 402.95,-108 402.95,-72 456.95,-72 456.95,-108"/>
<text text-anchor="middle" x="429.95" y="-84.95" font-family="Times,serif" font-size="14.00">funcs</text>
</g>
<!-- encoding/json&#45;&gt;funcs -->
<g id="edge11" class="edge">
<title>encoding/json&#45;&gt;funcs</title>
<path fill="none" stroke="black" d="M405.44,-359.56C393.89,-320.13 370.1,-221.53 393.95,-144 396.83,-134.63 402,-125.42 407.53,-117.39"/>
<polygon fill="black" stroke="black" points="410.28,-119.56 413.43,-109.44 404.66,-115.38 410.28,-119.56"/>
</g>
<!-- union -->
<g id="node11" class="node">
<title>union</title>
<polygon fill="none" stroke="black" points="456.95,-180 402.95,-180 402.95,-144 456.95,-144 456.95,-180"/>
<text text-anchor="middle" x="429.95" y="-156.95" font-family="Times,serif" font-size="14.00">union</text>
</g>
<!-- encoding/json&#45;&gt;union -->
<g id="edge13" class="edge">
<title>encoding/json&#45;&gt;union</title>
<path fill="none" stroke="black" d="M412.47,-359.85C415.73,-323.14 423.41,-236.66 427.41,-191.53"/>
<polygon fill="black" stroke="black" points="430.88,-192.01 428.28,-181.74 423.91,-191.39 430.88,-192.01"/>
</g>
<!-- conv -->
<g id="node13" class="node">
<title>conv</title>
<polygon fill="none" stroke="black" points="687.95,-324 633.95,-324 633.95,-288 687.95,-288 687.95,-324"/>
<text text-anchor="middle" x="660.95" y="-300.95" font-family="Times,serif" font-size="14.00">conv</text>
</g>
<!-- encoding/json&#45;&gt;conv -->
<g id="edge10" class="edge">
<title>encoding/json&#45;&gt;conv</title>
<path fill="none" stroke="black" d="M457.09,-364.08C504.72,-350.74 578.18,-330.18 622.69,-317.71"/>
<polygon fill="black" stroke="black" points="623.47,-321.13 632.16,-315.06 621.59,-314.39 623.47,-321.13"/>
</g>
<!-- constraint -->
<g id="node14" class="node">
<title>constraint</title>
<polygon fill="none" stroke="black" points="834.57,-36 765.32,-36 765.32,0 834.57,0 834.57,-36"/>
<text text-anchor="middle" x="799.95" y="-12.95" font-family="Times,serif" font-size="14.00">constraint</text>
</g>
<!-- encoding/json&#45;&gt;constraint -->
<g id="edge9" class="edge">
<title>encoding/json&#45;&gt;constraint</title>
<path fill="none" stroke="black" d="M457.11,-359.97C480.26,-350.64 508.32,-338.11 531.95,-324 598.81,-284.06 602.3,-254.6 669.95,-216 708.08,-194.24 733.17,-213.16 761.95,-180 794.28,-142.75 800.33,-83.01 800.81,-47.73"/>
<polygon fill="black" stroke="black" points="804.31,-47.85 800.79,-37.86 797.31,-47.87 804.31,-47.85"/>
</g>
<!-- tuple -->
<g id="node17" class="node">
<title>tuple</title>
<polygon fill="none" stroke="black" points="152.95,-36 98.95,-36 98.95,0 152.95,0 152.95,-36"/>
<text text-anchor="middle" x="125.95" y="-12.95" font-family="Times,serif" font-size="14.00">tuple</text>
</g>
<!-- encoding/json&#45;&gt;tuple -->
<g id="edge12" class="edge">
<title>encoding/json&#45;&gt;tuple</title>
<path fill="none" stroke="black" d="M364.76,-369.69C278.77,-353.3 95.9,-304.8 18.95,-180 -6.25,-139.14 -6.36,-112.78 18.95,-72 33.86,-47.97 63.25,-34.51 87.47,-27.16"/>
<polygon fill="black" stroke="black" points="88.34,-30.56 97.05,-24.52 86.47,-23.81 88.34,-30.56"/>
</g>
<!-- encoding/json/parse -->
<g id="node2" class="node">
<title>encoding/json/parse</title>
<polygon fill="#87cefa" stroke="black" points="416.95,-540 292.95,-540 292.95,-504 416.95,-504 416.95,-540"/>
<text text-anchor="middle" x="354.95" y="-516.95" font-family="Times,serif" font-size="14.00">encoding/json/parse</text>
</g>
<!-- encoding/json/parse&#45;&gt;encoding/json -->
<g id="edge14" class="edge">
<title>encoding/json/parse&#45;&gt;encoding/json</title>
<path fill="none" stroke="black" d="M361.81,-503.59C371.35,-479.4 388.72,-435.36 400.04,-406.65"/>
<polygon fill="black" stroke="black" points="403.23,-408.11 403.64,-397.52 396.72,-405.54 403.23,-408.11"/>
</g>
<!-- stream -->
<g id="node6" class="node">
<title>stream</title>
<polygon fill="#87cefa" stroke="black" points="615.95,-468 561.95,-468 561.95,-432 615.95,-432 615.95,-468"/>
<text text-anchor="middle" x="588.95" y="-444.95" font-family="Times,serif" font-size="14.00">stream</text>
</g>
<!-- encoding/json/parse&#45;&gt;stream -->
<g id="edge17" class="edge">
<title>encoding/json/parse&#45;&gt;stream</title>
<path fill="none" stroke="black" d="M413.39,-503.52C456.33,-490.67 513.44,-473.59 550.69,-462.44"/>
<polygon fill="black" stroke="black" points="551.54,-465.84 560.12,-459.62 549.54,-459.14 551.54,-465.84"/>
</g>
<!-- iter -->
<g id="node7" class="node">
<title>iter</title>
<polygon fill="#e6e6fa" stroke="black" points="346.95,-252 292.95,-252 292.95,-216 346.95,-216 346.95,-252"/>
<text text-anchor="middle" x="319.95" y="-228.95" font-family="Times,serif" font-size="14.00">iter</text>
</g>
<!-- encoding/json/parse&#45;&gt;iter -->
<g id="edge16" class="edge">
<title>encoding/json/parse&#45;&gt;iter</title>
<path fill="none" stroke="black" d="M350.17,-503.52C341.1,-469.36 321.7,-391.19 314.95,-324 313.35,-308.08 314.19,-303.98 314.95,-288 315.32,-280.03 316.01,-271.41 316.76,-263.48"/>
<polygon fill="black" stroke="black" points="320.23,-263.97 317.76,-253.66 313.27,-263.26 320.23,-263.97"/>
</g>
<!-- encoding/json/parse&#45;&gt;funcs -->
<g id="edge15" class="edge">
<title>encoding/json/parse&#45;&gt;funcs</title>
<path fill="none" stroke="black" d="M292.48,-514.28C235.34,-506.68 156.9,-492.14 137.95,-468 128.07,-455.42 136.25,-447.91 137.95,-432 151.8,-301.8 108.03,-237.25 199.95,-144 226.32,-117.24 332.91,-101.63 391.28,-94.92"/>
<polygon fill="black" stroke="black" points="391.56,-98.41 401.11,-93.82 390.78,-91.45 391.56,-98.41"/>
</g>
<!-- encoding/json/write -->
<g id="node3" class="node">
<title>encoding/json/write</title>
<polygon fill="#87cefa" stroke="black" points="270.57,-468 147.32,-468 147.32,-432 270.57,-432 270.57,-468"/>
<text text-anchor="middle" x="208.95" y="-444.95" font-family="Times,serif" font-size="14.00">encoding/json/write</text>
</g>
<!-- encoding/json/write&#45;&gt;encoding/json -->
<g id="edge18" class="edge">
<title>encoding/json/write&#45;&gt;encoding/json</title>
<path fill="none" stroke="black" d="M259.4,-431.52C288.12,-421.56 324.2,-409.06 353.94,-398.75"/>
<polygon fill="black" stroke="black" points="354.86,-402.14 363.16,-395.56 352.57,-395.53 354.86,-402.14"/>
</g>
<!-- encoding/json/write&#45;&gt;funcs -->
<g id="edge19" class="edge">
<title>encoding/json/write&#45;&gt;funcs</title>
<path fill="none" stroke="black" d="M211.03,-431.51C218.17,-379.51 246.42,-224.54 336.95,-144 353.43,-129.34 374.62,-116.88 392.61,-107.73"/>
<polygon fill="black" stroke="black" points="393.98,-110.95 401.42,-103.4 390.9,-104.67 393.98,-110.95"/>
</g>
<!-- io/writer -->
<g id="node10" class="node">
<title>io/writer</title>
<polygon fill="none" stroke="black" points="271.2,-180 208.7,-180 208.7,-144 271.2,-144 271.2,-180"/>
<text text-anchor="middle" x="239.95" y="-156.95" font-family="Times,serif" font-size="14.00">io/writer</text>
</g>
<!-- encoding/json/write&#45;&gt;io/writer -->
<g id="edge20" class="edge">
<title>encoding/json/write&#45;&gt;io/writer</title>
<path fill="none" stroke="black" d="M208.15,-431.57C207.51,-413.61 207.01,-384.8 208.95,-360 213.67,-299.58 226.43,-229.67 234.03,-191.51"/>
<polygon fill="black" stroke="black" points="237.44,-192.26 235.99,-181.77 230.58,-190.88 237.44,-192.26"/>
</g>
<!-- event -->
<g id="node4" class="node">
<title>event</title>
<polygon fill="#87cefa" stroke="black" points="752.95,-180 698.95,-180 698.95,-144 752.95,-144 752.95,-180"/>
<text text-anchor="middle" x="725.95" y="-156.95" font-family="Times,serif" font-size="14.00">event</text>
</g>
<!-- event&#45;&gt;funcs -->
<g id="edge22" class="edge">
<title>event&#45;&gt;funcs</title>
<path fill="none" stroke="black" d="M698.86,-148.93C694.27,-147.13 689.51,-145.41 684.95,-144 609.74,-120.82 518.93,-104.66 468.49,-96.69"/>
<polygon fill="black" stroke="black" points="469.08,-93.24 458.66,-95.16 468.01,-100.16 469.08,-93.24"/>
</g>
<!-- event&#45;&gt;constraint -->
<g id="edge21" class="edge">
<title>event&#45;&gt;constraint</title>
<path fill="none" stroke="black" d="M733.18,-143.63C740.93,-125.46 753.87,-96.26 766.95,-72 771.63,-63.32 777.15,-54.11 782.32,-45.85"/>
<polygon fill="black" stroke="black" points="785.15,-47.93 787.57,-37.62 779.24,-44.17 785.15,-47.93"/>
</g>
<!-- event&#45;&gt;tuple -->
<g id="edge23" class="edge">
<title>event&#45;&gt;tuple</title>
<path fill="none" stroke="black" d="M698.71,-149.37C694.14,-147.52 689.43,-145.66 684.95,-144 588.89,-108.35 565.56,-95.97 465.95,-72 358.18,-46.07 228.02,-29.89 164.54,-22.94"/>
<polygon fill="black" stroke="black" points="164.95,-19.46 154.63,-21.88 164.2,-26.42 164.95,-19.46"/>
</g>
<!-- rest -->
<g id="node5" class="node">
<title>rest</title>
<polygon fill="#87cefa" stroke="black" points="152.95,-180 98.95,-180 98.95,-144 152.95,-144 152.95,-180"/>
<text text-anchor="middle" x="125.95" y="-156.95" font-family="Times,serif" font-size="14.00">rest</text>
</g>
<!-- rest&#45;&gt;funcs -->
<g id="edge36" class="edge">
<title>rest&#45;&gt;funcs</title>
<path fill="none" stroke="black" d="M153.02,-148.91C157.62,-147.11 162.38,-145.39 166.95,-144 245.07,-120.18 339.55,-104.13 391.34,-96.37"/>
<polygon fill="black" stroke="black" points="391.75,-99.85 401.14,-94.93 390.74,-92.93 391.75,-99.85"/>
</g>
<!-- rest&#45;&gt;tuple -->
<g id="edge37" class="edge">
<title>rest&#45;&gt;tuple</title>
<path fill="none" stroke="black" d="M125.95,-143.59C125.95,-119.61 125.95,-76.14 125.95,-47.42"/>
<polygon fill="black" stroke="black" points="129.45,-47.62 125.95,-37.62 122.45,-47.62 129.45,-47.62"/>
</g>
<!-- stream&#45;&gt;iter -->
<g id="edge41" class="edge">
<title>stream&#45;&gt;iter</title>
<path fill="none" stroke="black" d="M561.7,-446.42C506.6,-440.65 384.71,-424.87 355.95,-396 320.89,-360.82 316.81,-299.43 317.82,-263.48"/>
<polygon fill="black" stroke="black" points="321.3,-264 318.26,-253.85 314.31,-263.68 321.3,-264"/>
</g>
<!-- stream&#45;&gt;funcs -->
<g id="edge40" class="edge">
<title>stream&#45;&gt;funcs</title>
<path fill="none" stroke="black" d="M585.88,-431.59C576.73,-382.96 546.28,-242.73 483.95,-144 477.58,-133.92 468.94,-124.33 460.44,-116.14"/>
<polygon fill="black" stroke="black" points="462.93,-113.67 453.2,-109.48 458.19,-118.82 462.93,-113.67"/>
</g>
<!-- stream&#45;&gt;conv -->
<g id="edge39" class="edge">
<title>stream&#45;&gt;conv</title>
<path fill="none" stroke="black" d="M597.78,-431.59C610.1,-407.29 632.57,-362.97 647.12,-334.27"/>
<polygon fill="black" stroke="black" points="650.19,-335.96 651.59,-325.46 643.94,-332.8 650.19,-335.96"/>
</g>
<!-- stream&#45;&gt;constraint -->
<g id="edge38" class="edge">
<title>stream&#45;&gt;constraint</title>
<path fill="none" stroke="black" d="M616.32,-446.36C675.17,-440.23 811.41,-423.4 847.95,-396 883.74,-369.16 894.95,-351.73 894.95,-307 894.95,-307 894.95,-307 894.95,-161 894.95,-113.42 857.65,-69.72 829.79,-43.71"/>
<polygon fill="black" stroke="black" points="832.39,-41.34 822.63,-37.24 827.7,-46.54 832.39,-41.34"/>
</g>
<!-- stream&#45;&gt;tuple -->
<g id="edge43" class="edge">
<title>stream&#45;&gt;tuple</title>
<path fill="none" stroke="black" d="M561.45,-447.79C512.55,-444.71 408.25,-433.86 329.95,-396 195.62,-331.05 135.95,-315.25 72.95,-180 65.96,-165.01 69.18,-90.33 76.95,-72 81.22,-61.92 88.29,-52.54 95.74,-44.57"/>
<polygon fill="black" stroke="black" points="98.16,-47.09 102.79,-37.56 93.23,-42.12 98.16,-47.09"/>
</g>
<!-- math -->
<g id="node19" class="node">
<title>math</title>
<polygon fill="none" stroke="black" points="838.95,-396 784.95,-396 784.95,-360 838.95,-360 838.95,-396"/>
<text text-anchor="middle" x="811.95" y="-372.95" font-family="Times,serif" font-size="14.00">math</text>
</g>
<!-- stream&#45;&gt;math -->
<g id="edge42" class="edge">
<title>stream&#45;&gt;math</title>
<path fill="none" stroke="black" d="M616.2,-441.93C651.86,-432.47 716.14,-414.72 769.95,-396 771.28,-395.53 772.64,-395.05 774.01,-394.55"/>
<polygon fill="black" stroke="black" points="775.01,-397.92 783.12,-391.09 772.53,-391.37 775.01,-397.92"/>
</g>
<!-- iter&#45;&gt;funcs -->
<g id="edge29" class="edge">
<title>iter&#45;&gt;funcs</title>
<path fill="none" stroke="black" d="M325.17,-215.57C331.46,-196.57 343.43,-165.94 360.95,-144 369.93,-132.75 381.79,-122.53 393.14,-114.13"/>
<polygon fill="black" stroke="black" points="395.1,-117.03 401.24,-108.4 391.05,-111.32 395.1,-117.03"/>
</g>
<!-- iter&#45;&gt;union -->
<g id="edge31" class="edge">
<title>iter&#45;&gt;union</title>
<path fill="none" stroke="black" d="M347.42,-215.52C361.31,-206.68 378.35,-195.84 393.33,-186.3"/>
<polygon fill="black" stroke="black" points="394.99,-189.39 401.55,-181.07 391.23,-183.49 394.99,-189.39"/>
</g>
<!-- iter&#45;&gt;tuple -->
<g id="edge30" class="edge">
<title>iter&#45;&gt;tuple</title>
<path fill="none" stroke="black" d="M292.51,-230.85C237.11,-225.87 115.02,-211.5 89.95,-180 58.86,-140.94 86.79,-80.44 107.79,-45.79"/>
<polygon fill="black" stroke="black" points="110.57,-47.95 112.93,-37.62 104.64,-44.22 110.57,-47.95"/>
</g>
<!-- code -->
<g id="node8" class="node">
<title>code</title>
<polygon fill="none" stroke="black" points="495.95,-252 441.95,-252 441.95,-216 495.95,-216 495.95,-252"/>
<text text-anchor="middle" x="468.95" y="-228.95" font-family="Times,serif" font-size="14.00">code</text>
</g>
<!-- code&#45;&gt;funcs -->
<g id="edge1" class="edge">
<title>code&#45;&gt;funcs</title>
<path fill="none" stroke="black" d="M471.14,-215.78C472.84,-197.49 473.76,-167.96 465.95,-144 462.91,-134.68 457.69,-125.49 452.16,-117.45"/>
<polygon fill="black" stroke="black" points="455.04,-115.46 446.28,-109.5 449.41,-119.62 455.04,-115.46"/>
</g>
<!-- code&#45;&gt;io/writer -->
<g id="edge2" class="edge">
<title>code&#45;&gt;io/writer</title>
<path fill="none" stroke="black" d="M441.78,-224.7C402.38,-212.65 329,-190.22 282.42,-175.98"/>
<polygon fill="black" stroke="black" points="283.51,-172.66 272.92,-173.08 281.46,-179.35 283.51,-172.66"/>
</g>
<!-- code&#45;&gt;union -->
<g id="edge3" class="edge">
<title>code&#45;&gt;union</title>
<path fill="none" stroke="black" d="M459.31,-215.7C455.01,-207.98 449.84,-198.71 445.05,-190.11"/>
<polygon fill="black" stroke="black" points="448.14,-188.46 440.21,-181.43 442.02,-191.87 448.14,-188.46"/>
</g>
<!-- funcs&#45;&gt;constraint -->
<g id="edge24" class="edge">
<title>funcs&#45;&gt;constraint</title>
<path fill="none" stroke="black" d="M457.15,-83.85C520.06,-71.95 676.16,-42.42 754.12,-27.67"/>
<polygon fill="black" stroke="black" points="754.37,-31.18 763.54,-25.89 753.07,-24.31 754.37,-31.18"/>
</g>
<!-- funcs&#45;&gt;tuple -->
<g id="edge25" class="edge">
<title>funcs&#45;&gt;tuple</title>
<path fill="none" stroke="black" d="M402.7,-82.73C348.37,-70.22 226.44,-42.14 164.15,-27.8"/>
<polygon fill="black" stroke="black" points="165.25,-24.46 154.72,-25.62 163.67,-31.28 165.25,-24.46"/>
</g>
<!-- io/writer&#45;&gt;funcs -->
<g id="edge27" class="edge">
<title>io/writer&#45;&gt;funcs</title>
<path fill="none" stroke="black" d="M271.4,-149.07C275.94,-147.36 280.56,-145.63 284.95,-144 321.26,-130.5 362.79,-115.35 392.07,-104.72"/>
<polygon fill="black" stroke="black" points="393.03,-108.09 401.23,-101.39 390.64,-101.51 393.03,-108.09"/>
</g>
<!-- io/writer&#45;&gt;tuple -->
<g id="edge28" class="edge">
<title>io/writer&#45;&gt;tuple</title>
<path fill="none" stroke="black" d="M225.97,-143.59C206.12,-118.86 169.63,-73.41 146.64,-44.77"/>
<polygon fill="black" stroke="black" points="149.62,-42.9 140.63,-37.29 144.16,-47.28 149.62,-42.9"/>
</g>
<!-- union&#45;&gt;funcs -->
<g id="edge44" class="edge">
<title>union&#45;&gt;funcs</title>
<path fill="none" stroke="black" d="M429.95,-143.7C429.95,-136.41 429.95,-127.73 429.95,-119.54"/>
<polygon fill="black" stroke="black" points="433.45,-119.62 429.95,-109.62 426.45,-119.62 433.45,-119.62"/>
</g>
<!-- code/golang -->
<g id="node12" class="node">
<title>code/golang</title>
<polygon fill="none" stroke="black" points="522.95,-324 440.95,-324 440.95,-288 522.95,-288 522.95,-324"/>
<text text-anchor="middle" x="481.95" y="-300.95" font-family="Times,serif" font-size="14.00">code/golang</text>
</g>
<!-- code/golang&#45;&gt;code -->
<g id="edge4" class="edge">
<title>code/golang&#45;&gt;code</title>
<path fill="none" stroke="black" d="M478.73,-287.7C477.36,-280.32 475.73,-271.52 474.19,-263.25"/>
<polygon fill="black" stroke="black" points="477.67,-262.79 472.4,-253.59 470.78,-264.06 477.67,-262.79"/>
</g>
<!-- conv&#45;&gt;funcs -->
<g id="edge6" class="edge">
<title>conv&#45;&gt;funcs</title>
<path fill="none" stroke="black" d="M651.3,-287.59C632.78,-255.53 589.44,-186.54 536.95,-144 510.91,-122.9 497.57,-124.17 467.16,-110.36"/>
<polygon fill="black" stroke="black" points="469.03,-107.38 458.51,-106.2 466,-113.68 469.03,-107.38"/>
</g>
<!-- conv&#45;&gt;constraint -->
<g id="edge5" class="edge">
<title>conv&#45;&gt;constraint</title>
<path fill="none" stroke="black" d="M663.43,-287.58C667.14,-267.71 675.97,-235.47 695.95,-216 729.48,-183.33 767.49,-217.93 794.95,-180 823.08,-141.13 815.75,-82.03 807.85,-47.28"/>
<polygon fill="black" stroke="black" points="811.35,-46.85 805.56,-37.97 804.55,-48.52 811.35,-46.85"/>
</g>
<!-- reflect -->
<g id="node15" class="node">
<title>reflect</title>
<polygon fill="none" stroke="black" points="642.95,-180 588.95,-180 588.95,-144 642.95,-144 642.95,-180"/>
<text text-anchor="middle" x="615.95" y="-156.95" font-family="Times,serif" font-size="14.00">reflect</text>
</g>
<!-- conv&#45;&gt;reflect -->
<g id="edge7" class="edge">
<title>conv&#45;&gt;reflect</title>
<path fill="none" stroke="black" d="M655.43,-287.59C647.8,-263.5 633.93,-219.75 624.83,-191.03"/>
<polygon fill="black" stroke="black" points="628.18,-190.03 621.83,-181.55 621.51,-192.14 628.18,-190.03"/>
</g>
<!-- union/reflect -->
<g id="node16" class="node">
<title>union/reflect</title>
<polygon fill="none" stroke="black" points="790.45,-252 705.45,-252 705.45,-216 790.45,-216 790.45,-252"/>
<text text-anchor="middle" x="747.95" y="-228.95" font-family="Times,serif" font-size="14.00">union/reflect</text>
</g>
<!-- conv&#45;&gt;union/reflect -->
<g id="edge8" class="edge">
<title>conv&#45;&gt;union/reflect</title>
<path fill="none" stroke="black" d="M682.45,-287.7C693.01,-279.2 705.92,-268.81 717.48,-259.51"/>
<polygon fill="black" stroke="black" points="719.61,-262.29 725.21,-253.3 715.22,-256.84 719.61,-262.29"/>
</g>
<!-- reflect&#45;&gt;funcs -->
<g id="edge35" class="edge">
<title>reflect&#45;&gt;funcs</title>
<path fill="none" stroke="black" d="M588.67,-149.5C584.1,-147.63 579.4,-145.74 574.95,-144 538.85,-129.93 497.3,-114.85 467.95,-104.39"/>
<polygon fill="black" stroke="black" points="469.36,-101.18 458.76,-101.13 467.01,-107.77 469.36,-101.18"/>
</g>
<!-- union/reflect&#45;&gt;reflect -->
<g id="edge47" class="edge">
<title>union/reflect&#45;&gt;reflect</title>
<path fill="none" stroke="black" d="M714.98,-215.52C696.21,-205.56 672.63,-193.06 653.19,-182.75"/>
<polygon fill="black" stroke="black" points="654.98,-179.74 644.5,-178.14 651.7,-185.92 654.98,-179.74"/>
</g>
<!-- io -->
<g id="node18" class="node">
<title>io</title>
<polygon fill="none" stroke="black" points="838.95,-468 784.95,-468 784.95,-432 838.95,-432 838.95,-468"/>
<text text-anchor="middle" x="811.95" y="-444.95" font-family="Times,serif" font-size="14.00">io</text>
</g>
<!-- io&#45;&gt;math -->
<g id="edge26" class="edge">
<title>io&#45;&gt;math</title>
<path fill="none" stroke="black" d="M811.95,-431.7C811.95,-424.41 811.95,-415.73 811.95,-407.54"/>
<polygon fill="black" stroke="black" points="815.45,-407.62 811.95,-397.62 808.45,-407.62 815.45,-407.62"/>
</g>
<!-- math&#45;&gt;funcs -->
<g id="edge34" class="edge">
<title>math&#45;&gt;funcs</title>
<path fill="none" stroke="black" d="M816.21,-359.53C822.94,-327.37 832.13,-258.22 798.95,-216 767.42,-175.89 733.74,-206.17 689.95,-180 669.98,-168.07 672.66,-154.59 651.95,-144 578.72,-106.54 545.9,-133.9 468.05,-109.77"/>
<polygon fill="black" stroke="black" points="469.32,-106.5 458.72,-106.67 467.11,-113.14 469.32,-106.5"/>
</g>
<!-- math&#45;&gt;conv -->
<g id="edge33" class="edge">
<title>math&#45;&gt;conv</title>
<path fill="none" stroke="black" d="M784.6,-364.32C760.52,-353.16 725.21,-336.79 698.49,-324.4"/>
<polygon fill="black" stroke="black" points="700.26,-321.37 689.72,-320.34 697.32,-327.72 700.26,-321.37"/>
</g>
<!-- math&#45;&gt;constraint -->
<g id="edge32" class="edge">
<title>math&#45;&gt;constraint</title>
<path fill="none" stroke="black" d="M821.27,-359.63C834.45,-333.41 856.95,-281.81 856.95,-235 856.95,-235 856.95,-235 856.95,-161 856.95,-118.6 834.79,-73.87 818.1,-46.2"/>
<polygon fill="black" stroke="black" points="821.1,-44.39 812.84,-37.76 815.16,-48.09 821.1,-44.39"/>
</g>
<!-- union/conv -->
<g id="node20" class="node">
<title>union/conv</title>
<polygon fill="none" stroke="black" points="761.32,-396 684.57,-396 684.57,-360 761.32,-360 761.32,-396"/>
<text text-anchor="middle" x="722.95" y="-372.95" font-family="Times,serif" font-size="14.00">union/conv</text>
</g>
<!-- union/conv&#45;&gt;conv -->
<g id="edge45" class="edge">
<title>union/conv&#45;&gt;conv</title>
<path fill="none" stroke="black" d="M707.62,-359.7C700.41,-351.56 691.67,-341.69 683.71,-332.7"/>
<polygon fill="black" stroke="black" points="686.35,-330.4 677.1,-325.24 681.11,-335.04 686.35,-330.4"/>
</g>
<!-- union/conv&#45;&gt;union/reflect -->
<g id="edge46" class="edge">
<title>union/conv&#45;&gt;union/reflect</title>
<path fill="none" stroke="black" d="M726.01,-359.59C730.23,-335.61 737.89,-292.14 742.94,-263.42"/>
<polygon fill="black" stroke="black" points="746.38,-264.06 744.67,-253.6 739.49,-262.84 746.38,-264.06"/>
</g>
</g>
</svg>
