<?xml version="1.0" encoding="UTF-8" standalone="no"?>
<!DOCTYPE svg PUBLIC "-//W3C//DTD SVG 1.1//EN"
 "http://www.w3.org/Graphics/SVG/1.1/DTD/svg11.dtd">
<!-- Generated by graphviz version 7.0.1 (20221109.1506)
 -->
<!-- Title: dependencies Pages: 1 -->
<svg width="352pt" height="476pt"
 viewBox="0.00 0.00 352.00 476.00" xmlns="http://www.w3.org/2000/svg" xmlns:xlink="http://www.w3.org/1999/xlink">
<g id="graph0" class="graph" transform="scale(1 1) rotate(0) translate(4 472)">
<title>dependencies</title>
<polygon fill="white" stroke="none" points="-4,4 -4,-472 348,-472 348,4 -4,4"/>
<!-- conv -->
<g id="node1" class="node">
<title>conv</title>
<ellipse fill="none" stroke="black" cx="96" cy="-162" rx="27.9" ry="18"/>
<text text-anchor="middle" x="96" y="-158.3" font-family="Times,serif" font-size="14.00">conv</text>
</g>
<!-- constraint -->
<g id="node2" class="node">
<title>constraint</title>
<ellipse fill="none" stroke="black" cx="181" cy="-18" rx="45.49" ry="18"/>
<text text-anchor="middle" x="181" y="-14.3" font-family="Times,serif" font-size="14.00">constraint</text>
</g>
<!-- conv&#45;&gt;constraint -->
<g id="edge1" class="edge">
<title>conv&#45;&gt;constraint</title>
<path fill="none" stroke="black" d="M103.57,-144.5C112.13,-126.31 126.86,-96.38 142,-72 147.78,-62.69 154.7,-52.92 161.1,-44.34"/>
<polygon fill="black" stroke="black" points="163.83,-46.53 167.1,-36.45 158.26,-42.29 163.83,-46.53"/>
</g>
<!-- funcs -->
<g id="node3" class="node">
<title>funcs</title>
<ellipse fill="none" stroke="black" cx="181" cy="-90" rx="29.8" ry="18"/>
<text text-anchor="middle" x="181" y="-86.3" font-family="Times,serif" font-size="14.00">funcs</text>
</g>
<!-- conv&#45;&gt;funcs -->
<g id="edge2" class="edge">
<title>conv&#45;&gt;funcs</title>
<path fill="none" stroke="black" d="M112.79,-147.17C124.94,-137.17 141.57,-123.47 155.37,-112.11"/>
<polygon fill="black" stroke="black" points="157.29,-115.06 162.78,-106 152.84,-109.66 157.29,-115.06"/>
</g>
<!-- funcs&#45;&gt;constraint -->
<g id="edge3" class="edge">
<title>funcs&#45;&gt;constraint</title>
<path fill="none" stroke="black" d="M181,-71.7C181,-64.41 181,-55.73 181,-47.54"/>
<polygon fill="black" stroke="black" points="184.5,-47.62 181,-37.62 177.5,-47.62 184.5,-47.62"/>
</g>
<!-- iter -->
<g id="node4" class="node">
<title>iter</title>
<ellipse fill="none" stroke="black" cx="213" cy="-306" rx="27" ry="18"/>
<text text-anchor="middle" x="213" y="-302.3" font-family="Times,serif" font-size="14.00">iter</text>
</g>
<!-- iter&#45;&gt;funcs -->
<g id="edge4" class="edge">
<title>iter&#45;&gt;funcs</title>
<path fill="none" stroke="black" d="M210.44,-287.85C204.95,-251.14 192.01,-164.66 185.27,-119.53"/>
<polygon fill="black" stroke="black" points="188.74,-119.1 183.8,-109.73 181.82,-120.14 188.74,-119.1"/>
</g>
<!-- util -->
<g id="node5" class="node">
<title>util</title>
<ellipse fill="none" stroke="black" cx="245" cy="-234" rx="27" ry="18"/>
<text text-anchor="middle" x="245" y="-230.3" font-family="Times,serif" font-size="14.00">util</text>
</g>
<!-- iter&#45;&gt;util -->
<g id="edge5" class="edge">
<title>iter&#45;&gt;util</title>
<path fill="none" stroke="black" d="M220.58,-288.41C224.21,-280.48 228.64,-270.78 232.73,-261.84"/>
<polygon fill="black" stroke="black" points="235.87,-263.4 236.84,-252.85 229.5,-260.49 235.87,-263.4"/>
</g>
<!-- util&#45;&gt;conv -->
<g id="edge18" class="edge">
<title>util&#45;&gt;conv</title>
<path fill="none" stroke="black" d="M223.33,-222.82C198.43,-211.12 157.29,-191.79 128.53,-178.28"/>
<polygon fill="black" stroke="black" points="130.09,-175.15 119.55,-174.06 127.11,-181.48 130.09,-175.15"/>
</g>
<!-- util&#45;&gt;constraint -->
<g id="edge17" class="edge">
<title>util&#45;&gt;constraint</title>
<path fill="none" stroke="black" d="M244.98,-215.83C244.37,-185.59 240.53,-121.36 220,-72 215.92,-62.19 209.66,-52.51 203.34,-44.17"/>
<polygon fill="black" stroke="black" points="206.22,-42.17 197.23,-36.56 200.76,-46.55 206.22,-42.17"/>
</g>
<!-- util&#45;&gt;funcs -->
<g id="edge19" class="edge">
<title>util&#45;&gt;funcs</title>
<path fill="none" stroke="black" d="M237.53,-216.43C226.66,-192.3 206.33,-147.2 193.24,-118.17"/>
<polygon fill="black" stroke="black" points="196.54,-116.96 189.24,-109.28 190.16,-119.84 196.54,-116.96"/>
</g>
<!-- json -->
<g id="node6" class="node">
<title>json</title>
<ellipse fill="none" stroke="black" cx="76" cy="-378" rx="27" ry="18"/>
<text text-anchor="middle" x="76" y="-374.3" font-family="Times,serif" font-size="14.00">json</text>
</g>
<!-- json&#45;&gt;conv -->
<g id="edge7" class="edge">
<title>json&#45;&gt;conv</title>
<path fill="none" stroke="black" d="M77.6,-359.85C81.03,-323.14 89.12,-236.66 93.33,-191.53"/>
<polygon fill="black" stroke="black" points="96.8,-192.02 94.25,-181.74 89.83,-191.37 96.8,-192.02"/>
</g>
<!-- json&#45;&gt;constraint -->
<g id="edge6" class="edge">
<title>json&#45;&gt;constraint</title>
<path fill="none" stroke="black" d="M61.7,-362.23C39.69,-337.85 0,-286.73 0,-235 0,-235 0,-235 0,-161 0,-92.81 80.51,-52.41 134.14,-33.07"/>
<polygon fill="black" stroke="black" points="135.08,-36.45 143.38,-29.87 132.78,-29.84 135.08,-36.45"/>
</g>
<!-- json&#45;&gt;funcs -->
<g id="edge8" class="edge">
<title>json&#45;&gt;funcs</title>
<path fill="none" stroke="black" d="M68.44,-360.33C51.18,-319.54 13.73,-213.02 59,-144 76.98,-116.59 112.53,-103.28 140.63,-96.86"/>
<polygon fill="black" stroke="black" points="141.18,-100.32 150.28,-94.89 139.78,-93.47 141.18,-100.32"/>
</g>
<!-- writer -->
<g id="node7" class="node">
<title>writer</title>
<ellipse fill="none" stroke="black" cx="136" cy="-306" rx="31.7" ry="18"/>
<text text-anchor="middle" x="136" y="-302.3" font-family="Times,serif" font-size="14.00">writer</text>
</g>
<!-- json&#45;&gt;writer -->
<g id="edge9" class="edge">
<title>json&#45;&gt;writer</title>
<path fill="none" stroke="black" d="M89.02,-361.81C96.7,-352.85 106.59,-341.32 115.31,-331.14"/>
<polygon fill="black" stroke="black" points="117.76,-333.66 121.61,-323.79 112.44,-329.11 117.76,-333.66"/>
</g>
<!-- writer&#45;&gt;funcs -->
<g id="edge20" class="edge">
<title>writer&#45;&gt;funcs</title>
<path fill="none" stroke="black" d="M139.61,-287.85C147.34,-251.07 165.59,-164.29 175.06,-119.24"/>
<polygon fill="black" stroke="black" points="178.43,-120.22 177.06,-109.71 171.58,-118.78 178.43,-120.22"/>
</g>
<!-- writer&#45;&gt;util -->
<g id="edge21" class="edge">
<title>writer&#45;&gt;util</title>
<path fill="none" stroke="black" d="M156.5,-291.83C173.44,-280.96 197.67,-265.4 216.5,-253.31"/>
<polygon fill="black" stroke="black" points="218.25,-256.34 224.78,-247.99 214.47,-250.45 218.25,-256.34"/>
</g>
<!-- json/parse -->
<g id="node8" class="node">
<title>json/parse</title>
<ellipse fill="none" stroke="black" cx="209" cy="-450" rx="46.29" ry="18"/>
<text text-anchor="middle" x="209" y="-446.3" font-family="Times,serif" font-size="14.00">json/parse</text>
</g>
<!-- json/parse&#45;&gt;iter -->
<g id="edge10" class="edge">
<title>json/parse&#45;&gt;iter</title>
<path fill="none" stroke="black" d="M209.49,-431.59C210.17,-407.61 211.39,-364.14 212.2,-335.42"/>
<polygon fill="black" stroke="black" points="215.69,-335.72 212.48,-325.62 208.7,-335.52 215.69,-335.72"/>
</g>
<!-- json/parse&#45;&gt;json -->
<g id="edge11" class="edge">
<title>json/parse&#45;&gt;json</title>
<path fill="none" stroke="black" d="M182.41,-435C160.58,-423.52 129.65,-407.24 106.76,-395.19"/>
<polygon fill="black" stroke="black" points="108.69,-392.25 98.21,-390.69 105.43,-398.45 108.69,-392.25"/>
</g>
<!-- stream -->
<g id="node9" class="node">
<title>stream</title>
<ellipse fill="none" stroke="black" cx="271" cy="-378" rx="34.39" ry="18"/>
<text text-anchor="middle" x="271" y="-374.3" font-family="Times,serif" font-size="14.00">stream</text>
</g>
<!-- json/parse&#45;&gt;stream -->
<g id="edge12" class="edge">
<title>json/parse&#45;&gt;stream</title>
<path fill="none" stroke="black" d="M223.38,-432.76C231.16,-423.98 240.92,-412.96 249.57,-403.19"/>
<polygon fill="black" stroke="black" points="252.11,-405.61 256.12,-395.8 246.87,-400.96 252.11,-405.61"/>
</g>
<!-- stream&#45;&gt;constraint -->
<g id="edge13" class="edge">
<title>stream&#45;&gt;constraint</title>
<path fill="none" stroke="black" d="M285.42,-361.32C306.7,-336.49 344,-285.73 344,-235 344,-235 344,-235 344,-161 344,-97.5 272.79,-55.9 224.51,-35"/>
<polygon fill="black" stroke="black" points="225.96,-31.82 215.38,-31.2 223.26,-38.28 225.96,-31.82"/>
</g>
<!-- stream&#45;&gt;funcs -->
<g id="edge14" class="edge">
<title>stream&#45;&gt;funcs</title>
<path fill="none" stroke="black" d="M276.14,-360.01C284.31,-330.04 297.74,-266.21 281,-216 266.91,-173.73 231.25,-135.38 206.56,-112.62"/>
<polygon fill="black" stroke="black" points="208.93,-110.04 199.15,-105.97 204.26,-115.25 208.93,-110.04"/>
</g>
<!-- stream&#45;&gt;iter -->
<g id="edge15" class="edge">
<title>stream&#45;&gt;iter</title>
<path fill="none" stroke="black" d="M257.84,-361.12C250.47,-352.22 241.13,-340.95 232.89,-331"/>
<polygon fill="black" stroke="black" points="235.75,-328.97 226.68,-323.51 230.36,-333.44 235.75,-328.97"/>
</g>
<!-- stream&#45;&gt;util -->
<g id="edge16" class="edge">
<title>stream&#45;&gt;util</title>
<path fill="none" stroke="black" d="M267.81,-359.59C263.42,-335.61 255.46,-292.14 250.2,-263.42"/>
<polygon fill="black" stroke="black" points="253.65,-262.81 248.41,-253.6 246.76,-264.07 253.65,-262.81"/>
</g>
</g>
</svg>
