<?xml version="1.0" encoding="UTF-8" standalone="no"?>
<!DOCTYPE svg PUBLIC "-//W3C//DTD SVG 1.1//EN"
 "http://www.w3.org/Graphics/SVG/1.1/DTD/svg11.dtd">
<!-- Generated by graphviz version 8.0.1 (20230327.1645)
 -->
<!-- Title: dependencies Pages: 1 -->
<svg width="204pt" height="332pt"
 viewBox="0.00 0.00 203.99 332.00" xmlns="http://www.w3.org/2000/svg" xmlns:xlink="http://www.w3.org/1999/xlink">
<g id="graph0" class="graph" transform="scale(1 1) rotate(0) translate(4 328)">
<title>dependencies</title>
<polygon fill="white" stroke="none" points="-4,4 -4,-328 199.99,-328 199.99,4 -4,4"/>
<!-- conv -->
<g id="node1" class="node">
<title>conv</title>
<ellipse fill="none" stroke="black" cx="105.9" cy="-162" rx="27.9" ry="18"/>
<text text-anchor="middle" x="105.9" y="-158.3" font-family="Times,serif" font-size="14.00">conv</text>
</g>
<!-- constraint -->
<g id="node2" class="node">
<title>constraint</title>
<ellipse fill="none" stroke="black" cx="87.9" cy="-18" rx="45.49" ry="18"/>
<text text-anchor="middle" x="87.9" y="-14.3" font-family="Times,serif" font-size="14.00">constraint</text>
</g>
<!-- conv&#45;&gt;constraint -->
<g id="edge1" class="edge">
<title>conv&#45;&gt;constraint</title>
<path fill="none" stroke="black" d="M103.69,-143.59C100.62,-119.4 95.04,-75.36 91.4,-46.65"/>
<polygon fill="black" stroke="black" points="94.8,-46.59 90.07,-37.11 87.85,-47.47 94.8,-46.59"/>
</g>
<!-- funcs -->
<g id="node3" class="node">
<title>funcs</title>
<ellipse fill="none" stroke="black" cx="29.9" cy="-90" rx="29.8" ry="18"/>
<text text-anchor="middle" x="29.9" y="-86.3" font-family="Times,serif" font-size="14.00">funcs</text>
</g>
<!-- conv&#45;&gt;funcs -->
<g id="edge2" class="edge">
<title>conv&#45;&gt;funcs</title>
<path fill="none" stroke="black" d="M90.52,-146.83C79.95,-137.1 65.7,-123.98 53.68,-112.9"/>
<polygon fill="black" stroke="black" points="56.5,-110.83 46.78,-106.63 51.76,-115.98 56.5,-110.83"/>
</g>
<!-- reflect -->
<g id="node4" class="node">
<title>reflect</title>
<ellipse fill="none" stroke="black" cx="148.9" cy="-90" rx="33.29" ry="18"/>
<text text-anchor="middle" x="148.9" y="-86.3" font-family="Times,serif" font-size="14.00">reflect</text>
</g>
<!-- conv&#45;&gt;reflect -->
<g id="edge3" class="edge">
<title>conv&#45;&gt;reflect</title>
<path fill="none" stroke="black" d="M115.87,-144.76C120.95,-136.49 127.25,-126.23 132.99,-116.9"/>
<polygon fill="black" stroke="black" points="136.43,-118.99 138.68,-108.63 130.46,-115.32 136.43,-118.99"/>
</g>
<!-- funcs&#45;&gt;constraint -->
<g id="edge4" class="edge">
<title>funcs&#45;&gt;constraint</title>
<path fill="none" stroke="black" d="M42.77,-73.46C50,-64.74 59.18,-53.65 67.38,-43.76"/>
<polygon fill="black" stroke="black" points="70.57,-46.4 74.25,-36.47 65.18,-41.93 70.57,-46.4"/>
</g>
<!-- iter -->
<g id="node5" class="node">
<title>iter</title>
<ellipse fill="none" stroke="black" cx="38.9" cy="-306" rx="27" ry="18"/>
<text text-anchor="middle" x="38.9" y="-302.3" font-family="Times,serif" font-size="14.00">iter</text>
</g>
<!-- iter&#45;&gt;funcs -->
<g id="edge5" class="edge">
<title>iter&#45;&gt;funcs</title>
<path fill="none" stroke="black" d="M38.18,-287.85C36.63,-250.99 32.96,-163.92 31.07,-118.96"/>
<polygon fill="black" stroke="black" points="34.54,-119.08 30.62,-109.23 27.55,-119.37 34.54,-119.08"/>
</g>
<!-- util -->
<g id="node6" class="node">
<title>util</title>
<ellipse fill="none" stroke="black" cx="85.9" cy="-234" rx="27" ry="18"/>
<text text-anchor="middle" x="85.9" y="-230.3" font-family="Times,serif" font-size="14.00">util</text>
</g>
<!-- iter&#45;&gt;util -->
<g id="edge6" class="edge">
<title>iter&#45;&gt;util</title>
<path fill="none" stroke="black" d="M49.56,-289.12C55.39,-280.43 62.74,-269.49 69.3,-259.72"/>
<polygon fill="black" stroke="black" points="72.61,-262.07 75.27,-251.82 66.79,-258.17 72.61,-262.07"/>
</g>
<!-- util&#45;&gt;conv -->
<g id="edge8" class="edge">
<title>util&#45;&gt;conv</title>
<path fill="none" stroke="black" d="M90.74,-216.05C92.95,-208.32 95.62,-198.96 98.11,-190.27"/>
<polygon fill="black" stroke="black" points="101.72,-191.37 101.1,-180.79 94.99,-189.44 101.72,-191.37"/>
</g>
<!-- util&#45;&gt;constraint -->
<g id="edge7" class="edge">
<title>util&#45;&gt;constraint</title>
<path fill="none" stroke="black" d="M103.4,-220.08C129.19,-199.72 175.95,-157.37 190.9,-108 195.53,-92.69 199.23,-85.66 190.9,-72 178.94,-52.39 157.15,-39.73 136.68,-31.72"/>
<polygon fill="black" stroke="black" points="138.07,-28.14 127.48,-28.05 135.7,-34.73 138.07,-28.14"/>
</g>
<!-- util&#45;&gt;funcs -->
<g id="edge9" class="edge">
<title>util&#45;&gt;funcs</title>
<path fill="none" stroke="black" d="M79.25,-216.15C69.7,-191.92 51.97,-146.96 40.56,-118.05"/>
<polygon fill="black" stroke="black" points="43.46,-116.84 36.53,-108.82 36.95,-119.41 43.46,-116.84"/>
</g>
</g>
</svg>
