<?xml version="1.0" encoding="UTF-8" standalone="no"?>
<!DOCTYPE svg PUBLIC "-//W3C//DTD SVG 1.1//EN"
 "http://www.w3.org/Graphics/SVG/1.1/DTD/svg11.dtd">
<!-- Generated by graphviz version 8.0.1 (20230327.1645)
 -->
<!-- Title: dependencies Pages: 1 -->
<svg width="454pt" height="476pt"
 viewBox="0.00 0.00 454.35 476.00" xmlns="http://www.w3.org/2000/svg" xmlns:xlink="http://www.w3.org/1999/xlink">
<g id="graph0" class="graph" transform="scale(1 1) rotate(0) translate(4 472)">
<title>dependencies</title>
<polygon fill="white" stroke="none" points="-4,4 -4,-472 450.35,-472 450.35,4 -4,4"/>
<!-- conv -->
<g id="node1" class="node">
<title>conv</title>
<ellipse fill="none" stroke="black" cx="126.6" cy="-162" rx="27.9" ry="18"/>
<text text-anchor="middle" x="126.6" y="-158.3" font-family="Times,serif" font-size="14.00">conv</text>
</g>
<!-- constraint -->
<g id="node2" class="node">
<title>constraint</title>
<ellipse fill="none" stroke="black" cx="183.6" cy="-18" rx="45.49" ry="18"/>
<text text-anchor="middle" x="183.6" y="-14.3" font-family="Times,serif" font-size="14.00">constraint</text>
</g>
<!-- conv&#45;&gt;constraint -->
<g id="edge1" class="edge">
<title>conv&#45;&gt;constraint</title>
<path fill="none" stroke="black" d="M124.1,-143.77C122.17,-125.21 121.34,-95.22 131.6,-72 136.66,-60.53 145.38,-50.13 154.25,-41.64"/>
<polygon fill="black" stroke="black" points="156.22,-44.68 161.33,-35.4 151.55,-39.47 156.22,-44.68"/>
</g>
<!-- funcs -->
<g id="node3" class="node">
<title>funcs</title>
<ellipse fill="none" stroke="black" cx="254.6" cy="-90" rx="29.8" ry="18"/>
<text text-anchor="middle" x="254.6" y="-86.3" font-family="Times,serif" font-size="14.00">funcs</text>
</g>
<!-- conv&#45;&gt;funcs -->
<g id="edge2" class="edge">
<title>conv&#45;&gt;funcs</title>
<path fill="none" stroke="black" d="M147.45,-149.6C168.03,-138.34 199.75,-121 223.34,-108.09"/>
<polygon fill="black" stroke="black" points="224.81,-110.73 231.9,-102.87 221.45,-104.59 224.81,-110.73"/>
</g>
<!-- reflect -->
<g id="node4" class="node">
<title>reflect</title>
<ellipse fill="none" stroke="black" cx="173.6" cy="-90" rx="33.29" ry="18"/>
<text text-anchor="middle" x="173.6" y="-86.3" font-family="Times,serif" font-size="14.00">reflect</text>
</g>
<!-- conv&#45;&gt;reflect -->
<g id="edge3" class="edge">
<title>conv&#45;&gt;reflect</title>
<path fill="none" stroke="black" d="M137.26,-145.12C142.95,-136.64 150.08,-126.02 156.52,-116.43"/>
<polygon fill="black" stroke="black" points="159.98,-118.56 162.65,-108.31 154.17,-114.66 159.98,-118.56"/>
</g>
<!-- funcs&#45;&gt;constraint -->
<g id="edge4" class="edge">
<title>funcs&#45;&gt;constraint</title>
<path fill="none" stroke="black" d="M239.54,-74.15C230.26,-65.01 218.16,-53.08 207.59,-42.65"/>
<polygon fill="black" stroke="black" points="210.45,-40.57 200.87,-36.04 205.53,-45.56 210.45,-40.57"/>
</g>
<!-- iter -->
<g id="node5" class="node">
<title>iter</title>
<ellipse fill="none" stroke="black" cx="275.6" cy="-306" rx="27" ry="18"/>
<text text-anchor="middle" x="275.6" y="-302.3" font-family="Times,serif" font-size="14.00">iter</text>
</g>
<!-- iter&#45;&gt;funcs -->
<g id="edge5" class="edge">
<title>iter&#45;&gt;funcs</title>
<path fill="none" stroke="black" d="M261.85,-290.07C253.64,-280.1 243.98,-266.25 239.6,-252 225.65,-206.64 236.67,-150.97 245.76,-118.39"/>
<polygon fill="black" stroke="black" points="249.38,-119.47 248.85,-108.89 242.67,-117.5 249.38,-119.47"/>
</g>
<!-- util -->
<g id="node6" class="node">
<title>util</title>
<ellipse fill="none" stroke="black" cx="275.6" cy="-234" rx="27" ry="18"/>
<text text-anchor="middle" x="275.6" y="-230.3" font-family="Times,serif" font-size="14.00">util</text>
</g>
<!-- iter&#45;&gt;util -->
<g id="edge6" class="edge">
<title>iter&#45;&gt;util</title>
<path fill="none" stroke="black" d="M275.6,-287.7C275.6,-280.24 275.6,-271.32 275.6,-262.97"/>
<polygon fill="black" stroke="black" points="279.1,-263.1 275.6,-253.1 272.1,-263.1 279.1,-263.1"/>
</g>
<!-- util&#45;&gt;conv -->
<g id="edge24" class="edge">
<title>util&#45;&gt;conv</title>
<path fill="none" stroke="black" d="M253.93,-222.82C228.81,-211.02 187.16,-191.45 158.37,-177.93"/>
<polygon fill="black" stroke="black" points="160.32,-174.5 149.78,-173.42 157.34,-180.84 160.32,-174.5"/>
</g>
<!-- util&#45;&gt;constraint -->
<g id="edge23" class="edge">
<title>util&#45;&gt;constraint</title>
<path fill="none" stroke="black" d="M283.8,-216.42C297.84,-185.43 322.32,-117.73 293.6,-72 280.41,-51 256.3,-38.13 234.02,-30.34"/>
<polygon fill="black" stroke="black" points="235.2,-26.72 224.61,-27.01 233.07,-33.39 235.2,-26.72"/>
</g>
<!-- util&#45;&gt;funcs -->
<g id="edge25" class="edge">
<title>util&#45;&gt;funcs</title>
<path fill="none" stroke="black" d="M273.02,-215.59C269.44,-191.4 262.93,-147.36 258.69,-118.65"/>
<polygon fill="black" stroke="black" points="262.05,-118.49 257.13,-109.11 255.13,-119.52 262.05,-118.49"/>
</g>
<!-- json -->
<g id="node7" class="node">
<title>json</title>
<ellipse fill="none" stroke="black" cx="347.6" cy="-234" rx="27" ry="18"/>
<text text-anchor="middle" x="347.6" y="-230.3" font-family="Times,serif" font-size="14.00">json</text>
</g>
<!-- json&#45;&gt;conv -->
<g id="edge8" class="edge">
<title>json&#45;&gt;conv</title>
<path fill="none" stroke="black" d="M326.52,-222.35C321.68,-220.1 316.51,-217.85 311.6,-216 261.23,-197.03 200.99,-180.95 163.25,-171.63"/>
<polygon fill="black" stroke="black" points="164.31,-168.04 153.77,-169.07 162.65,-174.84 164.31,-168.04"/>
</g>
<!-- json&#45;&gt;constraint -->
<g id="edge7" class="edge">
<title>json&#45;&gt;constraint</title>
<path fill="none" stroke="black" d="M349.01,-215.74C350.69,-183.61 349.65,-114.1 314.6,-72 295.06,-48.53 263.55,-35.35 236.33,-28.01"/>
<polygon fill="black" stroke="black" points="237.3,-24.4 226.75,-25.38 235.62,-31.19 237.3,-24.4"/>
</g>
<!-- json&#45;&gt;funcs -->
<g id="edge9" class="edge">
<title>json&#45;&gt;funcs</title>
<path fill="none" stroke="black" d="M337.11,-216.99C321.06,-192.48 290.27,-145.47 271.18,-116.32"/>
<polygon fill="black" stroke="black" points="273.6,-114.62 265.19,-108.17 267.74,-118.46 273.6,-114.62"/>
</g>
<!-- json/parse -->
<g id="node8" class="node">
<title>json/parse</title>
<ellipse fill="none" stroke="black" cx="275.6" cy="-450" rx="46.29" ry="18"/>
<text text-anchor="middle" x="275.6" y="-446.3" font-family="Times,serif" font-size="14.00">json/parse</text>
</g>
<!-- json/parse&#45;&gt;iter -->
<g id="edge10" class="edge">
<title>json/parse&#45;&gt;iter</title>
<path fill="none" stroke="black" d="M275.6,-431.59C275.6,-407.5 275.6,-363.75 275.6,-335.03"/>
<polygon fill="black" stroke="black" points="279.1,-335.11 275.6,-325.11 272.1,-335.11 279.1,-335.11"/>
</g>
<!-- json/parse&#45;&gt;json -->
<g id="edge11" class="edge">
<title>json/parse&#45;&gt;json</title>
<path fill="none" stroke="black" d="M319.62,-443.98C351.53,-437.98 393.19,-424.81 417.6,-396 448.88,-359.07 454.97,-330.38 431.6,-288 420.97,-268.72 400.05,-255.49 381.75,-247.07"/>
<polygon fill="black" stroke="black" points="383.23,-243.47 372.66,-242.77 380.48,-249.91 383.23,-243.47"/>
</g>
<!-- stream -->
<g id="node9" class="node">
<title>stream</title>
<ellipse fill="none" stroke="black" cx="182.6" cy="-378" rx="34.39" ry="18"/>
<text text-anchor="middle" x="182.6" y="-374.3" font-family="Times,serif" font-size="14.00">stream</text>
</g>
<!-- json/parse&#45;&gt;stream -->
<g id="edge12" class="edge">
<title>json/parse&#45;&gt;stream</title>
<path fill="none" stroke="black" d="M254.96,-433.46C241.75,-423.52 224.47,-410.51 210.1,-399.7"/>
<polygon fill="black" stroke="black" points="212.69,-396.52 202.6,-393.3 208.48,-402.11 212.69,-396.52"/>
</g>
<!-- stream&#45;&gt;conv -->
<g id="edge18" class="edge">
<title>stream&#45;&gt;conv</title>
<path fill="none" stroke="black" d="M178.04,-359.82C175.3,-349.45 171.74,-335.97 168.6,-324 156.26,-277.01 142.01,-222.28 133.68,-190.26"/>
<polygon fill="black" stroke="black" points="136.9,-189.72 130.99,-180.93 130.12,-191.48 136.9,-189.72"/>
</g>
<!-- stream&#45;&gt;constraint -->
<g id="edge17" class="edge">
<title>stream&#45;&gt;constraint</title>
<path fill="none" stroke="black" d="M169.19,-361.24C139.55,-324.52 72.43,-229.84 89.6,-144 96.4,-110.01 98.98,-99.87 119.6,-72 128.4,-60.1 140.42,-49.23 151.67,-40.47"/>
<polygon fill="black" stroke="black" points="153.53,-42.71 159.45,-33.92 149.35,-37.1 153.53,-42.71"/>
</g>
<!-- stream&#45;&gt;funcs -->
<g id="edge19" class="edge">
<title>stream&#45;&gt;funcs</title>
<path fill="none" stroke="black" d="M184.82,-359.71C190.13,-320.58 205.07,-222.56 230.6,-144 233.53,-134.99 237.53,-125.46 241.43,-117"/>
<polygon fill="black" stroke="black" points="244.9,-118.86 246.06,-108.33 238.59,-115.84 244.9,-118.86"/>
</g>
<!-- stream&#45;&gt;iter -->
<g id="edge20" class="edge">
<title>stream&#45;&gt;iter</title>
<path fill="none" stroke="black" d="M201.42,-362.83C215.26,-352.42 234.25,-338.12 249.55,-326.61"/>
<polygon fill="black" stroke="black" points="251.18,-329.01 257.06,-320.2 246.97,-323.41 251.18,-329.01"/>
</g>
<!-- stream&#45;&gt;util -->
<g id="edge22" class="edge">
<title>stream&#45;&gt;util</title>
<path fill="none" stroke="black" d="M192.97,-360.51C204.29,-342.58 223.03,-313.12 239.6,-288 245.71,-278.73 252.54,-268.62 258.59,-259.75"/>
<polygon fill="black" stroke="black" points="262.02,-261.93 264.77,-251.69 256.24,-257.98 262.02,-261.93"/>
</g>
<!-- math -->
<g id="node12" class="node">
<title>math</title>
<ellipse fill="none" stroke="black" cx="28.6" cy="-234" rx="28.7" ry="18"/>
<text text-anchor="middle" x="28.6" y="-230.3" font-family="Times,serif" font-size="14.00">math</text>
</g>
<!-- stream&#45;&gt;math -->
<g id="edge21" class="edge">
<title>stream&#45;&gt;math</title>
<path fill="none" stroke="black" d="M152.45,-368.73C128.05,-360.72 94.15,-346.45 71.6,-324 54.44,-306.92 43.13,-281.63 36.44,-262.37"/>
<polygon fill="black" stroke="black" points="39.52,-261.54 33.1,-253.11 32.87,-263.7 39.52,-261.54"/>
</g>
<!-- json/write -->
<g id="node10" class="node">
<title>json/write</title>
<ellipse fill="none" stroke="black" cx="362.6" cy="-378" rx="46.29" ry="18"/>
<text text-anchor="middle" x="362.6" y="-374.3" font-family="Times,serif" font-size="14.00">json/write</text>
</g>
<!-- json/write&#45;&gt;json -->
<g id="edge13" class="edge">
<title>json/write&#45;&gt;json</title>
<path fill="none" stroke="black" d="M357.42,-359.99C354.54,-349.69 351.21,-336.21 349.6,-324 346.93,-303.86 346.48,-280.94 346.67,-263.4"/>
<polygon fill="black" stroke="black" points="350.18,-263.55 346.87,-253.48 343.18,-263.41 350.18,-263.55"/>
</g>
<!-- writer -->
<g id="node11" class="node">
<title>writer</title>
<ellipse fill="none" stroke="black" cx="390.6" cy="-306" rx="31.7" ry="18"/>
<text text-anchor="middle" x="390.6" y="-302.3" font-family="Times,serif" font-size="14.00">writer</text>
</g>
<!-- json/write&#45;&gt;writer -->
<g id="edge14" class="edge">
<title>json/write&#45;&gt;writer</title>
<path fill="none" stroke="black" d="M369.38,-360.05C372.51,-352.23 376.3,-342.75 379.81,-333.98"/>
<polygon fill="black" stroke="black" points="383.42,-335.37 383.88,-324.79 376.92,-332.77 383.42,-335.37"/>
</g>
<!-- writer&#45;&gt;funcs -->
<g id="edge26" class="edge">
<title>writer&#45;&gt;funcs</title>
<path fill="none" stroke="black" d="M392.53,-287.78C393.88,-269.22 393.91,-239.23 383.6,-216 362.73,-168.99 315.21,-130.66 284.03,-109.35"/>
<polygon fill="black" stroke="black" points="286.2,-105.92 275.93,-103.29 282.32,-111.75 286.2,-105.92"/>
</g>
<!-- writer&#45;&gt;util -->
<g id="edge27" class="edge">
<title>writer&#45;&gt;util</title>
<path fill="none" stroke="black" d="M369.5,-292.16C351.23,-281.04 324.61,-264.83 304.38,-252.52"/>
<polygon fill="black" stroke="black" points="306.39,-249.03 296.02,-246.83 302.75,-255.01 306.39,-249.03"/>
</g>
<!-- math&#45;&gt;conv -->
<g id="edge16" class="edge">
<title>math&#45;&gt;conv</title>
<path fill="none" stroke="black" d="M47.03,-219.83C61.81,-209.27 82.78,-194.3 99.48,-182.37"/>
<polygon fill="black" stroke="black" points="101.14,-184.77 107.25,-176.11 97.08,-179.07 101.14,-184.77"/>
</g>
<!-- math&#45;&gt;constraint -->
<g id="edge15" class="edge">
<title>math&#45;&gt;constraint</title>
<path fill="none" stroke="black" d="M26.58,-215.57C23.85,-183.49 22.7,-114.46 56.6,-72 74.94,-49.03 104.99,-35.89 131.26,-28.45"/>
<polygon fill="black" stroke="black" points="132.06,-31.59 140.86,-25.68 130.3,-24.82 132.06,-31.59"/>
</g>
</g>
</svg>
